<svg>
<metadata> Created by FontForge 20120731 at Mon Mar 15 20:51:38 2021 By ffonts Copyright 2011 - 2016 The Montserrat Project Authors (julieta.ulanovsky@gmail.com) </metadata>
<defs>
<font id="ArgentumNovus-Light" horiz-adv-x="0">
<font-face font-family="Argentum Novus Light" font-weight="300" font-stretch="normal" units-per-em="2000" panose-1="0 0 4 0 0 0 0 0 0 0" ascent="1600" descent="-400" x-height="1046" cap-height="1399" bbox="-1032 -516 2814 2205" underline-thickness="100" underline-position="-410" unicode-range="U+001D-A78C"/>
<missing-glyph horiz-adv-x="1174" d="M1094 0h-1014v1400h1014v-1400zM934 140v1120h-694v-1120h694z"/>
<glyph glyph-name=".notdef" horiz-adv-x="1174" d="M1094 0h-1014v1400h1014v-1400zM934 140v1120h-694v-1120h694z"/>
<glyph glyph-name="uni0000" d="M0 0z"/>
<glyph glyph-name="uni0000" d="M0 0z"/>
<glyph glyph-name="nonmarkingreturn" horiz-adv-x="666"/>
<glyph glyph-name="space" unicode=" " horiz-adv-x="600" d="M0 0z"/>
<glyph glyph-name="exclam" unicode="!" horiz-adv-x="399" d="M212 -15q-35 0 -59 24.5t-24 60.5q0 35 23 60t60 25q29 0 55 -22t26 -63q0 -34 -20.5 -59.5t-60.5 -25.5zM253 404h-82l-16 611v357h113v-357z"/>
<glyph glyph-name="quotedbl" unicode=""" horiz-adv-x="575" d="M216 973h-96v426h96v-426zM455 973h-96v426h96v-426z"/>
<glyph glyph-name="numbersign" unicode="#" horiz-adv-x="1429" d="M935 0h-94l48 387h-428l-48 -387h-93l48 387h-290l6 94h295l53 427h-290l6 95h295l49 396h93l-49 -396h429l50 396h92l-50 -396h290l-5 -95h-295l-54 -427h290l-6 -94h-294zM901 481l54 427h-430l-53 -427h429z"/>
<glyph glyph-name="dollar" unicode="$" horiz-adv-x="1210" d="M651 -257h-95v248q-286 18 -486 209l57 101q207 -194 461 -194q77 0 142.5 15.5t115 47t77.5 78t28 109.5q-1 140 -111 206q-116 64 -257 103q-118 35 -191 66q-137 59 -183 128q-39 59 -52 126q-4 24 -7 79q1 36 2 44q14 134 126 214q103 70 278 85v224h95l1 -222 q221 -12 388 -119l-52 -106q-178 109 -375 109q-143 0 -234 -53q-100 -61 -100 -169q0 -46 12 -82.5t38 -66.5t66.5 -54.5t96.5 -46.5t114 -40q58 -19 115.5 -38.5t113.5 -42.5t108 -56q130 -81 139 -283q0 -160 -116 -257q-112 -94 -314 -112z"/>
<glyph glyph-name="percent" unicode="%" horiz-adv-x="1881" d="M447 573q-105 0 -183 46t-121.5 138.5t-43.5 233.5q0 194 88.5 305t259.5 111q117 0 194.5 -51t116.5 -144t39 -221q0 -207 -94 -312.5t-256 -105.5zM447 651q253 0 262 340q0 332 -262 338q-122 0 -188.5 -81t-72.5 -257q0 -330 261 -340zM452 0h-105l1057 1399h104z M1433 -7q-99 0 -178 43t-125 135t-46 239q0 194 89 305t260 111q174 0 262 -111t88 -305q0 -208 -94 -312.5t-256 -104.5zM1433 70q125 0 191 83t71 257q0 155 -62 245t-200 94q-253 0 -262 -339q0 -328 262 -340z"/>
<glyph glyph-name="ampersand" unicode="&" horiz-adv-x="1283" d="M1204 -16l-243 241q-201 -229 -440 -229q-110 0 -211 51t-158 161q-35 70 -35 165q0 127 82.5 224.5t244.5 175.5q-150 189 -150 339q0 71 35 138t108 110t187 43q102 0 170.5 -37.5t103.5 -99t35 -135.5q0 -85 -41.5 -149.5t-120.5 -120t-191 -111.5q145 -170 369 -385 q88 126 152 282l84 -61q-72 -161 -166 -291l250 -246zM525 91q196 0 368 202q-242 235 -395 414q-85 -43 -147.5 -90.5t-97 -105.5t-34.5 -132q0 -96 44 -160t114 -96t148 -32zM526 817q150 69 229 145.5t79 169.5q0 50 -23 93t-69.5 69.5t-117.5 26.5q-76 0 -127.5 -29.5 t-77.5 -77.5t-26 -102q0 -132 133 -295z"/>
<glyph glyph-name="quotesingle" unicode="'" horiz-adv-x="336" d="M216 973h-96v426h96v-426z"/>
<glyph glyph-name="parenleft" unicode="(" horiz-adv-x="581" d="M521 -248h-109q-233 360 -233 866q0 507 233 866h109q-230 -361 -230 -866t230 -866z"/>
<glyph glyph-name="parenright" unicode=")" horiz-adv-x="581" d="M169 -248h-109q230 362 230 866q0 505 -230 866h109q233 -358 233 -866q0 -245 -56 -461t-177 -405z"/>
<glyph glyph-name="asterisk" unicode="*" horiz-adv-x="637" d="M353 874h-70l1 222l-193 -113l-35 66l192 110l-192 109l35 67l193 -114l-1 222h70v-222l192 113l35 -66l-194 -109l194 -110l-35 -66l-193 113z"/>
<glyph glyph-name="plus" unicode="+" horiz-adv-x="975" d="M531 232h-86v367h-369v89h369v368h86v-368h368v-89h-368v-367z"/>
<glyph glyph-name="comma" unicode="," horiz-adv-x="376" d="M153 -231h-72l77 226q-47 24 -47 74q0 43 25.5 63.5t54.5 20.5q30 0 56 -22t26 -62q0 -37 -18 -65z"/>
<glyph glyph-name="hyphen" unicode="-" horiz-adv-x="723" d="M590 559h-458v89h458v-89z"/>
<glyph glyph-name="period" unicode="." horiz-adv-x="379" d="M190 -15q-35 0 -59 24.5t-24 60.5q0 35 23 60t60 25q29 0 55 -22t26 -63q0 -34 -21 -59.5t-60 -25.5z"/>
<glyph glyph-name="slash" unicode="/" horiz-adv-x="619" d="M93 -249h-105l620 1893h106z"/>
<glyph glyph-name="zero" unicode="0" horiz-adv-x="1200" d="M599 -7q-177 0 -294.5 86t-176.5 244.5t-59 376.5q0 222 60 380t178 242t292 84q180 0 298.5 -86t177 -244.5t58.5 -375.5q0 -216 -58.5 -375t-177 -245.5t-298.5 -86.5zM599 95q143 0 233 73.5t133 209t44 322.5q0 291 -102 448t-308 157q-193 0 -299.5 -147.5 t-106.5 -457.5q0 -191 44.5 -326t134.5 -207t227 -72z"/>
<glyph glyph-name="one" unicode="1" horiz-adv-x="1200" d="M1033 0h-806v105h411v1188h-406v106h524v-1294h277v-105z"/>
<glyph glyph-name="two" unicode="2" horiz-adv-x="1200" d="M1157 0h-1046v106l592 579q103 99 166.5 198t63.5 175q0 80 -44 134t-122.5 81t-181.5 27q-223 0 -426 -171l-55 89q226 190 493 190q134 0 237.5 -39.5t162 -114.5t58.5 -183q0 -101 -75 -219.5t-195 -235.5l-528 -511h900v-105z"/>
<glyph glyph-name="three" unicode="3" horiz-adv-x="1200" d="M575 -7q-136 0 -258 38t-211 95l55 97q181 -124 409 -124q136 0 230 41.5t143 114t49 164.5q0 101 -54 165.5t-150.5 96t-222.5 31.5h-176v81l491 494h-708l-1 112h867v-82l-508 -516q88 -3 131 -7q165 -14 282 -80q166 -95 166 -287q0 -197 -145.5 -315.5t-388.5 -118.5 z"/>
<glyph glyph-name="four" unicode="4" horiz-adv-x="1200" d="M874 0h-113v385h-712v104l539 910h121l-531 -902h583v400h113v-400h229v-112h-229v-385z"/>
<glyph glyph-name="five" unicode="5" horiz-adv-x="1200" d="M581 -7q-126 0 -253.5 40t-233.5 107l51 97q107 -68 216 -101t210 -33q177 0 285 92t108 250q0 89 -46 156.5t-135 106t-217 38.5q-61 0 -167.5 -12.5t-203.5 -36.5v702h839v-112h-726v-460q144 30 282 30q152 0 264.5 -51.5t174.5 -142.5t62 -210q0 -210 -139.5 -335 t-370.5 -125z"/>
<glyph glyph-name="six" unicode="6" horiz-adv-x="1200" d="M632 -7q-124 0 -224.5 43t-172 127.5t-110 211t-38.5 292.5v12q0 161 39 293q40 136 114.5 232.5t180.5 149t236 52.5q189 0 393 -96l-49 -95q-162 86 -334 86q-222 0 -343 -164q-119 -160 -119 -442q0 -34 4 -107q42 139 155 221q116 81 289 81q98 0 181 -28t143 -83 t93.5 -137.5t33.5 -190.5q0 -111 -35 -196t-97.5 -143.5t-149 -88.5t-190.5 -30zM621 101q80 0 148 23.5t117 69t77 111t28 149.5q0 151 -91 241q-97 94 -264 94h-9q-89 0 -158 -29q-73 -31 -122.5 -80t-75.5 -111.5t-26 -125.5q0 -54 20.5 -114t65.5 -111t116.5 -84 t173.5 -33z"/>
<glyph glyph-name="seven" unicode="7" horiz-adv-x="1200" d="M483 0h-128l642 1287h-776l-2 -212h-109v324h1018v-103z"/>
<glyph glyph-name="eight" unicode="8" horiz-adv-x="1200" d="M600 -7q-142 0 -257 42.5t-182.5 130.5t-67.5 223q0 95 38.5 166.5t108 120t162.5 75.5q-112 38 -177.5 115.5t-65.5 196.5q0 111 55.5 187.5t154.5 116t230 39.5q121 0 221 -36t159.5 -112.5t59.5 -196.5q0 -119 -64.5 -195.5t-173.5 -114.5q90 -26 158.5 -73.5 t108 -118.5t39.5 -168q0 -133 -66 -221.5t-180.5 -132.5t-260.5 -44zM600 791q158 0 246 69t88 193q0 121 -89 189.5t-245 68.5q-151 0 -243.5 -65.5t-92.5 -192.5q0 -124 90 -193t246 -69zM600 93q104 0 193.5 30.5t144 98t54.5 178.5q0 133 -103.5 213t-290.5 80 q-117 0 -205 -33.5t-137.5 -98.5t-49.5 -159q0 -149 107 -229t287 -80z"/>
<glyph glyph-name="nine" unicode="9" horiz-adv-x="1200" d="M527 -7q-186 0 -387 96l49 95q78 -42 163.5 -63.5t166.5 -21.5q113 0 198 44t143 123.5t87.5 193t29.5 252.5q0 33 -4 101q-42 -142 -154.5 -222.5t-285.5 -80.5q-97 0 -180 28t-142 83t-92 137t-33 191q0 111 35 196t97 143t148 88t188 30q249 0 392 -169 q149 -177 149 -503v-12q0 -162 -39 -294q-41 -136 -115 -233.5t-179.5 -149.5t-234.5 -52zM558 611q87 0 157.5 29t120.5 78t75.5 112t25.5 127q0 56 -21.5 116t-66.5 110t-115.5 82.5t-168.5 32.5q-79 0 -146 -23.5t-116 -68t-76.5 -110t-27.5 -149.5q0 -76 24 -138.5 t69.5 -106.5t110.5 -67.5t147 -23.5h8z"/>
<glyph glyph-name="colon" unicode=":" horiz-adv-x="379" d="M190 -15q-35 0 -59 24.5t-24 60.5q0 35 23 60t60 25q29 0 55 -22t26 -63q0 -34 -21 -59.5t-60 -25.5zM190 579q-35 0 -59 24.5t-24 60.5q0 39 24.5 62t58.5 23q29 0 55 -22t26 -63q0 -34 -21 -59.5t-60 -25.5z"/>
<glyph glyph-name="semicolon" unicode=";" horiz-adv-x="377" d="M153 -231h-72l77 226q-47 24 -47 74q0 43 25.5 63.5t54.5 20.5q30 0 56 -22t26 -62q0 -37 -18 -65zM190 579q-35 0 -59 24.5t-24 60.5q0 39 24.5 62t58.5 23q29 0 55 -22t26 -63q0 -34 -21 -59.5t-60 -25.5z"/>
<glyph glyph-name="less" unicode="<" horiz-adv-x="975" d="M899 225l-823 372v114l823 372v-100l-738 -330l738 -328v-100z"/>
<glyph glyph-name="equal" unicode="=" horiz-adv-x="975" d="M899 395h-823v89h823v-89zM899 803h-823v89h823v-89z"/>
<glyph glyph-name="greater" unicode=">" horiz-adv-x="975" d="M76 229v100l738 330l-738 328v100l823 -372v-114z"/>
<glyph glyph-name="question" unicode="?" horiz-adv-x="829" d="M432 429h-95q0 74 24 130t70 108.5t112 111.5q135 113 135 264q0 116 -71.5 169.5t-193.5 53.5q-108 0 -180.5 -54t-88.5 -176l-97 3q20 169 121 250.5t255 81.5q169 0 268 -81t99 -243q0 -141 -113 -255q-49 -49 -102 -89q-66 -50 -104.5 -116t-38.5 -158zM381 -15 q-36 0 -59 24.5t-23 60.5t23 60.5t59 24.5q27 0 54.5 -22t27.5 -63q0 -34 -21 -59.5t-61 -25.5z"/>
<glyph glyph-name="at" unicode="@" horiz-adv-x="1985" d="M976 -335q-402 0 -643 248q-121 122 -183.5 275.5t-62.5 347.5q0 384 263 636.5t642 252.5h20q387 0 637 -252t250 -633q0 -143 -33 -245.5t-91.5 -163.5t-134.5 -78q-46 -45 -106 -45q-67 0 -124 59q-43 47 -50 132l-1 90q-59 -117 -162.5 -184.5t-254.5 -67.5 q-140 0 -250.5 65t-174.5 177.5t-64 255.5t61 256.5t169 179.5t250 66q106 0 188 -34t136.5 -88t79.5 -117v228h112v-787q0 -79 37 -115.5t89 -36.5q72 0 123.5 57.5t79 157.5t27.5 229q0 356 -226 578q-116 115 -261 169.5t-323 54.5q-357 0 -585 -233q-229 -228 -229 -572 q0 -331 227.5 -549.5t567.5 -218.5q188 0 370 101l43 -84q-202 -112 -413 -112zM951 145q98 0 169 33.5t118.5 89t70.5 126t23 145.5t-24 145t-71.5 124t-119 86.5t-167.5 32.5h-8q-86 0 -153 -31q-71 -32 -119 -85.5t-72.5 -124t-24.5 -147.5q0 -73 23 -143.5t69 -126 t117.5 -90t168.5 -34.5z"/>
<glyph glyph-name="A" unicode="A" horiz-adv-x="1415" d="M1403 0h-132l-170 381h-791l-169 -381h-129l632 1399h125zM1051 493l-348 775l-343 -775h691z"/>
<glyph glyph-name="B" unicode="B" horiz-adv-x="1442" d="M813 0h-586v1399h580q123 0 224 -34t161 -110.5t60 -203.5q0 -120 -64.5 -204t-200.5 -115q166 -31 248 -125t82 -229q0 -128 -65 -212t-178.5 -125t-260.5 -41zM802 112q171 0 273 59q121 69 121 221q0 135 -104.5 204.5t-289.5 69.5h-455v-554h455zM802 777 q166 0 245 69t82 189q0 86 -39.5 140.5t-113 82t-174.5 29.5h-455v-510h455z"/>
<glyph glyph-name="C" unicode="C" horiz-adv-x="1403" d="M809 -10q-158 0 -284 52.5t-229 155.5q-209 210 -209 503q0 202 107 377.5t322 272.5q136 59 297 59q285 0 501 -198l-73 -86q-186 174 -427 174q-254 0 -430 -174q-177 -171 -177 -427q0 -114 43 -221t122.5 -191.5t191.5 -134t250 -49.5q242 0 427 170l75 -79 q-221 -204 -507 -204z"/>
<glyph glyph-name="D" unicode="D" horiz-adv-x="1593" d="M786 0h-559v1399h468q122 0 225.5 -14t196 -58t182.5 -131q103 -100 155 -223t52 -276q0 -294 -208 -496q-210 -201 -512 -201zM789 112q247 0 421.5 166.5t174.5 419.5q0 259 -177.5 424t-422.5 165h-438v-1175h442z"/>
<glyph glyph-name="E" unicode="E" horiz-adv-x="1297" d="M1178 0h-951v1399h924v-112h-804v-519h718v-111h-718v-545h831v-112z"/>
<glyph glyph-name="F" unicode="F" horiz-adv-x="1114" d="M347 0h-120v1399h864v-112h-744v-558h663v-111h-663v-618z"/>
<glyph glyph-name="G" unicode="G" horiz-adv-x="1511" d="M813 -4q-312 0 -519 208.5t-207 483.5q0 54 5 99q14 134 85 257q93 165 251 257q176 101 390 101q287 0 504 -188l-70 -86q-191 164 -434 164q-253 0 -432 -173.5t-179 -418.5q0 -244 179 -421q181 -173 433 -173q210 0 393 132l-1 406h-399v112h508v-578 q-220 -182 -507 -182z"/>
<glyph glyph-name="H" unicode="H" horiz-adv-x="1591" d="M1365 0h-120v642h-898v-642h-120v1399h120v-646h898v646h120v-1399z"/>
<glyph glyph-name="I" unicode="I" horiz-adv-x="573" d="M347 0h-120v1399h120v-1399z"/>
<glyph glyph-name="J" unicode="J" horiz-adv-x="950" d="M377 -4q-226 0 -375 197l63 92q140 -170 310 -170q252 0 262 298v874h-508v112h629v-989q0 -208 -102.5 -311t-278.5 -103z"/>
<glyph glyph-name="K" unicode="K" horiz-adv-x="1379" d="M1329 0h-147l-544 691l-291 -318v-373h-120v1399h120v-867l796 867h146l-566 -616z"/>
<glyph glyph-name="L" unicode="L" horiz-adv-x="1017" d="M965 0h-738v1399h120v-1287h618v-112z"/>
<glyph glyph-name="M" unicode="M" horiz-adv-x="1873" d="M1647 0h-114l-2 1231l-563 -1081h-63l-566 1081v-1231h-112v1399h152l560 -1066l554 1066h154v-1399z"/>
<glyph glyph-name="N" unicode="N" horiz-adv-x="1593" d="M1365 0h-130l-888 1213v-1213h-120v1399h130l889 -1212v1212h119v-1399z"/>
<glyph glyph-name="O" unicode="O" horiz-adv-x="1629" d="M823 -10h-10q-314 0 -520 211t-206 498q0 307 212 506q214 205 519 205q309 0 516 -208q106 -104 157.5 -227t51.5 -278q0 -299 -213.5 -503t-506.5 -204zM815 101q249 0 427 175.5t178 425.5q0 245 -177.5 420.5t-427.5 175.5t-428.5 -174t-178.5 -422q0 -251 180 -426 q183 -175 427 -175z"/>
<glyph glyph-name="P" unicode="P" horiz-adv-x="1333" d="M347 0h-120v1399h508q242 0 387 -111q155 -120 155 -353q0 -210 -119 -335q-136 -144 -423 -144h-388v-456zM731 568q203 0 313 89q117 95 117 275v9q0 174 -118 263q-115 83 -312 83h-384v-719h384z"/>
<glyph glyph-name="Q" unicode="Q" horiz-adv-x="1657" d="M1279 -273q-227 0 -434 264q-346 0 -549 206q-209 205 -209 505q0 306 212 503q214 205 522 205q147 0 273.5 -49.5t239.5 -158.5q209 -208 209 -500q0 -180 -77 -323t-205.5 -238t-285.5 -133q163 -174 316 -174q129 0 277 131l56 -85q-168 -153 -345 -153zM815 101 q249 0 427 175.5t178 425.5q0 245 -177.5 420.5t-427.5 175.5t-428.5 -174t-178.5 -422q0 -251 180 -426q183 -175 427 -175z"/>
<glyph glyph-name="R" unicode="R" horiz-adv-x="1445" d="M1295 0h-138l-315 461q-42 -3 -93 -5h-402v-456h-120v1399h512q257 0 401.5 -118t144.5 -346q0 -351 -331 -451zM739 568q130 0 226.5 39t150 119.5t53.5 205.5q0 180 -113 267.5t-317 87.5h-392v-719h392z"/>
<glyph glyph-name="S" unicode="S" horiz-adv-x="1210" d="M587 -10q-304 0 -517 210l57 101q208 -194 461 -194q77 0 143 15.5t115 47t77 78t28 109.5q-1 140 -111 206q-116 64 -257 103q-120 36 -195 68q-144 61 -185 134q-54 87 -54 198q0 90 38.5 155.5t103.5 107.5t150.5 62t178.5 20q227 0 420 -120l-52 -106 q-90 54 -182 81.5t-193 27.5q-129 0 -220 -46q-95 -51 -110 -144l-3 -42l1 -14q5 -77 55.5 -130.5t154.5 -94.5q57 -23 115 -41t115.5 -37.5t113.5 -43t108 -56.5q130 -81 139 -283q0 -85 -34 -154t-98.5 -117.5t-156.5 -74.5t-206 -26z"/>
<glyph glyph-name="T" unicode="T" horiz-adv-x="1095" d="M607 0h-120v1287h-464v112h1050v-112h-466v-1287z"/>
<glyph glyph-name="U" unicode="U" horiz-adv-x="1536" d="M769 -10q-177 0 -306 66.5t-199.5 195t-70.5 315.5v832h120v-832q0 -125 36.5 -213.5t99.5 -144.5t145.5 -82t174.5 -26q193 0 314 102q140 119 140 364v832h118v-832q0 -282 -152 -429.5t-420 -147.5z"/>
<glyph glyph-name="V" unicode="V" horiz-adv-x="1304" d="M713 0h-125l-573 1399h130l508 -1264l508 1264h128z"/>
<glyph glyph-name="W" unicode="W" horiz-adv-x="2035" d="M1548 0h-125l-403 1243l-409 -1243h-124l-472 1399h130l407 -1268l407 1268h122l408 -1269l406 1269h127z"/>
<glyph glyph-name="X" unicode="X" horiz-adv-x="1302" d="M1235 0h-144l-451 624l-447 -624h-142l517 721l-480 678h141l411 -577l414 577h141l-479 -672z"/>
<glyph glyph-name="Y" unicode="Y" horiz-adv-x="1237" d="M682 0h-119v501l-551 898h127l483 -762l477 762h125l-542 -896v-503z"/>
<glyph glyph-name="Z" unicode="Z" horiz-adv-x="1313" d="M1220 0h-1128v99l967 1188h-940v112h1094v-99l-968 -1188h976z"/>
<glyph glyph-name="bracketleft" unicode="[" horiz-adv-x="605" d="M557 -248h-362v1732h362v-100h-254v-1532h254v-100z"/>
<glyph glyph-name="backslash" unicode="\" horiz-adv-x="619" d="M631 -249h-105l-621 1893h106z"/>
<glyph glyph-name="bracketright" unicode="]" horiz-adv-x="605" d="M411 -248h-362v100h254v1532h-254v100h362v-1732z"/>
<glyph glyph-name="asciicircum" unicode="^" horiz-adv-x="1004" d="M932 259h-100l-330 714l-329 -714h-100l372 796h115z"/>
<glyph glyph-name="underscore" unicode="_" horiz-adv-x="1098" d="M1097 -408h-1097v81h1097v-81z"/>
<glyph glyph-name="grave" unicode="`" horiz-adv-x="679" d="M411 1236l-253 202l119 55l242 -243z"/>
<glyph glyph-name="a" unicode="a" horiz-adv-x="1144" d="M459 -4h-9q-83 0 -147 25.5t-107.5 68.5t-65 99.5t-21.5 117.5q0 132 100.5 209t289.5 81h359v86q0 59 -17 108t-53.5 84.5t-92.5 55t-134 19.5q-181 0 -344 -129l-52 84q199 145 416 145q102 0 176 -25q217 -77 217 -331l3 -694h-115l-1 187q-133 -191 -402 -191z M480 96q131 0 232.5 61t147.5 192l-1 152h-315q-96 0 -169.5 -16.5t-114.5 -58t-41 -115.5q0 -57 28 -106t86 -79t147 -30z"/>
<glyph glyph-name="b" unicode="b" horiz-adv-x="1347" d="M755 -4q-305 0 -428 256v-252h-117v1484h117v-690q124 256 425 256q145 0 270 -72t193 -227q42 -99 42 -230q0 -154 -68.5 -282.5t-213.5 -198.5q-94 -44 -220 -44zM733 101q131 0 221.5 59t137 155.5t46.5 208.5q0 81 -24.5 156.5t-74.5 135.5t-126 95.5t-180 35.5 q-119 0 -219 -57.5t-153 -179.5q-34 -80 -34 -186q0 -117 53 -222t173 -165q76 -36 180 -36z"/>
<glyph glyph-name="c" unicode="c" horiz-adv-x="1119" d="M606 -4q-94 0 -187 30t-169 97q-159 141 -159 400q0 167 69.5 285t186.5 180t259 62q239 0 388 -150l-66 -81q-129 124 -318 124q-121 0 -220 -58.5t-151 -180.5q-33 -79 -33 -181q0 -137 57 -231t149 -142.5t198 -48.5q210 0 333 141l69 -71q-147 -175 -406 -175z"/>
<glyph glyph-name="d" unicode="d" horiz-adv-x="1354" d="M598 -7q-145 0 -260 64.5t-181 184t-66 282.5q0 152 62 271.5t175.5 188.5t268.5 69q160 0 266.5 -69.5t163.5 -190.5v691h117v-1484h-117v252q-59 -122 -165 -190.5t-264 -68.5zM618 96q112 0 205 50.5t148.5 146t55.5 228.5q0 116 -50 213.5t-142 156t-217 58.5 q-119 0 -211.5 -54t-145.5 -150t-53 -224q0 -79 23.5 -154t74.5 -136t132 -99q77 -36 180 -36z"/>
<glyph glyph-name="e" unicode="e" horiz-adv-x="1177" d="M606 -4q-100 0 -193.5 33t-165.5 99t-114 163.5t-42 222.5v9q0 227 121 358q141 161 393 169q228 0 355 -141q116 -130 129 -348q4 -38 4 -76h-886q7 -94 40.5 -167.5t87.5 -122.5t125.5 -74t153.5 -25q206 0 339 139l67 -69q-159 -170 -414 -170zM986 581 q-17 252 -215 340q-70 29 -166 29q-123 0 -206.5 -47.5t-131 -130.5t-60.5 -191h779z"/>
<glyph glyph-name="f" unicode="f" horiz-adv-x="639" d="M342 0h-116v923h-134v95h134v139q0 105 42.5 182t115.5 119t165 42q91 -5 174 -48l-33 -98q-65 39 -140 39q-55 0 -102 -24.5t-76.5 -74t-29.5 -125.5v-151h313v-95h-313v-923z"/>
<glyph glyph-name="g" unicode="g" horiz-adv-x="1268" d="M579 -391q-236 0 -427 163l57 85q160 -145 366 -145q114 0 205.5 44.5t145 133t53.5 219.5v179q-117 -245 -408 -245q-133 0 -242 59t-173.5 171.5t-64.5 273.5q0 160 63.5 270.5t171 169t243.5 63.5q297 -7 410 -245v241h117v-886q0 -248 -113 -390q-129 -161 -404 -161 zM590 141q111 0 199 48.5t139 139t51 216.5q0 116 -49 208t-136.5 145t-203.5 53q-170 0 -276 -106t-113 -300q3 -163 90 -275q101 -129 299 -129z"/>
<glyph glyph-name="h" unicode="h" horiz-adv-x="1316" d="M1149 0h-118v614q0 160 -88 241.5t-232 81.5q-183 -13 -283.5 -121t-100.5 -303v-513h-117v1484h117v-695q112 258 420 261q142 0 230.5 -53.5t130 -146t41.5 -209.5v-641z"/>
<glyph glyph-name="i" unicode="i" horiz-adv-x="516" d="M257 1259q-43 0 -64 27.5t-21 60.5q0 36 22 62.5t63 26.5q34 0 60 -24t26 -65q0 -33 -21.5 -60.5t-64.5 -27.5zM316 0h-116v1046h116v-1046z"/>
<glyph glyph-name="j" unicode="j" horiz-adv-x="483" d="M41 -390q-85 4 -154 32l30 93q46 -18 104 -22q172 2 172 245v1088h117v-1103q0 -327 -269 -333zM251 1259q-43 0 -64 27.5t-21 60.5q0 36 22 62.5t63 26.5q34 0 60 -24t26 -65q0 -33 -21.5 -60.5t-64.5 -27.5z"/>
<glyph glyph-name="k" unicode="k" horiz-adv-x="1123" d="M1097 0h-140l-384 557l-246 -252v-305h-117v1484h117v-1023l581 585h141l-394 -404z"/>
<glyph glyph-name="l" unicode="l" horiz-adv-x="559" d="M377 -4q-17 0 -44 9t-57 30q-91 40 -93 193v1256h115v-1244q0 -135 103 -135q56 0 114 50l28 -93q-84 -66 -166 -66z"/>
<glyph glyph-name="m" unicode="m" horiz-adv-x="2089" d="M1923 0h-117v614q0 111 -41 182.5t-112 106.5t-160 35q-190 -20 -281 -134.5t-91 -289.5v-514h-118v614q0 150 -81 237t-233 87q-178 -15 -275.5 -122t-97.5 -302v-514h-116v1046h116v-257q110 257 411 261q305 0 382 -288q102 284 421 288q137 0 224 -55t128 -147.5 t41 -206.5v-641z"/>
<glyph glyph-name="n" unicode="n" horiz-adv-x="1304" d="M1137 0h-118v614q0 160 -88 241.5t-232 81.5q-355 -25 -382 -374v-563h-117v1046h117v-252q113 251 418 256q142 0 230.5 -53.5t130 -146t41.5 -209.5v-641z"/>
<glyph glyph-name="o" unicode="o" horiz-adv-x="1228" d="M614 -4q-102 0 -195 31.5t-167 97.5t-119 171q-42 99 -42 229q0 163 70.5 280.5t189 181t263.5 63.5q98 0 191.5 -31.5t168 -96t119 -163.5t44.5 -234q0 -155 -66 -274.5t-183.5 -187t-273.5 -67.5zM614 100q75 0 148 24t130.5 75t92.5 131.5t35 192.5q0 179 -104 297 q-112 125 -302 125q-82 0 -155.5 -26.5t-129.5 -79t-88.5 -132t-32.5 -184.5v-8q0 -105 34 -182.5t91 -130t130 -77.5t151 -25z"/>
<glyph glyph-name="p" unicode="p" horiz-adv-x="1347" d="M327 -388h-117v1434h117v-252q125 256 425 256q145 0 270 -72t193 -227q42 -99 42 -230q0 -154 -68.5 -282.5t-213.5 -198.5q-94 -44 -220 -44q-305 0 -428 256v-640zM733 101q131 0 221.5 59t137 155.5t46.5 208.5q0 81 -24.5 156.5t-74.5 135.5t-126 95.5t-180 35.5 q-119 0 -219 -57.5t-153 -179.5q-34 -80 -34 -186q0 -117 53 -222t173 -165q76 -36 180 -36z"/>
<glyph glyph-name="q" unicode="q" horiz-adv-x="1354" d="M1144 -388h-117v640q-128 -259 -429 -259q-137 0 -252.5 61.5t-185 180t-69.5 289.5q0 151 61 271t174.5 189t270.5 69q307 0 430 -260v253h117v-1434zM618 96q112 0 205 50.5t148.5 146t55.5 228.5q0 116 -50 213.5t-142 156t-217 58.5q-119 0 -211.5 -54t-145.5 -150 t-53 -224q0 -79 23.5 -154t74.5 -136t132 -99q77 -36 180 -36z"/>
<glyph glyph-name="r" unicode="r" horiz-adv-x="721" d="M317 0h-117v1046h117v-250q105 247 384 254v-115q-184 -6 -277.5 -104t-106.5 -269v-562z"/>
<glyph glyph-name="s" unicode="s" horiz-adv-x="889" d="M446 -4q-230 0 -393 147l49 86q151 -134 348 -134q97 0 168 40t85 135q0 59 -40 96q-60 75 -226 117q-139 34 -243 108q-81 58 -86 187q0 98 50.5 158t131.5 87.5t171 27.5q179 0 316 -88l-46 -92q-125 79 -276 79q-69 0 -122 -16t-83 -52t-30 -95q0 -56 34 -92t93 -60.5 t136 -45.5q76 -21 155.5 -56.5t130.5 -89.5q50 -62 50 -159q0 -148 -116 -223q-102 -65 -257 -65z"/>
<glyph glyph-name="t" unicode="t" horiz-adv-x="761" d="M488 -4q-73 0 -130 30t-89.5 95t-32.5 168v634h-152v95h152v266h116v-266h344v-95h-344v-616q0 -200 149 -202q87 1 176 58l38 -90q-105 -75 -227 -77z"/>
<glyph glyph-name="u" unicode="u" horiz-adv-x="1287" d="M560 -4q-138 0 -225.5 55t-129 148t-41.5 206v641h117v-614q0 -107 40 -178.5t111 -108t164 -36.5q131 13 213.5 69.5t121.5 148t39 206.5v513h117v-1046h-117v259q-108 -259 -410 -263z"/>
<glyph glyph-name="v" unicode="v" horiz-adv-x="968" d="M555 0h-123l-420 1046h126l357 -925l356 925h121z"/>
<glyph glyph-name="w" unicode="w" horiz-adv-x="1697" d="M1310 0h-123l-329 901l-329 -901h-123l-394 1046h125l332 -925l326 925h125l330 -925l328 925h123z"/>
<glyph glyph-name="x" unicode="x" horiz-adv-x="1031" d="M976 0h-138l-325 455l-330 -455h-134l388 540l-361 506h136l302 -423l305 423h130l-358 -506z"/>
<glyph glyph-name="y" unicode="y" horiz-adv-x="973" d="M193 -392q-122 0 -210 68l50 94q72 -49 153 -49q134 0 209 172l46 111l-433 1042h125l367 -913l355 913h122l-484 -1196q-107 -242 -300 -242z"/>
<glyph glyph-name="z" unicode="z" horiz-adv-x="1043" d="M951 -2l-840 2v94l686 850l-668 2v100l807 -1v-94l-687 -850l702 -2v-101z"/>
<glyph glyph-name="braceleft" unicode="{" horiz-adv-x="657" d="M587 -252q-103 0 -173 17.5t-106 65t-36 139.5v467q0 128 -92 128h-56v102h49q99 0 99 124v469q0 114 63.5 169.5t204.5 55.5h47v-100q-206 0 -206 -145v-439q0 -72 -28.5 -115t-92.5 -69q64 -32 92.5 -67t28.5 -119v-430q0 -76 49.5 -114.5t156.5 -38.5v-100z"/>
<glyph glyph-name="bar" unicode="|" horiz-adv-x="480" d="M288 -247h-96v1883h96v-1883z"/>
<glyph glyph-name="braceright" unicode="}" horiz-adv-x="657" d="M117 -252h-47v100q205 0 205 144v439q0 84 29 121.5t93 64.5q-62 24 -92 66.5t-30 117.5v430q0 79 -48 116.5t-157 37.5v100q126 0 194.5 -23.5t94.5 -72.5t26 -126v-467q0 -129 94 -129h54v-102h-49q-99 0 -99 -125v-467q0 -114 -64 -169.5t-204 -55.5z"/>
<glyph glyph-name="asciitilde" unicode="~" horiz-adv-x="975" d="M663 521q-44 3 -142 49l-76 35q-83 36 -124 36q-19 0 -32 -8q-48 -18 -48 -94h-88q0 101 39 154t122 56q23 0 59 -14.5t114 -49.5q77 -36 101 -42q39 -13 65 -13q79 0 83 102h88q0 -203 -161 -211z"/>
<glyph glyph-name="uni00A0" unicode=" " horiz-adv-x="600" d="M0 0z"/>
<glyph glyph-name="exclamdown" unicode="¡" horiz-adv-x="399" d="M211 889q-18 0 -37 8.5t-32 27t-13 49.5q0 44 26 64.5t56 20.5q33 0 57.5 -22.5t24.5 -62.5q0 -34 -21.5 -59.5t-60.5 -25.5zM268 -328h-113v357l14 611h83l16 -611v-357z"/>
<glyph glyph-name="cent" unicode="¢" horiz-adv-x="1200" d="M656 -279h-95v276q-201 18 -328 141q-142 138 -142 385q0 163 62 275t167.5 175t240.5 76v284h95v-284q207 -18 338 -149l-66 -81q-129 124 -318 124q-111 0 -202.5 -49t-146.5 -142.5t-55 -228.5q0 -137 57 -231t149 -142.5t198 -48.5q210 0 333 141l69 -71 q-129 -150 -356 -174v-276z"/>
<glyph glyph-name="sterling" unicode="£" horiz-adv-x="1076" d="M993 0h-901v103h179v550h-179v75h179v260q0 401 377 415q213 0 368 -189l-55 -92q-132 171 -302 171q-261 0 -268 -306v-259h370v-75h-370v-550h602v-103z"/>
<glyph glyph-name="currency" unicode="¤" horiz-adv-x="1440" d="M1280 4l-215 215q-151 -118 -346 -118q-197 0 -343 119l-216 -216l-69 73l211 214q-132 147 -132 344t131 346l-210 212l69 73l213 -213q152 120 346 120q201 0 348 -120l213 213l69 -73l-208 -210q134 -147 134 -348q0 -197 -135 -346l209 -212zM719 205q199 0 328 126 q130 120 130 304q0 78 -29 155t-87 140t-143.5 101.5t-198.5 38.5q-187 0 -317 -123q-135 -125 -135 -312q0 -118 56.5 -215.5t158.5 -156t237 -58.5z"/>
<glyph glyph-name="yen" unicode="¥" horiz-adv-x="1236" d="M682 0h-120v268h-424v76h424v152l-1 1h-423v76h381l-507 826h125l485 -764l475 764h127l-501 -826h383v-76h-424v-153h424v-76h-424v-268z"/>
<glyph glyph-name="brokenbar" unicode="¦" horiz-adv-x="480" d="M288 -247h-96v700h96v-700zM288 937h-96v699h96v-699z"/>
<glyph glyph-name="section" unicode="§" horiz-adv-x="918" d="M453 -164q-237 0 -400 149l44 76q160 -134 351 -134q63 0 126 19t105 59.5t42 106.5q0 82 -69.5 127.5t-208.5 85.5q-138 45 -211.5 88t-100 92.5t-26.5 117.5q0 206 272 248q-254 77 -254 254q0 93 49.5 151t131 85t175.5 27q170 0 319 -90l-44 -78q-128 79 -274 79 q-87 0 -155 -30t-86 -94q-3 -16 -3 -30q0 -37 22 -67q10 -53 67 -90t177 -70q97 -24 174.5 -60t124 -92.5t46.5 -144.5q0 -76 -33.5 -130.5t-86.5 -87.5t-113 -43q213 -71 213 -246q0 -87 -48.5 -149t-133 -95.5t-192.5 -33.5zM504 425q60 0 114 19.5t88.5 60.5t34.5 106 q0 83 -73 136.5t-205 53.5q-129 0 -192 -46.5t-63 -117.5q0 -62 40 -110t107.5 -75t148.5 -27z"/>
<glyph glyph-name="dieresis" unicode="¨" horiz-adv-x="643" d="M181 1264q-32 0 -55.5 24t-23.5 57q0 44 25 63.5t54 19.5t54.5 -19.5t25.5 -63.5q0 -30 -19.5 -55.5t-60.5 -25.5zM505 1264q-40 0 -60 25t-20 56q0 43 24 63t56 20q29 0 54.5 -19.5t25.5 -63.5q0 -31 -19.5 -56t-60.5 -25z"/>
<glyph glyph-name="copyright" unicode="©" horiz-adv-x="1527" d="M769 18h-11q-292 0 -480 199q-101 104 -146 222.5t-45 261.5q0 193 101 361t300 260q126 56 282 56q134 0 255.5 -49.5t214.5 -140t147 -217t54 -279.5q0 -286 -199.5 -480t-472.5 -194zM765 91q134 0 245.5 50.5t192 136.5t124.5 195t44 227q0 254 -177 429.5 t-432 175.5q-254 0 -431 -179q-174 -179 -174 -430q0 -169 87.5 -320t265.5 -234q113 -51 255 -51zM771 340q-101 0 -184 47t-132.5 128t-49.5 183q0 115 55 194t140 120t174 41q144 0 259 -101l-45 -52q-90 86 -214 86q-126 0 -211.5 -81.5t-85.5 -205.5q0 -80 37.5 -145.5 t104.5 -105t155 -39.5q118 0 214 84l45 -48q-117 -105 -262 -105z"/>
<glyph glyph-name="ordfeminine" unicode="ª" horiz-adv-x="755" d="M297 913q-69 0 -116 24.5t-70.5 66t-23.5 90.5q0 79 58 120.5t183 46.5h215v52q-5 146 -177 146q-108 0 -217 -70l-27 64q127 80 262 80q237 0 247 -212l2 -405h-90v119q-80 -122 -246 -122zM323 978q160 0 220 133v98h-178q-96 0 -142 -25.5t-50 -82.5q0 -49 36 -86 t114 -37z"/>
<glyph glyph-name="guillemotleft" unicode="«" horiz-adv-x="823" d="M418 181h-107l-223 324l223 326h107l-215 -326zM699 181h-107l-223 324l223 326h107l-215 -326z"/>
<glyph glyph-name="logicalnot" unicode="¬" horiz-adv-x="1091" d="M917 307h-92v360h-749v89h841v-449z"/>
<glyph glyph-name="uni00AD" unicode="­" horiz-adv-x="723" d="M590 559h-458v89h458v-89z"/>
<glyph glyph-name="registered" unicode="®" horiz-adv-x="1527" d="M769 18h-11q-292 0 -480 199q-101 104 -146 222.5t-45 261.5q0 193 101 361t300 260q126 56 282 56q134 0 255.5 -49.5t214.5 -140t147 -217t54 -279.5q0 -286 -199.5 -480t-472.5 -194zM765 91q134 0 245.5 50.5t192 136.5t124.5 195t44 227q0 254 -177 429.5 t-432 175.5q-254 0 -431 -179q-174 -179 -174 -430q0 -169 87.5 -320t265.5 -234q113 -51 255 -51zM1066 353h-83l-160 236q-12 -2 -41 -2h-204v-234h-69v721h266q274 0 283 -239q0 -179 -167 -232zM775 649q93 0 152 43.5t63 141.5q0 171 -215 176h-197v-361h197z"/>
<glyph glyph-name="macron" unicode="¯" horiz-adv-x="700" d="M623 1305h-545v84h545v-84z"/>
<glyph glyph-name="degree" unicode="°" horiz-adv-x="637" d="M383 1159q-97 0 -162 63.5t-65 158.5q0 68 33.5 118t86 77.5t107.5 27.5q68 0 120 -32.5t81 -83.5t29 -107q0 -89 -64.5 -155.5t-165.5 -66.5zM383 1225q42 0 80 19t62 54t24 83q0 61 -46 108.5t-120 47.5q-73 0 -118 -48.5t-45 -107.5q0 -69 48.5 -112.5t114.5 -43.5z "/>
<glyph glyph-name="plusminus" unicode="±" horiz-adv-x="975" d="M899 81h-823v89h823v-89zM531 347h-86v364h-369v88h369v366h86v-366h368v-88h-368v-364z"/>
<glyph glyph-name="uni00B2" unicode="²" horiz-adv-x="675" d="M624 720h-583v71l320 335q117 120 117 207q0 125 -168 134q-117 0 -236 -104l-41 68q133 115 288 115q72 0 129.5 -23t91 -68t33.5 -112q0 -119 -153 -266l-266 -280h468v-77z"/>
<glyph glyph-name="uni00B3" unicode="³" horiz-adv-x="674" d="M300 710q-146 0 -265 82l41 74q97 -81 220 -81q108 0 158 48.5t52 131.5q0 77 -50.5 117.5t-161.5 44.5h-105v55l260 281h-378v72h488v-57l-266 -288q142 0 224 -54t82 -171q0 -68 -31 -126t-97 -93.5t-171 -35.5z"/>
<glyph glyph-name="acute" unicode="´" horiz-adv-x="700" d="M285 1236l-108 14l241 243l119 -55z"/>
<glyph glyph-name="mu" unicode="µ" horiz-adv-x="1332" d="M328 -388h-117v743q-2 8 -2 691h119v-658q34 -279 313 -279q131 13 213.5 69.5t121.5 148t39 206.5v513h117v-1046h-117v259q-108 -258 -410 -263q-180 0 -277 109v-493z"/>
<glyph glyph-name="paragraph" unicode="¶" horiz-adv-x="1161" d="M934 -221h-95v1622h-322v-1622h-95v1007l-76 -3q-189 0 -273 127q-66 105 -66 217q0 94 41 175.5t132 131.5t243 50h511v-1705z"/>
<glyph glyph-name="periodcentered" unicode="·" horiz-adv-x="385" d="M193 461q-44 0 -65 27.5t-21 60.5q0 36 22.5 63t63.5 27q35 0 60 -25t25 -65q0 -31 -22 -59.5t-63 -28.5z"/>
<glyph glyph-name="cedilla" unicode="¸" horiz-adv-x="540" d="M288 -430q-87 0 -166 43l29 80q56 -34 125 -34q60 0 87.5 28t27.5 62q0 33 -27 58.5t-83 25.5h-60l54 180l85 -13l-35 -108q86 -15 124 -56t38 -96q0 -74 -53 -122t-146 -48z"/>
<glyph glyph-name="uni00B9" unicode="¹" horiz-adv-x="439" d="M283 720h-94v739h-173v80h267v-819z"/>
<glyph glyph-name="ordmasculine" unicode="º" horiz-adv-x="801" d="M400 913q-85 0 -158.5 34t-118.5 103t-45 173q0 79 34.5 150t106 115.5t181.5 44.5q83 0 156.5 -34.5t120 -103.5t46.5 -172q0 -99 -44.5 -168t-118 -105.5t-160.5 -36.5zM400 988q98 0 164.5 62t66.5 173q0 77 -31.5 129t-84.5 78.5t-115 26.5q-99 0 -166 -62.5 t-67 -171.5q0 -75 31.5 -127.5t84 -80t117.5 -27.5z"/>
<glyph glyph-name="guillemotright" unicode="»" horiz-adv-x="833" d="M231 183h-106l214 326l-214 324h106l224 -324zM512 183h-107l215 326l-215 324h107l223 -324z"/>
<glyph glyph-name="onequarter" unicode="¼" horiz-adv-x="1377" d="M119 0h-106l1058 1399h104zM283 581h-94v739h-173v79h267v-818zM1225 0h-89v218h-405v73l304 528h90l-302 -529h313v232h89v-232h128v-72h-128v-218z"/>
<glyph glyph-name="onehalf" unicode="½" horiz-adv-x="1415" d="M119 0h-106l1058 1399h104zM283 581h-94v739h-173v79h267v-818zM1364 0h-583v71l320 335q117 120 117 207q0 125 -168 134q-117 0 -236 -104l-41 68q133 115 288 115q66 0 124 -21t94 -65.5t36 -116.5q0 -118 -153 -266l-266 -280h468v-77z"/>
<glyph glyph-name="threequarters" unicode="¾" horiz-adv-x="1551" d="M300 572q-146 0 -265 82l41 74q97 -81 220 -81q108 0 158 48.5t52 131.5q0 157 -212 162h-105v55l260 281h-378v72h488v-57l-266 -288q142 0 224 -54t82 -171q0 -68 -31 -126t-97 -93.5t-171 -35.5zM293 0h-106l1058 1399h104zM1399 0h-89v218h-405v73l304 528h90 l-302 -529h313v232h89v-232h128v-72h-128v-218z"/>
<glyph glyph-name="questiondown" unicode="¿" horiz-adv-x="829" d="M406 -327q-104 0 -187 33t-131.5 104t-48.5 187q0 80 30.5 140.5t79 110t105.5 93.5q71 54 107 121t36 153h94q0 -70 -19.5 -118.5t-55 -91.5t-84.5 -91l-69 -72q-112 -104 -112 -241q0 -80 33.5 -129t93 -71.5t138.5 -22.5q245 0 269 230l97 -3q-15 -116 -65.5 -189.5 t-130 -108t-180.5 -34.5zM447 889q-28 0 -54.5 20.5t-26.5 64.5t26 64.5t55 20.5q33 0 58 -22.5t25 -62.5q0 -34 -22 -59.5t-61 -25.5z"/>
<glyph glyph-name="Agrave" unicode="À" horiz-adv-x="1415" d="M1403 0h-132l-170 381h-791l-169 -381h-129l632 1399h125zM1051 493l-348 775l-343 -775h691zM694 1537l-253 202l120 55l241 -243z"/>
<glyph glyph-name="Aacute" unicode="Á" horiz-adv-x="1415" d="M1403 0h-132l-170 381h-791l-169 -381h-129l632 1399h125zM1051 493l-348 775l-343 -775h691zM734 1537l-108 14l241 243l120 -55z"/>
<glyph glyph-name="Acircumflex" unicode="Â" horiz-adv-x="1415" d="M1403 0h-132l-170 381h-791l-169 -381h-129l632 1399h125zM1051 493l-348 775l-343 -775h691zM977 1541h-122l-148 159l-148 -159h-121l203 246h133z"/>
<glyph glyph-name="Atilde" unicode="Ã" horiz-adv-x="1415" d="M1403 0h-132l-170 381h-791l-169 -381h-129l632 1399h125zM1051 493l-348 775l-343 -775h691zM841 1538q-42 0 -114 42q-30 16 -56 32q-56 31 -89 31q-22 0 -36 -13q-41 -16 -41 -84h-86q0 98 36.5 152t115.5 54q26 0 55.5 -13t59 -29t56.5 -32t45 -21q25 -10 43 -10 q22 0 37 13q39 17 41 84h86q0 -206 -153 -206z"/>
<glyph glyph-name="Adieresis" unicode="Ä" horiz-adv-x="1415" d="M1403 0h-132l-170 381h-791l-169 -381h-129l632 1399h125zM1051 493l-348 775l-343 -775h691zM546 1537q-39 0 -59.5 26t-20.5 57q0 37 24 60t56 23t56 -22t24 -61q0 -29 -20 -56t-60 -27zM871 1537q-39 0 -59.5 26t-20.5 57q0 37 24 60t56 23t56 -22t24 -61 q0 -29 -20 -56t-60 -27z"/>
<glyph glyph-name="Aring" unicode="Å" horiz-adv-x="1415" d="M1403 0h-132l-170 381h-791l-169 -381h-129l632 1399h125zM1051 493l-348 775l-343 -775h691zM707 1514q-83 0 -139.5 55.5t-56.5 137.5q0 50 24.5 94t69 71.5t102.5 27.5q61 0 105.5 -29.5t68 -74t23.5 -89.5q0 -84 -58.5 -138.5t-138.5 -54.5zM707 1586q50 0 89 34 t39 87q0 55 -39 88t-89 33q-47 0 -87.5 -32.5t-40.5 -88.5q0 -51 36 -86t92 -35z"/>
<glyph glyph-name="AE" unicode="Æ" horiz-adv-x="2026" d="M1907 0h-952v405h-576l-238 -405h-129l831 1399h1037v-112h-805v-519h720v-111h-720v-545h832v-112zM955 505v790h-52l-466 -790h518z"/>
<glyph glyph-name="Ccedilla" unicode="Ç" horiz-adv-x="1403" d="M772 -430q-87 0 -166 43l29 80q56 -34 125 -34q61 0 88 27.5t27 62.5q0 34 -27.5 59t-82.5 25h-60l47 158q-199 21 -362 128t-250 304q-53 125 -53 281q0 180 88.5 342t250.5 261q170 103 387 103q285 0 501 -198l-73 -86q-185 174 -427 174q-255 0 -430 -174 q-177 -171 -177 -427q0 -114 42.5 -221t121.5 -191.5t191.5 -134t251.5 -49.5q242 0 427 170l75 -79q-200 -186 -475 -203l-32 -99q162 -28 162 -152q0 -77 -54 -123.5t-145 -46.5z"/>
<glyph glyph-name="Egrave" unicode="È" horiz-adv-x="1297" d="M1178 0h-951v1399h924v-112h-804v-519h718v-111h-718v-545h831v-112zM689 1537l-253 202l119 55l242 -243z"/>
<glyph glyph-name="Eacute" unicode="É" horiz-adv-x="1297" d="M1178 0h-951v1399h924v-112h-804v-519h718v-111h-718v-545h831v-112zM729 1537l-108 14l241 243l119 -55z"/>
<glyph glyph-name="Ecircumflex" unicode="Ê" horiz-adv-x="1297" d="M1178 0h-951v1399h924v-112h-804v-519h718v-111h-718v-545h831v-112zM971 1541h-121l-148 159l-148 -159h-121l202 246h134z"/>
<glyph glyph-name="Edieresis" unicode="Ë" horiz-adv-x="1297" d="M1178 0h-951v1399h924v-112h-804v-519h718v-111h-718v-545h831v-112zM541 1537q-39 0 -59.5 26t-20.5 57q0 37 24 60t56 23t56 -22t24 -61q0 -29 -20 -56t-60 -27zM866 1537q-39 0 -59.5 26t-20.5 57q0 37 24 60t56 23t56 -22t24 -61q0 -29 -20 -56t-60 -27z"/>
<glyph glyph-name="Igrave" unicode="Ì" horiz-adv-x="573" d="M273 1537l-252 202l119 55l241 -243zM347 0h-120v1399h120v-1399z"/>
<glyph glyph-name="Iacute" unicode="Í" horiz-adv-x="573" d="M313 1537l-108 14l242 243l119 -55zM347 0h-120v1399h120v-1399z"/>
<glyph glyph-name="Icircumflex" unicode="Î" horiz-adv-x="573" d="M556 1541h-121l-148 159l-148 -159h-122l203 246h133zM347 0h-120v1399h120v-1399z"/>
<glyph glyph-name="Idieresis" unicode="Ï" horiz-adv-x="573" d="M125 1537q-39 0 -59.5 26t-20.5 57q0 37 24 60t56 23t56 -22t24 -61q0 -29 -20 -56t-60 -27zM347 0h-120v1399h120v-1399zM451 1537q-39 0 -59.5 26t-20.5 57q0 37 24 60t56 23t56 -22t24 -61q0 -29 -20 -56t-60 -27z"/>
<glyph glyph-name="Eth" unicode="Ð" horiz-adv-x="1593" d="M787 0h-560v660h-144v80h144v659h562q303 0 510 -203q103 -100 155 -223t52 -276q0 -294 -208.5 -495.5t-510.5 -201.5zM789 112q247 0 421.5 166.5t174.5 419.5q0 258 -177 423.5t-423 165.5h-438v-547h497v-80h-497v-548h442z"/>
<glyph glyph-name="Ntilde" unicode="Ñ" horiz-adv-x="1593" d="M1365 0h-130l-888 1213v-1213h-120v1399h130l889 -1212v1212h119v-1399zM957 1538q-42 0 -114 42q-30 16 -56 32q-56 31 -89 31q-22 0 -36 -13q-41 -16 -41 -84h-86q0 98 36.5 152t115.5 54q26 0 55.5 -13t59 -29t56.5 -32t45 -21q25 -10 43 -10q22 0 37 13q39 17 41 84 h86q0 -206 -153 -206z"/>
<glyph glyph-name="Ograve" unicode="Ò" horiz-adv-x="1629" d="M823 -10h-10q-314 0 -520 211t-206 498q0 307 212 506q214 205 519 205q309 0 516 -208q106 -104 157.5 -227t51.5 -278q0 -299 -213.5 -503t-506.5 -204zM815 101q249 0 427 175.5t178 425.5q0 245 -177.5 420.5t-427.5 175.5t-428.5 -174t-178.5 -422q0 -251 180 -426 q183 -175 427 -175zM802 1537l-253 202l120 55l241 -243z"/>
<glyph glyph-name="Oacute" unicode="Ó" horiz-adv-x="1629" d="M823 -10h-10q-314 0 -520 211t-206 498q0 307 212 506q214 205 519 205q309 0 516 -208q106 -104 157.5 -227t51.5 -278q0 -299 -213.5 -503t-506.5 -204zM815 101q249 0 427 175.5t178 425.5q0 245 -177.5 420.5t-427.5 175.5t-428.5 -174t-178.5 -422q0 -251 180 -426 q183 -175 427 -175zM842 1537l-108 14l241 243l120 -55z"/>
<glyph glyph-name="Ocircumflex" unicode="Ô" horiz-adv-x="1629" d="M823 -10h-10q-314 0 -520 211t-206 498q0 307 212 506q214 205 519 205q309 0 516 -208q106 -104 157.5 -227t51.5 -278q0 -299 -213.5 -503t-506.5 -204zM815 101q249 0 427 175.5t178 425.5q0 245 -177.5 420.5t-427.5 175.5t-428.5 -174t-178.5 -422q0 -251 180 -426 q183 -175 427 -175zM1085 1541h-122l-148 159l-148 -159h-121l203 246h133z"/>
<glyph glyph-name="Otilde" unicode="Õ" horiz-adv-x="1629" d="M823 -10h-10q-314 0 -520 211t-206 498q0 307 212 506q214 205 519 205q309 0 516 -208q106 -104 157.5 -227t51.5 -278q0 -299 -213.5 -503t-506.5 -204zM815 101q249 0 427 175.5t178 425.5q0 245 -177.5 420.5t-427.5 175.5t-428.5 -174t-178.5 -422q0 -251 180 -426 q183 -175 427 -175zM949 1538q-42 0 -114 42q-30 16 -56 32q-56 31 -89 31q-22 0 -36 -13q-41 -16 -41 -84h-86q0 98 36.5 152t115.5 54q26 0 55.5 -13t59 -29t56.5 -32t45 -21q25 -10 43 -10q22 0 37 13q39 17 41 84h86q0 -206 -153 -206z"/>
<glyph glyph-name="Odieresis" unicode="Ö" horiz-adv-x="1629" d="M823 -10h-10q-314 0 -520 211t-206 498q0 307 212 506q214 205 519 205q309 0 516 -208q106 -104 157.5 -227t51.5 -278q0 -299 -213.5 -503t-506.5 -204zM815 101q249 0 427 175.5t178 425.5q0 245 -177.5 420.5t-427.5 175.5t-428.5 -174t-178.5 -422q0 -251 180 -426 q183 -175 427 -175zM654 1537q-39 0 -59.5 26t-20.5 57q0 37 24 60t56 23t56 -22t24 -61q0 -29 -20 -56t-60 -27zM979 1537q-39 0 -59.5 26t-20.5 57q0 37 24 60t56 23t56 -22t24 -61q0 -29 -20 -56t-60 -27z"/>
<glyph glyph-name="multiply" unicode="×" horiz-adv-x="975" d="M748 321l-260 260l-260 -260l-60 63l259 260l-259 259l60 62l260 -260l260 260l60 -62l-259 -259l259 -260z"/>
<glyph glyph-name="Oslash" unicode="Ø" horiz-adv-x="1629" d="M294 -110h-106l179 253q-146 107 -213 247t-67 318q0 294 216 494t504 200q221 -2 382 -99l146 207h106l-179 -254q145 -105 213 -245.5t68 -318.5q0 -297 -214.5 -496.5t-505.5 -199.5q-214 0 -382 99zM434 239l688 969q-140 80 -309 82q-171 0 -308 -79t-217 -213 t-80 -298q0 -288 226 -461zM815 107q251 0 428 173t177 420q0 285 -226 460l-687 -969q138 -84 308 -84z"/>
<glyph glyph-name="Ugrave" unicode="Ù" horiz-adv-x="1536" d="M769 -10q-177 0 -306 66.5t-199.5 195t-70.5 315.5v832h120v-832q0 -125 36.5 -213.5t99.5 -144.5t145.5 -82t174.5 -26q193 0 314 102q140 119 140 364v832h118v-832q0 -282 -152 -429.5t-420 -147.5zM755 1537l-252 202l119 55l241 -243z"/>
<glyph glyph-name="Uacute" unicode="Ú" horiz-adv-x="1536" d="M769 -10q-177 0 -306 66.5t-199.5 195t-70.5 315.5v832h120v-832q0 -125 36.5 -213.5t99.5 -144.5t145.5 -82t174.5 -26q193 0 314 102q140 119 140 364v832h118v-832q0 -282 -152 -429.5t-420 -147.5zM795 1537l-108 14l242 243l119 -55z"/>
<glyph glyph-name="Ucircumflex" unicode="Û" horiz-adv-x="1536" d="M769 -10q-177 0 -306 66.5t-199.5 195t-70.5 315.5v832h120v-832q0 -125 36.5 -213.5t99.5 -144.5t145.5 -82t174.5 -26q193 0 314 102q140 119 140 364v832h118v-832q0 -282 -152 -429.5t-420 -147.5zM1038 1541h-121l-148 159l-148 -159h-122l203 246h133z"/>
<glyph glyph-name="Udieresis" unicode="Ü" horiz-adv-x="1536" d="M769 -10q-177 0 -306 66.5t-199.5 195t-70.5 315.5v832h120v-832q0 -125 36.5 -213.5t99.5 -144.5t145.5 -82t174.5 -26q193 0 314 102q140 119 140 364v832h118v-832q0 -282 -152 -429.5t-420 -147.5zM607 1537q-39 0 -59.5 26t-20.5 57q0 37 24 60t56 23t56 -22t24 -61 q0 -29 -20 -56t-60 -27zM933 1537q-39 0 -59.5 26t-20.5 57q0 37 24 60t56 23t56 -22t24 -61q0 -29 -20 -56t-60 -27z"/>
<glyph glyph-name="Yacute" unicode="Ý" horiz-adv-x="1237" d="M682 0h-119v501l-551 898h127l483 -762l477 762h125l-542 -896v-503zM645 1537l-108 14l241 243l119 -55z"/>
<glyph glyph-name="Thorn" unicode="Þ" horiz-adv-x="1337" d="M347 0h-120v1399h120v-213h268q344 0 505 -107t161 -345q0 -142 -61.5 -246.5t-192.5 -162t-338 -57.5h-342v-268zM683 372q476 0 476 357q0 173 -116 261.5t-358 91.5h-338v-710h336z"/>
<glyph glyph-name="germandbls" unicode="ß" horiz-adv-x="1292" d="M671 0h-108v97h114q119 0 203 39.5t128 108.5t44 157q0 140 -112 217.5t-309 77.5v96q116 0 193 42t115 112t38 153q0 94 -42 158.5t-113.5 97t-159.5 32.5q-112 0 -190.5 -50t-119.5 -139.5t-41 -207.5v-991h-118v984q0 101 27.5 192t85 161t146 110.5t211.5 40.5 q82 0 159 -21t137.5 -65.5t96.5 -115.5t36 -171q0 -101 -36.5 -173.5t-98 -118t-136.5 -65.5q100 -14 178 -55.5t123 -114.5t45 -182q0 -116 -57 -208t-167.5 -145t-271.5 -53z"/>
<glyph glyph-name="agrave" unicode="à" horiz-adv-x="1144" d="M459 -4h-9q-83 0 -147 25.5t-107.5 68.5t-65 99.5t-21.5 117.5q0 132 100.5 209t289.5 81h359v86q0 59 -17 108t-53.5 84.5t-92.5 55t-134 19.5q-181 0 -344 -129l-52 84q199 145 416 145q102 0 176 -25q217 -77 217 -331l3 -694h-115l-1 187q-133 -191 -402 -191z M480 96q131 0 232.5 61t147.5 192l-1 152h-315q-96 0 -169.5 -16.5t-114.5 -58t-41 -115.5q0 -57 28 -106t86 -79t147 -30zM550 1236l-253 202l120 55l241 -243z"/>
<glyph glyph-name="aacute" unicode="á" horiz-adv-x="1144" d="M459 -4h-9q-83 0 -147 25.5t-107.5 68.5t-65 99.5t-21.5 117.5q0 132 100.5 209t289.5 81h359v86q0 59 -17 108t-53.5 84.5t-92.5 55t-134 19.5q-181 0 -344 -129l-52 84q199 145 416 145q102 0 176 -25q217 -77 217 -331l3 -694h-115l-1 187q-133 -191 -402 -191z M480 96q131 0 232.5 61t147.5 192l-1 152h-315q-96 0 -169.5 -16.5t-114.5 -58t-41 -115.5q0 -57 28 -106t86 -79t147 -30zM589 1236l-108 14l241 243l119 -55z"/>
<glyph glyph-name="acircumflex" unicode="â" horiz-adv-x="1144" d="M459 -4h-9q-83 0 -147 25.5t-107.5 68.5t-65 99.5t-21.5 117.5q0 132 100.5 209t289.5 81h359v86q0 59 -17 108t-53.5 84.5t-92.5 55t-134 19.5q-181 0 -344 -129l-52 84q199 145 416 145q102 0 176 -25q217 -77 217 -331l3 -694h-115l-1 187q-133 -191 -402 -191z M480 96q131 0 232.5 61t147.5 192l-1 152h-315q-96 0 -169.5 -16.5t-114.5 -58t-41 -115.5q0 -57 28 -106t86 -79t147 -30zM831 1240h-121l-148 159l-148 -159h-121l202 245h134z"/>
<glyph glyph-name="atilde" unicode="ã" horiz-adv-x="1144" d="M459 -4h-9q-83 0 -147 25.5t-107.5 68.5t-65 99.5t-21.5 117.5q0 132 100.5 209t289.5 81h359v86q0 59 -17 108t-53.5 84.5t-92.5 55t-134 19.5q-181 0 -344 -129l-52 84q199 145 416 145q102 0 176 -25q217 -77 217 -331l3 -694h-115l-1 187q-133 -191 -402 -191z M480 96q131 0 232.5 61t147.5 192l-1 152h-315q-96 0 -169.5 -16.5t-114.5 -58t-41 -115.5q0 -57 28 -106t86 -79t147 -30zM696 1235q-36 0 -83.5 25t-86.5 50q-27 15 -45 20q-25 10 -44 10q-22 0 -36 -13q-40 -14 -42 -84h-86q0 206 153 206q33 0 73.5 -19.5t79.5 -42.5 q38 -23 63 -32.5t43 -9.5q22 0 36 12q40 16 42 84h86q0 -206 -153 -206z"/>
<glyph glyph-name="adieresis" unicode="ä" horiz-adv-x="1144" d="M459 -4h-9q-83 0 -147 25.5t-107.5 68.5t-65 99.5t-21.5 117.5q0 132 100.5 209t289.5 81h359v86q0 59 -17 108t-53.5 84.5t-92.5 55t-134 19.5q-181 0 -344 -129l-52 84q199 145 416 145q102 0 176 -25q217 -77 217 -331l3 -694h-115l-1 187q-133 -191 -402 -191z M480 96q131 0 232.5 61t147.5 192l-1 152h-315q-96 0 -169.5 -16.5t-114.5 -58t-41 -115.5q0 -57 28 -106t86 -79t147 -30zM400 1264q-32 0 -55.5 24t-23.5 57q0 42 25 62.5t54 20.5q30 0 55 -19.5t25 -63.5q0 -31 -19.5 -56t-60.5 -25zM724 1264q-40 0 -60 25t-20 56 q0 43 24 63t56 20q30 0 55 -19.5t25 -63.5q0 -31 -19.5 -56t-60.5 -25z"/>
<glyph glyph-name="aring" unicode="å" horiz-adv-x="1144" d="M459 -4h-9q-83 0 -147 25.5t-107.5 68.5t-65 99.5t-21.5 117.5q0 132 100.5 209t289.5 81h359v86q0 59 -17 108t-53.5 84.5t-92.5 55t-134 19.5q-181 0 -344 -129l-52 84q199 145 416 145q102 0 176 -25q217 -77 217 -331l3 -694h-115l-1 187q-133 -191 -402 -191z M480 96q131 0 232.5 61t147.5 192l-1 152h-315q-96 0 -169.5 -16.5t-114.5 -58t-41 -115.5q0 -57 28 -106t86 -79t147 -30zM561 1161q-82 0 -138.5 55.5t-56.5 137.5q0 48 23.5 92t67 72.5t104.5 28.5q62 0 106.5 -29.5t68 -74t23.5 -89.5q0 -81 -58 -137t-140 -56z M561 1233q51 0 90 34.5t39 86.5q0 56 -40.5 88.5t-88.5 32.5q-47 0 -87.5 -32.5t-40.5 -88.5q0 -51 36 -86t92 -35z"/>
<glyph glyph-name="ae" unicode="æ" horiz-adv-x="1965" d="M1384 -4q-117 0 -208.5 36.5t-156 102t-102.5 153.5q-130 -292 -457 -292q-63 0 -125 17t-113 54t-82 95.5t-31 140.5q0 99 51 161t139.5 91t201.5 29h361l-1 99q-9 267 -300 267q-178 0 -359 -129l-37 86q211 143 416 143q298 0 370 -247q76 129 186.5 188t243.5 59 q151 0 263.5 -66t174.5 -188.5t62 -292.5h-900v-43q0 -102 55.5 -184t148.5 -130.5t206 -48.5q205 0 339 140l67 -71q-164 -170 -413 -170zM481 87q280 0 383 268v154h-308q-151 0 -233 -36q-104 -46 -104 -162q0 -98 71 -161t191 -63zM1764 578q-9 110 -52.5 195.5 t-125 134.5t-203.5 49q-167 0 -271 -99t-129 -280h781z"/>
<glyph glyph-name="ccedilla" unicode="ç" horiz-adv-x="1119" d="M559 -430q-87 0 -166 43l30 80q56 -34 124 -34q61 0 88 28t27 62q0 31 -25.5 57.5t-83.5 26.5h-61l51 166q-210 26 -331 162t-121 362q0 165 68.5 283t185 181t261.5 63q239 0 388 -150l-66 -81q-128 124 -318 124q-121 0 -220 -58.5t-151 -180.5q-33 -79 -33 -181 q0 -131 54.5 -225.5t146 -145.5t203.5 -51q210 0 333 141l69 -71q-137 -162 -382 -174l-33 -105q85 -15 123.5 -56t38.5 -96q0 -72 -51 -121t-149 -49z"/>
<glyph glyph-name="egrave" unicode="è" horiz-adv-x="1177" d="M606 -4q-100 0 -193.5 33t-165.5 99t-114 163.5t-42 222.5v9q0 227 121 358q141 161 393 169q228 0 355 -141q116 -130 129 -348q4 -38 4 -76h-886q7 -94 40.5 -167.5t87.5 -122.5t125.5 -74t153.5 -25q206 0 339 139l67 -69q-159 -170 -414 -170zM986 581 q-17 252 -215 340q-70 29 -166 29q-123 0 -206.5 -47.5t-131 -130.5t-60.5 -191h779zM581 1236l-253 202l119 55l242 -243z"/>
<glyph glyph-name="eacute" unicode="é" horiz-adv-x="1177" d="M606 -4q-100 0 -193.5 33t-165.5 99t-114 163.5t-42 222.5v9q0 227 121 358q141 161 393 169q228 0 355 -141q116 -130 129 -348q4 -38 4 -76h-886q7 -94 40.5 -167.5t87.5 -122.5t125.5 -74t153.5 -25q206 0 339 139l67 -69q-159 -170 -414 -170zM986 581 q-17 252 -215 340q-70 29 -166 29q-123 0 -206.5 -47.5t-131 -130.5t-60.5 -191h779zM619 1236l-108 14l242 243l119 -55z"/>
<glyph glyph-name="ecircumflex" unicode="ê" horiz-adv-x="1177" d="M606 -4q-100 0 -193.5 33t-165.5 99t-114 163.5t-42 222.5v9q0 227 121 358q141 161 393 169q228 0 355 -141q116 -130 129 -348q4 -38 4 -76h-886q7 -94 40.5 -167.5t87.5 -122.5t125.5 -74t153.5 -25q206 0 339 139l67 -69q-159 -170 -414 -170zM986 581 q-17 252 -215 340q-70 29 -166 29q-123 0 -206.5 -47.5t-131 -130.5t-60.5 -191h779zM862 1240h-121l-148 159l-148 -159h-122l203 245h133z"/>
<glyph glyph-name="edieresis" unicode="ë" horiz-adv-x="1177" d="M606 -4q-100 0 -193.5 33t-165.5 99t-114 163.5t-42 222.5v9q0 227 121 358q141 161 393 169q228 0 355 -141q116 -130 129 -348q4 -38 4 -76h-886q7 -94 40.5 -167.5t87.5 -122.5t125.5 -74t153.5 -25q206 0 339 139l67 -69q-159 -170 -414 -170zM986 581 q-17 252 -215 340q-70 29 -166 29q-123 0 -206.5 -47.5t-131 -130.5t-60.5 -191h779zM431 1264q-32 0 -55.5 24t-23.5 57q0 44 25 63.5t54 19.5t54.5 -19.5t25.5 -63.5q0 -30 -19.5 -55.5t-60.5 -25.5zM755 1264q-40 0 -60 25t-20 56q0 43 24 63t56 20q29 0 54.5 -19.5 t25.5 -63.5q0 -31 -19.5 -56t-60.5 -25z"/>
<glyph glyph-name="igrave" unicode="ì" horiz-adv-x="516" d="M245 1236l-252 202l119 55l241 -243zM316 0h-116v1046h116v-1046z"/>
<glyph glyph-name="iacute" unicode="í" horiz-adv-x="516" d="M284 1236l-108 14l241 243l120 -55zM316 0h-116v1046h116v-1046z"/>
<glyph glyph-name="icircumflex" unicode="î" horiz-adv-x="516" d="M527 1240h-122l-148 159l-148 -159h-121l203 245h133zM316 0h-116v1046h116v-1046z"/>
<glyph glyph-name="idieresis" unicode="ï" horiz-adv-x="516" d="M129 1263q-35 0 -58.5 24.5t-23.5 59.5q0 43 26 62t56 19q74 0 78 -81q0 -33 -20 -58.5t-58 -25.5zM316 0h-116v1046h116v-1046zM387 1263q-37 0 -58.5 25.5t-21.5 58.5q0 44 25 62.5t55 18.5t55 -18.5t25 -62.5q0 -34 -22.5 -59t-57.5 -25z"/>
<glyph glyph-name="eth" unicode="ð" horiz-adv-x="1152" d="M563 -4q-90 0 -173.5 25t-148.5 79t-103 139.5t-38 205.5q0 144 60 240.5t163 145.5t231 49q113 0 217 -50.5t172 -160.5q-72 279 -312 510l-347 -160l-34 72l315 146q-123 105 -280 186l76 65q164 -87 300 -207l271 126l34 -73l-243 -111q341 -350 341 -738 q0 -206 -113 -336q-133 -153 -388 -153zM575 103q165 0 265.5 91t100.5 247q0 113 -48 190.5t-131 117t-187 39.5q-95 0 -177.5 -34.5t-133.5 -108.5t-51 -192q0 -103 42 -182t123 -123.5t197 -44.5z"/>
<glyph glyph-name="ntilde" unicode="ñ" horiz-adv-x="1304" d="M1137 0h-118v614q0 160 -88 241.5t-232 81.5q-355 -25 -382 -374v-563h-117v1046h117v-252q113 251 418 256q142 0 230.5 -53.5t130 -146t41.5 -209.5v-641zM821 1235q-26 0 -56 13t-59.5 29.5t-55.5 32.5q-27 15 -45 20q-24 10 -43 10q-22 0 -37 -13q-41 -15 -41 -84 h-86q0 206 153 206q34 0 74 -19.5t78 -42.5t62.5 -32.5t43.5 -9.5q22 0 37 12q41 17 41 84h86q0 -206 -152 -206z"/>
<glyph glyph-name="ograve" unicode="ò" horiz-adv-x="1228" d="M614 -4q-102 0 -195 31.5t-167 97.5t-119 171q-42 99 -42 229q0 163 70.5 280.5t189 181t263.5 63.5q98 0 191.5 -31.5t168 -96t119 -163.5t44.5 -234q0 -155 -66 -274.5t-183.5 -187t-273.5 -67.5zM614 100q75 0 148 24t130.5 75t92.5 131.5t35 192.5q0 179 -104 297 q-112 125 -302 125q-82 0 -155.5 -26.5t-129.5 -79t-88.5 -132t-32.5 -184.5v-8q0 -105 34 -182.5t91 -130t130 -77.5t151 -25zM602 1236l-253 202l120 55l241 -243z"/>
<glyph glyph-name="oacute" unicode="ó" horiz-adv-x="1228" d="M614 -4q-102 0 -195 31.5t-167 97.5t-119 171q-42 99 -42 229q0 163 70.5 280.5t189 181t263.5 63.5q98 0 191.5 -31.5t168 -96t119 -163.5t44.5 -234q0 -155 -66 -274.5t-183.5 -187t-273.5 -67.5zM614 100q75 0 148 24t130.5 75t92.5 131.5t35 192.5q0 179 -104 297 q-112 125 -302 125q-82 0 -155.5 -26.5t-129.5 -79t-88.5 -132t-32.5 -184.5v-8q0 -105 34 -182.5t91 -130t130 -77.5t151 -25zM641 1236l-108 14l241 243l119 -55z"/>
<glyph glyph-name="ocircumflex" unicode="ô" horiz-adv-x="1228" d="M614 -4q-102 0 -195 31.5t-167 97.5t-119 171q-42 99 -42 229q0 163 70.5 280.5t189 181t263.5 63.5q98 0 191.5 -31.5t168 -96t119 -163.5t44.5 -234q0 -155 -66 -274.5t-183.5 -187t-273.5 -67.5zM614 100q75 0 148 24t130.5 75t92.5 131.5t35 192.5q0 179 -104 297 q-112 125 -302 125q-82 0 -155.5 -26.5t-129.5 -79t-88.5 -132t-32.5 -184.5v-8q0 -105 34 -182.5t91 -130t130 -77.5t151 -25zM883 1240h-121l-148 159l-148 -159h-121l202 245h134z"/>
<glyph glyph-name="otilde" unicode="õ" horiz-adv-x="1228" d="M614 -4q-102 0 -195 31.5t-167 97.5t-119 171q-42 99 -42 229q0 163 70.5 280.5t189 181t263.5 63.5q98 0 191.5 -31.5t168 -96t119 -163.5t44.5 -234q0 -155 -66 -274.5t-183.5 -187t-273.5 -67.5zM614 100q75 0 148 24t130.5 75t92.5 131.5t35 192.5q0 179 -104 297 q-112 125 -302 125q-82 0 -155.5 -26.5t-129.5 -79t-88.5 -132t-32.5 -184.5v-8q0 -105 34 -182.5t91 -130t130 -77.5t151 -25zM748 1235q-36 0 -83.5 25t-86.5 50q-27 15 -45 20q-25 10 -44 10q-22 0 -36 -13q-40 -14 -42 -84h-86q0 206 153 206q33 0 73.5 -19.5 t79.5 -42.5q38 -23 63 -32.5t43 -9.5q22 0 36 12q40 16 42 84h86q0 -206 -153 -206z"/>
<glyph glyph-name="odieresis" unicode="ö" horiz-adv-x="1228" d="M614 -4q-102 0 -195 31.5t-167 97.5t-119 171q-42 99 -42 229q0 163 70.5 280.5t189 181t263.5 63.5q98 0 191.5 -31.5t168 -96t119 -163.5t44.5 -234q0 -155 -66 -274.5t-183.5 -187t-273.5 -67.5zM614 100q75 0 148 24t130.5 75t92.5 131.5t35 192.5q0 179 -104 297 q-112 125 -302 125q-82 0 -155.5 -26.5t-129.5 -79t-88.5 -132t-32.5 -184.5v-8q0 -105 34 -182.5t91 -130t130 -77.5t151 -25zM452 1264q-32 0 -55.5 24t-23.5 57q0 42 25 62.5t54 20.5q30 0 55 -19.5t25 -63.5q0 -31 -19.5 -56t-60.5 -25zM776 1264q-40 0 -60 25t-20 56 q0 43 24 63t56 20q30 0 55 -19.5t25 -63.5q0 -31 -19.5 -56t-60.5 -25z"/>
<glyph glyph-name="divide" unicode="÷" horiz-adv-x="975" d="M899 599h-823v89h823v-89zM489 214q-30 0 -55.5 21.5t-25.5 62.5q0 43 25.5 63.5t55.5 20.5q31 0 56.5 -21t25.5 -63q0 -33 -20.5 -58.5t-61.5 -25.5zM489 919q-30 0 -55.5 21.5t-25.5 62.5q0 44 25.5 64t55.5 20q28 0 55 -21t27 -63q0 -33 -20.5 -58.5t-61.5 -25.5z"/>
<glyph glyph-name="oslash" unicode="ø" horiz-adv-x="1228" d="M159 -208h-91l215 313q-192 153 -192 420q0 161 69.5 279t187.5 182t266 64q150 0 269 -68l186 272h91l-215 -313q192 -153 192 -416q0 -156 -67 -275.5t-185 -186.5t-271 -67q-150 0 -269 68zM341 191l484 707q-91 55 -211 55q-77 0 -150.5 -25t-132 -77t-93.5 -133.5 t-35 -194.5q0 -215 138 -332zM614 92q71 0 143.5 22.5t133 73t97.5 133t37 202.5q0 210 -139 331l-484 -707q94 -55 212 -55z"/>
<glyph glyph-name="ugrave" unicode="ù" horiz-adv-x="1287" d="M560 -4q-138 0 -225.5 55t-129 148t-41.5 206v641h117v-614q0 -107 40 -178.5t111 -108t164 -36.5q131 13 213.5 69.5t121.5 148t39 206.5v513h117v-1046h-117v259q-108 -259 -410 -263zM633 1236l-253 202l119 55l242 -243z"/>
<glyph glyph-name="uacute" unicode="ú" horiz-adv-x="1287" d="M560 -4q-138 0 -225.5 55t-129 148t-41.5 206v641h117v-614q0 -107 40 -178.5t111 -108t164 -36.5q131 13 213.5 69.5t121.5 148t39 206.5v513h117v-1046h-117v259q-108 -259 -410 -263zM671 1236l-108 14l242 243l119 -55z"/>
<glyph glyph-name="ucircumflex" unicode="û" horiz-adv-x="1287" d="M560 -4q-138 0 -225.5 55t-129 148t-41.5 206v641h117v-614q0 -107 40 -178.5t111 -108t164 -36.5q131 13 213.5 69.5t121.5 148t39 206.5v513h117v-1046h-117v259q-108 -259 -410 -263zM914 1240h-121l-148 159l-148 -159h-122l203 245h133z"/>
<glyph glyph-name="udieresis" unicode="ü" horiz-adv-x="1287" d="M560 -4q-138 0 -225.5 55t-129 148t-41.5 206v641h117v-614q0 -107 40 -178.5t111 -108t164 -36.5q131 13 213.5 69.5t121.5 148t39 206.5v513h117v-1046h-117v259q-108 -259 -410 -263zM483 1264q-32 0 -55.5 24t-23.5 57q0 44 25 63.5t54 19.5t54.5 -19.5t25.5 -63.5 q0 -30 -19.5 -55.5t-60.5 -25.5zM807 1264q-40 0 -60 25t-20 56q0 43 24 63t56 20q29 0 54.5 -19.5t25.5 -63.5q0 -31 -19.5 -56t-60.5 -25z"/>
<glyph glyph-name="yacute" unicode="ý" horiz-adv-x="973" d="M193 -392q-122 0 -210 68l50 94q72 -49 153 -49q134 0 209 172l46 111l-433 1042h125l367 -913l355 913h122l-484 -1196q-107 -242 -300 -242zM521 1236l-108 14l241 243l119 -55z"/>
<glyph glyph-name="thorn" unicode="þ" horiz-adv-x="1347" d="M327 -388h-117v1872h117v-689q58 120 163 187.5t262 67.5q146 0 271 -73t193 -227q41 -99 41 -229q0 -101 -29 -194t-91.5 -167t-160.5 -120q-94 -44 -221 -44q-304 0 -428 255v-639zM733 101q131 0 221.5 59t137 155.5t46.5 208.5q0 81 -24.5 156.5t-74.5 135.5 t-126 95.5t-180 35.5q-119 0 -219 -57.5t-153 -179.5q-34 -80 -34 -186q0 -117 53 -222t173 -165q76 -36 180 -36z"/>
<glyph glyph-name="ydieresis" unicode="ÿ" horiz-adv-x="973" d="M193 -392q-122 0 -210 68l50 94q72 -49 153 -49q134 0 209 172l46 111l-433 1042h125l367 -913l355 913h122l-484 -1196q-107 -242 -300 -242zM332 1264q-32 0 -55.5 24t-23.5 57q0 42 25 62.5t54 20.5q30 0 55 -19.5t25 -63.5q0 -31 -19.5 -56t-60.5 -25zM656 1264 q-40 0 -60 25t-20 56q0 43 24 63t56 20q30 0 55 -19.5t25 -63.5q0 -31 -19.5 -56t-60.5 -25z"/>
<glyph glyph-name="Amacron" unicode="Ā" horiz-adv-x="1415" d="M1403 0h-132l-170 381h-791l-169 -381h-129l632 1399h125zM1051 493l-348 775l-343 -775h691zM1019 1551h-626v84h626v-84z"/>
<glyph glyph-name="amacron" unicode="ā" horiz-adv-x="1144" d="M459 -4h-9q-83 0 -147 25.5t-107.5 68.5t-65 99.5t-21.5 117.5q0 132 100.5 209t289.5 81h359v86q0 59 -17 108t-53.5 84.5t-92.5 55t-134 19.5q-181 0 -344 -129l-52 84q199 145 416 145q102 0 176 -25q217 -77 217 -331l3 -694h-115l-1 187q-133 -191 -402 -191z M480 96q131 0 232.5 61t147.5 192l-1 152h-315q-96 0 -169.5 -16.5t-114.5 -58t-41 -115.5q0 -57 28 -106t86 -79t147 -30zM833 1305h-545v84h545v-84z"/>
<glyph glyph-name="Abreve" unicode="Ă" horiz-adv-x="1415" d="M1403 0h-132l-170 381h-791l-169 -381h-129l632 1399h125zM1051 493l-348 775l-343 -775h691zM707 1536q-96 0 -161 60.5t-78 181.5h87q7 -70 43.5 -112t108.5 -42q130 0 152 154h88q-10 -109 -70 -175.5t-170 -66.5z"/>
<glyph glyph-name="abreve" unicode="ă" horiz-adv-x="1144" d="M459 -4h-9q-83 0 -147 25.5t-107.5 68.5t-65 99.5t-21.5 117.5q0 132 100.5 209t289.5 81h359v86q0 59 -17 108t-53.5 84.5t-92.5 55t-134 19.5q-181 0 -344 -129l-52 84q199 145 416 145q102 0 176 -25q217 -77 217 -331l3 -694h-115l-1 187q-133 -191 -402 -191z M480 96q131 0 232.5 61t147.5 192l-1 152h-315q-96 0 -169.5 -16.5t-114.5 -58t-41 -115.5q0 -57 28 -106t86 -79t147 -30zM562 1230q-96 0 -161.5 60.5t-77.5 181.5h86q7 -70 44 -112t109 -42q131 0 151 154h88q-10 -109 -70 -175.5t-169 -66.5z"/>
<glyph glyph-name="Aogonek" unicode="Ą" horiz-adv-x="1415" d="M1247 -430q-13 0 -37.5 6.5t-50.5 20.5q-14 0 -23 4q-61 39 -61 132q0 142 193 275l-167 373h-791l-169 -381h-129l632 1399h125l634 -1399h-2q-216 -140 -216 -250q0 -84 83 -84q44 0 97 29l34 -81q-83 -44 -152 -44zM1051 493l-348 775l-343 -775h691z"/>
<glyph glyph-name="aogonek" unicode="ą" horiz-adv-x="1144" d="M823 -430q-120 0 -158 89q-14 31 -14 74q0 153 211 288l-1 166q-133 -191 -402 -191h-9q-83 0 -147 25.5t-107.5 68.5t-65 99.5t-21.5 117.5q0 134 101 209.5t289 80.5h359v86q0 122 -71 193q-77 74 -226 74q-181 0 -344 -129l-52 84q100 72 203.5 108.5t212.5 36.5 q199 0 301 -98q92 -92 92 -258l3 -694q-216 -139 -216 -250q0 -84 82 -84q47 0 97 29l35 -81q-81 -44 -152 -44zM480 96q131 0 232.5 61t147.5 192l-1 152h-315q-96 0 -169.5 -16.5t-114.5 -58t-41 -115.5q0 -57 28 -106t86 -79t147 -30z"/>
<glyph glyph-name="Cacute" unicode="Ć" horiz-adv-x="1403" d="M809 -10q-158 0 -284 52.5t-229 155.5q-209 210 -209 503q0 202 107 377.5t322 272.5q136 59 297 59q285 0 501 -198l-73 -86q-186 174 -427 174q-254 0 -430 -174q-177 -171 -177 -427q0 -114 43 -221t122.5 -191.5t191.5 -134t250 -49.5q242 0 427 170l75 -79 q-221 -204 -507 -204zM855 1537l-108 14l241 243l119 -55z"/>
<glyph glyph-name="cacute" unicode="ć" horiz-adv-x="1119" d="M606 -4q-94 0 -187 30t-169 97q-159 141 -159 400q0 167 69.5 285t186.5 180t259 62q239 0 388 -150l-66 -81q-129 124 -318 124q-121 0 -220 -58.5t-151 -180.5q-33 -79 -33 -181q0 -137 57 -231t149 -142.5t198 -48.5q210 0 333 141l69 -71q-147 -175 -406 -175z M605 1236l-108 14l241 243l119 -55z"/>
<glyph glyph-name="Ccircumflex" unicode="Ĉ" horiz-adv-x="1403" d="M809 -10q-158 0 -284 52.5t-229 155.5q-209 210 -209 503q0 202 107 377.5t322 272.5q136 59 297 59q285 0 501 -198l-73 -86q-186 174 -427 174q-254 0 -430 -174q-177 -171 -177 -427q0 -114 43 -221t122.5 -191.5t191.5 -134t250 -49.5q242 0 427 170l75 -79 q-221 -204 -507 -204zM1097 1541h-121l-148 159l-148 -159h-121l202 246h134z"/>
<glyph glyph-name="ccircumflex" unicode="ĉ" horiz-adv-x="1119" d="M606 -4q-94 0 -187 30t-169 97q-159 141 -159 400q0 167 69.5 285t186.5 180t259 62q239 0 388 -150l-66 -81q-129 124 -318 124q-121 0 -220 -58.5t-151 -180.5q-33 -79 -33 -181q0 -137 57 -231t149 -142.5t198 -48.5q210 0 333 141l69 -71q-147 -175 -406 -175z M847 1240h-121l-148 159l-148 -159h-121l202 245h134z"/>
<glyph glyph-name="Cdotaccent" unicode="Ċ" horiz-adv-x="1403" d="M809 -10q-158 0 -284 52.5t-229 155.5q-209 210 -209 503q0 202 107 377.5t322 272.5q136 59 297 59q285 0 501 -198l-73 -86q-186 174 -427 174q-254 0 -430 -174q-177 -171 -177 -427q0 -114 43 -221t122.5 -191.5t191.5 -134t250 -49.5q242 0 427 170l75 -79 q-221 -204 -507 -204zM828 1537q-43 0 -64 27.5t-21 60.5q0 40 24.5 64t60.5 24q33 0 59 -23.5t26 -64.5q0 -35 -22 -61.5t-63 -26.5z"/>
<glyph glyph-name="cdotaccent" unicode="ċ" horiz-adv-x="1119" d="M606 -4q-94 0 -187 30t-169 97q-159 141 -159 400q0 167 69.5 285t186.5 180t259 62q239 0 388 -150l-66 -81q-129 124 -318 124q-121 0 -220 -58.5t-151 -180.5q-33 -79 -33 -181q0 -137 57 -231t149 -142.5t198 -48.5q210 0 333 141l69 -71q-147 -175 -406 -175z M578 1259q-43 0 -64 27.5t-21 60.5q0 36 22 62.5t63 26.5q35 0 60 -24t25 -65q0 -33 -21 -60.5t-64 -27.5z"/>
<glyph glyph-name="Ccaron" unicode="Č" horiz-adv-x="1403" d="M809 -10q-158 0 -284 52.5t-229 155.5q-209 210 -209 503q0 202 107 377.5t322 272.5q136 59 297 59q285 0 501 -198l-73 -86q-186 174 -427 174q-254 0 -430 -174q-177 -171 -177 -427q0 -114 43 -221t122.5 -191.5t191.5 -134t250 -49.5q242 0 427 170l75 -79 q-221 -204 -507 -204zM871 1541h-134l-202 246h121l148 -159l148 159h121z"/>
<glyph glyph-name="ccaron" unicode="č" horiz-adv-x="1119" d="M606 -4q-94 0 -187 30t-169 97q-159 141 -159 400q0 167 69.5 285t186.5 180t259 62q239 0 388 -150l-66 -81q-129 124 -318 124q-121 0 -220 -58.5t-151 -180.5q-33 -79 -33 -181q0 -137 57 -231t149 -142.5t198 -48.5q210 0 333 141l69 -71q-147 -175 -406 -175z M645 1240h-134l-202 245h121l148 -158l148 158h121z"/>
<glyph glyph-name="Dcaron" unicode="Ď" horiz-adv-x="1593" d="M786 0h-559v1399h468q122 0 225.5 -14t196 -58t182.5 -131q103 -100 155 -223t52 -276q0 -294 -208 -496q-210 -201 -512 -201zM789 112q247 0 421.5 166.5t174.5 419.5q0 259 -177.5 424t-422.5 165h-438v-1175h442zM797 1541h-133l-203 246h122l148 -159l148 159h121z "/>
<glyph glyph-name="dcaron" unicode="ď" horiz-adv-x="1413" d="M598 -7q-145 0 -260 64.5t-181 184t-66 282.5q0 152 62 271.5t175.5 188.5t268.5 69q160 0 266.5 -69.5t163.5 -190.5v691h117v-1484h-117v252q-59 -122 -165 -190.5t-264 -68.5zM618 96q112 0 205 50.5t148.5 146t55.5 228.5q0 116 -50 213.5t-142 156t-217 58.5 q-119 0 -211.5 -54t-145.5 -150t-53 -224q0 -79 23.5 -154t74.5 -136t132 -99q77 -36 180 -36zM1409 1107h-85v377h112z"/>
<glyph glyph-name="Dcroat" unicode="Đ" horiz-adv-x="1593" d="M787 0h-560v660h-144v80h144v659h562q303 0 510 -203q103 -100 155 -223t52 -276q0 -294 -208.5 -495.5t-510.5 -201.5zM789 112q247 0 421.5 166.5t174.5 419.5q0 258 -177 423.5t-423 165.5h-438v-547h497v-80h-497v-548h442z"/>
<glyph glyph-name="dcroat" unicode="đ" horiz-adv-x="1353" d="M595 -7q-142 0 -256 63t-181 180t-67 279q0 167 67.5 283t181.5 176.5t253 60.5q306 0 434 -265v443h-463v80h463v191h116v-191h153v-80h-153v-1213h-116v257q-60 -124 -167 -194t-265 -70zM618 96q105 0 198.5 46.5t152 139t58.5 230.5q0 129 -55.5 222.5t-148.5 144.5 t-205 51t-205.5 -49t-149 -142t-55.5 -227q0 -78 24.5 -152t75 -133.5t128 -95t182.5 -35.5z"/>
<glyph glyph-name="Emacron" unicode="Ē" horiz-adv-x="1297" d="M1178 0h-951v1399h924v-112h-804v-519h718v-111h-718v-545h831v-112zM1014 1551h-626v84h626v-84z"/>
<glyph glyph-name="emacron" unicode="ē" horiz-adv-x="1177" d="M606 -4q-100 0 -193.5 33t-165.5 99t-114 163.5t-42 222.5v9q0 227 121 358q141 161 393 169q228 0 355 -141q116 -130 129 -348q4 -38 4 -76h-886q7 -94 40.5 -167.5t87.5 -122.5t125.5 -74t153.5 -25q206 0 339 139l67 -69q-159 -170 -414 -170zM986 581 q-17 252 -215 340q-70 29 -166 29q-123 0 -206.5 -47.5t-131 -130.5t-60.5 -191h779zM863 1305h-544v84h544v-84z"/>
<glyph glyph-name="Ebreve" unicode="Ĕ" horiz-adv-x="1297" d="M1178 0h-951v1399h924v-112h-804v-519h718v-111h-718v-545h831v-112zM702 1536q-96 0 -161.5 60.5t-77.5 181.5h86q7 -70 44 -112t109 -42q131 0 151 154h88q-10 -109 -70 -175.5t-169 -66.5z"/>
<glyph glyph-name="ebreve" unicode="ĕ" horiz-adv-x="1177" d="M606 -4q-100 0 -193.5 33t-165.5 99t-114 163.5t-42 222.5v9q0 227 121 358q141 161 393 169q228 0 355 -141q116 -130 129 -348q4 -38 4 -76h-886q7 -94 40.5 -167.5t87.5 -122.5t125.5 -74t153.5 -25q206 0 339 139l67 -69q-159 -170 -414 -170zM986 581 q-17 252 -215 340q-70 29 -166 29q-123 0 -206.5 -47.5t-131 -130.5t-60.5 -191h779zM593 1230q-96 0 -161.5 60.5t-78.5 181.5h87q7 -70 44 -112t109 -42q131 0 151 154h88q-10 -109 -70 -175.5t-169 -66.5z"/>
<glyph glyph-name="Edotaccent" unicode="Ė" horiz-adv-x="1297" d="M1178 0h-951v1399h924v-112h-804v-519h718v-111h-718v-545h831v-112zM702 1537q-43 0 -64 27.5t-21 60.5q0 40 24.5 64t60.5 24q33 0 59 -23.5t26 -64.5q0 -35 -22.5 -61.5t-62.5 -26.5z"/>
<glyph glyph-name="edotaccent" unicode="ė" horiz-adv-x="1177" d="M606 -4q-100 0 -193.5 33t-165.5 99t-114 163.5t-42 222.5v9q0 227 121 358q141 161 393 169q228 0 355 -141q116 -130 129 -348q4 -38 4 -76h-886q7 -94 40.5 -167.5t87.5 -122.5t125.5 -74t153.5 -25q206 0 339 139l67 -69q-159 -170 -414 -170zM986 581 q-17 252 -215 340q-70 29 -166 29q-123 0 -206.5 -47.5t-131 -130.5t-60.5 -191h779zM593 1259q-44 0 -65 27.5t-21 60.5q0 35 22.5 62t63.5 27q35 0 60 -24t25 -65q0 -33 -21.5 -60.5t-63.5 -27.5z"/>
<glyph glyph-name="Eogonek" unicode="Ę" horiz-adv-x="1297" d="M1024 -430q-13 0 -37.5 6.5t-50.5 20.5q-14 0 -23 4q-61 39 -61 132q0 139 182 267h-807v1399h924v-112h-804v-519h718v-111h-718v-545h831v-112q-216 -140 -216 -250q0 -84 83 -84q46 0 96 29l35 -81q-80 -44 -152 -44z"/>
<glyph glyph-name="eogonek" unicode="ę" horiz-adv-x="1177" d="M765 -430q-34 0 -65.5 10.5t-55 32t-37 54.5t-13.5 78q0 122 139 266q-56 -15 -127 -15q-100 0 -194 33.5t-165.5 99.5t-113.5 163t-42 222v9q0 128 40 224.5t109.5 162.5t163 101t201.5 39q226 0 356 -143q119 -130 130 -357q2 -32 2 -65h-886q7 -88 37.5 -159.5 t83 -122.5t124.5 -79t162 -28q206 0 339 139l67 -69q-41 -44 -93 -80q-223 -194 -223 -331q0 -87 84 -89q44 0 95 29l35 -81q-82 -44 -153 -44zM986 581q-17 252 -215 340q-70 29 -166 29q-123 0 -206.5 -47.5t-131 -130.5t-60.5 -191h779z"/>
<glyph glyph-name="Ecaron" unicode="Ě" horiz-adv-x="1297" d="M1178 0h-951v1399h924v-112h-804v-519h718v-111h-718v-545h831v-112zM745 1541h-134l-202 246h121l148 -159l148 159h121z"/>
<glyph glyph-name="ecaron" unicode="ě" horiz-adv-x="1177" d="M606 -4q-100 0 -193.5 33t-165.5 99t-114 163.5t-42 222.5v9q0 227 121 358q141 161 393 169q228 0 355 -141q116 -130 129 -348q4 -38 4 -76h-886q7 -94 40.5 -167.5t87.5 -122.5t125.5 -74t153.5 -25q206 0 339 139l67 -69q-159 -170 -414 -170zM986 581 q-17 252 -215 340q-70 29 -166 29q-123 0 -206.5 -47.5t-131 -130.5t-60.5 -191h779zM659 1240h-133l-203 245h122l148 -158l148 158h121z"/>
<glyph glyph-name="Gcircumflex" unicode="Ĝ" horiz-adv-x="1511" d="M813 -4q-312 0 -519 208.5t-207 483.5q0 54 5 99q14 134 85 257q93 165 251 257q176 101 390 101q287 0 504 -188l-70 -86q-191 164 -434 164q-253 0 -432 -173.5t-179 -418.5q0 -244 179 -421q181 -173 433 -173q210 0 393 132l-1 406h-399v112h508v-578 q-220 -182 -507 -182zM975 1541h-122l-148 159l-148 -159h-121l203 246h133z"/>
<glyph glyph-name="gcircumflex" unicode="ĝ" horiz-adv-x="1268" d="M579 -391q-236 0 -427 163l57 85q160 -145 366 -145q114 0 205.5 44.5t145 133t53.5 219.5v179q-117 -245 -408 -245q-133 0 -242 59t-173.5 171.5t-64.5 273.5q0 160 63.5 270.5t171 169t243.5 63.5q297 -7 410 -245v241h117v-886q0 -248 -113 -390q-129 -161 -404 -161 zM590 141q111 0 199 48.5t139 139t51 216.5q0 116 -49 208t-136.5 145t-203.5 53q-170 0 -276 -106t-113 -300q3 -163 90 -275q101 -129 299 -129zM871 1240h-121l-148 159l-148 -159h-121l202 245h134z"/>
<glyph glyph-name="Gbreve" unicode="Ğ" horiz-adv-x="1511" d="M813 -4q-312 0 -519 208.5t-207 483.5q0 54 5 99q14 134 85 257q93 165 251 257q176 101 390 101q287 0 504 -188l-70 -86q-191 164 -434 164q-253 0 -432 -173.5t-179 -418.5q0 -244 179 -421q181 -173 433 -173q210 0 393 132l-1 406h-399v112h508v-578 q-220 -182 -507 -182zM705 1536q-96 0 -161 60.5t-78 181.5h87q7 -70 43.5 -112t108.5 -42q130 0 152 154h88q-10 -109 -70 -175.5t-170 -66.5z"/>
<glyph glyph-name="gbreve" unicode="ğ" horiz-adv-x="1268" d="M579 -391q-236 0 -427 163l57 85q160 -145 366 -145q114 0 205.5 44.5t145 133t53.5 219.5v179q-117 -245 -408 -245q-133 0 -242 59t-173.5 171.5t-64.5 273.5q0 160 63.5 270.5t171 169t243.5 63.5q297 -7 410 -245v241h117v-886q0 -248 -113 -390q-129 -161 -404 -161 zM590 141q111 0 199 48.5t139 139t51 216.5q0 116 -49 208t-136.5 145t-203.5 53q-170 0 -276 -106t-113 -300q3 -163 90 -275q101 -129 299 -129zM602 1230q-96 0 -161.5 60.5t-77.5 181.5h86q7 -70 44 -112t109 -42q131 0 151 154h88q-10 -109 -70 -175.5t-169 -66.5z"/>
<glyph glyph-name="Gdotaccent" unicode="Ġ" horiz-adv-x="1511" d="M813 -4q-312 0 -519 208.5t-207 483.5q0 54 5 99q14 134 85 257q93 165 251 257q176 101 390 101q287 0 504 -188l-70 -86q-191 164 -434 164q-253 0 -432 -173.5t-179 -418.5q0 -244 179 -421q181 -173 433 -173q210 0 393 132l-1 406h-399v112h508v-578 q-220 -182 -507 -182zM705 1537q-43 0 -64 27.5t-21 60.5q0 41 25 64.5t60 23.5q34 0 60 -23.5t26 -64.5q0 -33 -21.5 -60.5t-64.5 -27.5z"/>
<glyph glyph-name="gdotaccent" unicode="ġ" horiz-adv-x="1268" d="M579 -391q-236 0 -427 163l57 85q160 -145 366 -145q114 0 205.5 44.5t145 133t53.5 219.5v179q-117 -245 -408 -245q-133 0 -242 59t-173.5 171.5t-64.5 273.5q0 160 63.5 270.5t171 169t243.5 63.5q297 -7 410 -245v241h117v-886q0 -248 -113 -390q-129 -161 -404 -161 zM590 141q111 0 199 48.5t139 139t51 216.5q0 116 -49 208t-136.5 145t-203.5 53q-170 0 -276 -106t-113 -300q3 -163 90 -275q101 -129 299 -129zM602 1259q-43 0 -64 27.5t-21 60.5q0 36 22 62.5t63 26.5q35 0 60 -24t25 -65q0 -33 -21 -60.5t-64 -27.5z"/>
<glyph glyph-name="uni0122" unicode="Ģ" horiz-adv-x="1511" d="M813 -4q-312 0 -519 208.5t-207 483.5q0 54 5 99q14 134 85 257q93 165 251 257q176 101 390 101q287 0 504 -188l-70 -86q-191 164 -434 164q-253 0 -432 -173.5t-179 -418.5q0 -244 179 -421q181 -173 433 -173q210 0 393 132l-1 406h-399v112h508v-578 q-220 -182 -507 -182zM701 -432h-90l76 309h112z"/>
<glyph glyph-name="uni0123" unicode="ģ" horiz-adv-x="1268" d="M579 -391q-236 0 -427 163l57 85q160 -145 366 -145q114 0 205.5 44.5t145 133t53.5 219.5v179q-117 -245 -408 -245q-133 0 -242 59t-173.5 171.5t-64.5 273.5q0 160 63.5 270.5t171 169t243.5 63.5q297 -7 410 -245v241h117v-886q0 -248 -113 -390q-129 -161 -404 -161 zM590 141q111 0 199 48.5t139 139t51 216.5q0 116 -49 208t-136.5 145t-203.5 53q-170 0 -276 -106t-113 -300q3 -163 90 -275q101 -129 299 -129zM649 1227h-112l98 309h90z"/>
<glyph glyph-name="Hcircumflex" unicode="Ĥ" horiz-adv-x="1591" d="M1365 0h-120v642h-898v-642h-120v1399h120v-646h898v646h120v-1399zM1069 1541h-121l-148 159l-148 -159h-121l202 246h134z"/>
<glyph glyph-name="hcircumflex" unicode="ĥ" horiz-adv-x="1316" d="M537 1678h-121l-148 159l-148 -159h-121l202 245h134zM1149 0h-118v614q0 160 -88 241.5t-232 81.5q-183 -13 -283.5 -121t-100.5 -303v-513h-117v1484h117v-695q112 258 420 261q142 0 230.5 -53.5t130 -146t41.5 -209.5v-641z"/>
<glyph glyph-name="Hbar" unicode="Ħ" horiz-adv-x="1591" d="M1365 0h-120v642h-898v-642h-120v1051h-152v82h152v266h120v-266h898v266h120v-266h155v-82h-155v-1051zM1245 753v298h-898v-298h898z"/>
<glyph glyph-name="hbar" unicode="ħ" horiz-adv-x="1316" d="M1149 0h-118v598q0 153 -82.5 238t-237.5 85q-124 0 -209.5 -54t-130 -150t-44.5 -220v-497h-117v1213h-152v80h152v191h117v-191h463v-80h-463v-439q105 259 420 259q140 0 229 -53t131 -145.5t42 -209.5v-625z"/>
<glyph glyph-name="Itilde" unicode="Ĩ" horiz-adv-x="573" d="M421 1538q-43 0 -115 42q-30 16 -56 32q-56 31 -89 31q-22 0 -36 -13q-41 -16 -41 -84h-86q0 206 153 206q26 0 55.5 -13t58.5 -29t56 -32t45 -21q25 -10 43 -10q22 0 37 13q41 17 41 84h86q0 -99 -37 -152.5t-115 -53.5zM347 0h-120v1399h120v-1399z"/>
<glyph glyph-name="itilde" unicode="ĩ" horiz-adv-x="516" d="M374 1233q-25 0 -57 18t-63 39q-36 24 -60 35q-24 14 -41 14q-9 0 -15 -3q-40 -17 -41 -95h-85q0 206 133 206q34 -2 63.5 -19t55.5 -36q33 -26 59 -35q27 -15 42 -15q53 0 56 97h85q0 -206 -132 -206zM316 0h-116v1046h116v-1046z"/>
<glyph glyph-name="Imacron" unicode="Ī" horiz-adv-x="573" d="M557 1551h-544v84h544v-84zM347 0h-120v1399h120v-1399z"/>
<glyph glyph-name="imacron" unicode="ī" horiz-adv-x="516" d="M488 1305h-465v84h465v-84zM316 0h-116v1046h116v-1046z"/>
<glyph glyph-name="Ibreve" unicode="Ĭ" horiz-adv-x="573" d="M287 1536q-96 0 -161.5 60.5t-78.5 181.5h87q7 -70 44 -112t109 -42q131 0 151 154h88q-10 -109 -70 -175.5t-169 -66.5zM347 0h-120v1399h120v-1399z"/>
<glyph glyph-name="ibreve" unicode="ĭ" horiz-adv-x="516" d="M257 1230q-96 0 -161 60.5t-78 181.5h87q7 -70 43.5 -112t108.5 -42q130 0 152 154h88q-10 -109 -70 -175.5t-170 -66.5zM316 0h-116v1046h116v-1046z"/>
<glyph glyph-name="Iogonek" unicode="Į" horiz-adv-x="573" d="M193 -430q-14 0 -38.5 6.5t-49.5 20.5q-38 15 -61 49t-23 86q0 150 206 285v1382h120v-1399q-216 -139 -216 -250q0 -84 82 -84q47 0 97 29l35 -81q-82 -44 -152 -44z"/>
<glyph glyph-name="iogonek" unicode="į" horiz-adv-x="516" d="M162 -430q-75 0 -123.5 39t-48.5 124q0 149 210 286v1027h116v-1046q-216 -140 -216 -250q0 -84 83 -84q46 0 96 29l35 -81q-80 -44 -152 -44zM257 1259q-43 0 -64 27.5t-21 60.5q0 36 22 62.5t63 26.5q34 0 60 -24t26 -65q0 -33 -21.5 -60.5t-64.5 -27.5z"/>
<glyph glyph-name="Idotaccent" unicode="İ" horiz-adv-x="573" d="M287 1537q-44 0 -65 27.5t-21 60.5q0 40 25 64t61 24q33 0 59 -23.5t26 -64.5q0 -35 -22.5 -61.5t-62.5 -26.5zM347 0h-120v1399h120v-1399z"/>
<glyph glyph-name="dotlessi" unicode="ı" horiz-adv-x="516" d="M316 0h-116v1046h116v-1046z"/>
<glyph glyph-name="IJ" unicode="Ĳ" horiz-adv-x="1523" d="M347 0h-120v1399h120v-1399zM950 -4q-225 0 -375 197l63 92q140 -170 311 -170q251 0 261 298v874h-508v112h629v-989q0 -207 -101.5 -310.5t-279.5 -103.5z"/>
<glyph glyph-name="ij" unicode="ĳ" horiz-adv-x="999" d="M257 1259q-43 0 -64 27.5t-21 60.5q0 36 22 62.5t63 26.5q34 0 60 -24t26 -65q0 -33 -21.5 -60.5t-64.5 -27.5zM316 0h-116v1046h116v-1046zM557 -390q-86 4 -154 32l30 93q46 -18 104 -22q172 2 172 245v1088h117v-1103q0 -327 -269 -333zM767 1259q-43 0 -64 27.5 t-21 60.5q0 36 22 62.5t63 26.5q34 0 60 -24t26 -65q0 -33 -21.5 -60.5t-64.5 -27.5z"/>
<glyph glyph-name="Jcircumflex" unicode="Ĵ" horiz-adv-x="950" d="M377 -4q-226 0 -375 197l63 92q140 -170 310 -170q252 0 262 298v874h-508v112h629v-989q0 -208 -102.5 -311t-278.5 -103zM705 1541h-121l-148 159l-148 -159h-121l202 246h134z"/>
<glyph glyph-name="jcircumflex" unicode="ĵ" horiz-adv-x="483" d="M41 -390q-85 4 -154 32l30 93q46 -18 104 -22q172 2 172 245v1088h117v-1103q0 -327 -269 -333zM521 1240h-122l-148 159l-148 -159h-121l203 245h133z"/>
<glyph glyph-name="uni0136" unicode="Ķ" horiz-adv-x="1379" d="M1329 0h-147l-544 691l-291 -318v-373h-120v1399h120v-867l796 867h146l-566 -616zM645 -432h-90l76 309h112z"/>
<glyph glyph-name="uni0137" unicode="ķ" horiz-adv-x="1123" d="M1097 0h-140l-384 557l-246 -252v-305h-117v1484h117v-1023l581 585h141l-394 -404zM586 -432h-89l76 309h111z"/>
<glyph glyph-name="kgreenlandic" unicode="ĸ" horiz-adv-x="1115" d="M1090 0h-140l-385 557l-249 -256v-301h-116v1046h116v-588l585 588h141l-394 -404z"/>
<glyph glyph-name="Lacute" unicode="Ĺ" horiz-adv-x="1017" d="M327 1537l-108 14l241 243l119 -55zM965 0h-738v1399h120v-1287h618v-112z"/>
<glyph glyph-name="lacute" unicode="ĺ" horiz-adv-x="559" d="M268 1674l-108 14l241 243l120 -55zM377 -4q-17 0 -44 9t-57 30q-91 40 -93 193v1256h115v-1244q0 -135 103 -135q56 0 114 50l28 -93q-84 -66 -166 -66z"/>
<glyph glyph-name="uni013B" unicode="Ļ" horiz-adv-x="1017" d="M965 0h-738v1399h120v-1287h618v-112zM557 -432h-90l76 309h112z"/>
<glyph glyph-name="uni013C" unicode="ļ" horiz-adv-x="559" d="M377 -4q-17 0 -44 9t-57 30q-91 40 -93 193v1256h115v-1244q0 -135 103 -135q56 0 114 50l28 -93q-84 -66 -166 -66zM327 -432h-89l76 309h111z"/>
<glyph glyph-name="Lcaron" unicode="Ľ" horiz-adv-x="1017" d="M965 0h-738v1399h120v-1287h618v-112zM938 1023h-85v376h112z"/>
<glyph glyph-name="lcaron" unicode="ľ" horiz-adv-x="605" d="M378 -4q-17 0 -44 9t-57 30q-91 40 -93 193v1256h115v-1244q0 -135 103 -135q56 0 114 50l29 -93q-84 -66 -167 -66zM565 1107h-86v377h112z"/>
<glyph glyph-name="Ldot" unicode="Ŀ" horiz-adv-x="1017" d="M965 0h-738v1399h120v-1287h618v-112zM791 701q-43 0 -64 27.5t-21 60.5q0 36 22 63t63 27q40 0 63 -27t23 -63q0 -33 -22.5 -60.5t-63.5 -27.5z"/>
<glyph glyph-name="ldot" unicode="ŀ" horiz-adv-x="559" d="M377 -4q-17 0 -44 9t-57 30q-91 40 -93 193v1256h115v-1244q0 -135 103 -135q56 0 114 50l28 -93q-84 -66 -166 -66zM541 708q-43 0 -64 27.5t-21 60.5q0 36 22 62.5t63 26.5t63.5 -27t22.5 -62q0 -33 -21.5 -60.5t-64.5 -27.5z"/>
<glyph glyph-name="Lslash" unicode="Ł" horiz-adv-x="1058" d="M1005 0h-738v681l-212 -115v85l212 115v633h120v-567l249 136v-85l-249 -136v-636h618v-111z"/>
<glyph glyph-name="lslash" unicode="ł" horiz-adv-x="711" d="M491 -4q-52 0 -96 23.5t-71 74.5t-27 134v441l-213 -116v94l213 116v721h116v-659l254 139v-94l-254 -139v-491q0 -135 98 -135q60 0 118 50l29 -93q-82 -66 -167 -66z"/>
<glyph glyph-name="Nacute" unicode="Ń" horiz-adv-x="1593" d="M1365 0h-130l-888 1213v-1213h-120v1399h130l889 -1212v1212h119v-1399zM850 1537l-108 14l241 243l120 -55z"/>
<glyph glyph-name="nacute" unicode="ń" horiz-adv-x="1304" d="M1137 0h-118v614q0 160 -88 241.5t-232 81.5q-355 -25 -382 -374v-563h-117v1046h117v-252q113 251 418 256q142 0 230.5 -53.5t130 -146t41.5 -209.5v-641zM713 1236l-108 14l242 243l119 -55z"/>
<glyph glyph-name="uni0145" unicode="Ņ" horiz-adv-x="1593" d="M1365 0h-130l-888 1213v-1213h-120v1399h130l889 -1212v1212h119v-1399zM751 -432h-89l76 309h111z"/>
<glyph glyph-name="uni0146" unicode="ņ" horiz-adv-x="1304" d="M1137 0h-118v614q0 160 -88 241.5t-232 81.5q-355 -25 -382 -374v-563h-117v1046h117v-252q113 251 418 256q142 0 230.5 -53.5t130 -146t41.5 -209.5v-641zM619 -432h-89l76 309h111z"/>
<glyph glyph-name="Ncaron" unicode="Ň" horiz-adv-x="1593" d="M1365 0h-130l-888 1213v-1213h-120v1399h130l889 -1212v1212h119v-1399zM866 1541h-133l-203 246h121l148 -159l148 159h122z"/>
<glyph glyph-name="ncaron" unicode="ň" horiz-adv-x="1304" d="M1137 0h-118v614q0 160 -88 241.5t-232 81.5q-355 -25 -382 -374v-563h-117v1046h117v-252q113 251 418 256q142 0 230.5 -53.5t130 -146t41.5 -209.5v-641zM753 1240h-133l-203 245h122l148 -158l148 158h121z"/>
<glyph glyph-name="napostrophe" unicode="ŉ" horiz-adv-x="1447" d="M145 880h-81l6 519h96zM1280 0h-117v614q0 107 -40.5 179t-112.5 108t-168 36q-182 -13 -275.5 -109t-105.5 -265v-563h-118v1046h118v-252q113 251 417 256q142 0 230.5 -53.5t130 -146t41.5 -209.5v-641z"/>
<glyph glyph-name="Eng" unicode="Ŋ" horiz-adv-x="1593" d="M983 -399q-217 0 -365 180l61 92q138 -152 303 -152q238 0 263 279h-10l-888 1210v-1210h-120v1399h130l889 -1211v1211h119v-1399q0 -108 -38.5 -198.5t-122.5 -145.5t-221 -55z"/>
<glyph glyph-name="eng" unicode="ŋ" horiz-adv-x="1304" d="M859 -391q-115 0 -212 72l46 94q79 -58 165 -58q161 0 161 222v675q0 153 -82.5 238t-237.5 85q-355 -25 -382 -374v-563h-117v1046h117v-252q114 251 418 256q139 0 228 -52.5t131.5 -145t42.5 -211.5v-690q0 -168 -76 -255t-202 -87z"/>
<glyph glyph-name="Omacron" unicode="Ō" horiz-adv-x="1629" d="M823 -10h-10q-314 0 -520 211t-206 498q0 307 212 506q214 205 519 205q309 0 516 -208q106 -104 157.5 -227t51.5 -278q0 -299 -213.5 -503t-506.5 -204zM815 101q249 0 427 175.5t178 425.5q0 245 -177.5 420.5t-427.5 175.5t-428.5 -174t-178.5 -422q0 -251 180 -426 q183 -175 427 -175zM1127 1551h-626v84h626v-84z"/>
<glyph glyph-name="omacron" unicode="ō" horiz-adv-x="1228" d="M614 -4q-102 0 -195 31.5t-167 97.5t-119 171q-42 99 -42 229q0 163 70.5 280.5t189 181t263.5 63.5q98 0 191.5 -31.5t168 -96t119 -163.5t44.5 -234q0 -155 -66 -274.5t-183.5 -187t-273.5 -67.5zM614 100q75 0 148 24t130.5 75t92.5 131.5t35 192.5q0 179 -104 297 q-112 125 -302 125q-82 0 -155.5 -26.5t-129.5 -79t-88.5 -132t-32.5 -184.5v-8q0 -105 34 -182.5t91 -130t130 -77.5t151 -25zM885 1305h-545v84h545v-84z"/>
<glyph glyph-name="Obreve" unicode="Ŏ" horiz-adv-x="1629" d="M823 -10h-10q-314 0 -520 211t-206 498q0 307 212 506q214 205 519 205q309 0 516 -208q106 -104 157.5 -227t51.5 -278q0 -299 -213.5 -503t-506.5 -204zM815 101q249 0 427 175.5t178 425.5q0 245 -177.5 420.5t-427.5 175.5t-428.5 -174t-178.5 -422q0 -251 180 -426 q183 -175 427 -175zM815 1536q-96 0 -161 60.5t-78 181.5h87q7 -70 43.5 -112t108.5 -42q130 0 152 154h88q-10 -109 -70 -175.5t-170 -66.5z"/>
<glyph glyph-name="obreve" unicode="ŏ" horiz-adv-x="1228" d="M614 -4q-102 0 -195 31.5t-167 97.5t-119 171q-42 99 -42 229q0 163 70.5 280.5t189 181t263.5 63.5q98 0 191.5 -31.5t168 -96t119 -163.5t44.5 -234q0 -155 -66 -274.5t-183.5 -187t-273.5 -67.5zM614 100q75 0 148 24t130.5 75t92.5 131.5t35 192.5q0 179 -104 297 q-112 125 -302 125q-82 0 -155.5 -26.5t-129.5 -79t-88.5 -132t-32.5 -184.5v-8q0 -105 34 -182.5t91 -130t130 -77.5t151 -25zM614 1230q-96 0 -161.5 60.5t-77.5 181.5h86q7 -70 44 -112t109 -42q131 0 151 154h88q-10 -109 -70 -175.5t-169 -66.5z"/>
<glyph glyph-name="Ohungarumlaut" unicode="Ő" horiz-adv-x="1629" d="M823 -10h-10q-314 0 -520 211t-206 498q0 307 212 506q214 205 519 205q309 0 516 -208q106 -104 157.5 -227t51.5 -278q0 -299 -213.5 -503t-506.5 -204zM815 101q249 0 427 175.5t178 425.5q0 245 -177.5 420.5t-427.5 175.5t-428.5 -174t-178.5 -422q0 -251 180 -426 q183 -175 427 -175zM691 1537l-94 13l180 249l100 -51zM967 1537l-95 13l181 249l99 -51z"/>
<glyph glyph-name="ohungarumlaut" unicode="ő" horiz-adv-x="1228" d="M614 -4q-102 0 -195 31.5t-167 97.5t-119 171q-42 99 -42 229q0 163 70.5 280.5t189 181t263.5 63.5q98 0 191.5 -31.5t168 -96t119 -163.5t44.5 -234q0 -155 -66 -274.5t-183.5 -187t-273.5 -67.5zM614 100q75 0 148 24t130.5 75t92.5 131.5t35 192.5q0 179 -104 297 q-112 125 -302 125q-82 0 -155.5 -26.5t-129.5 -79t-88.5 -132t-32.5 -184.5v-8q0 -105 34 -182.5t91 -130t130 -77.5t151 -25zM490 1236l-95 13l181 249l99 -51zM765 1236l-94 13l180 249l100 -51z"/>
<glyph glyph-name="OE" unicode="Œ" horiz-adv-x="2185" d="M2065 0h-1254q-307 0 -516 205q-103 102 -155.5 224.5t-52.5 273.5q0 295 213 496q215 200 511 200h1228v-112h-806v-519h719v-111h-719v-545h832v-112zM1114 107v1181h-299q-238 0 -409 -150q-199 -175 -199 -439q0 -169 80.5 -301.5t225.5 -212.5q136 -75 302 -75z"/>
<glyph glyph-name="oe" unicode="œ" horiz-adv-x="2122" d="M1539 -4q-183 0 -296.5 82.5t-164.5 225.5q-65 -159 -185.5 -233.5t-278.5 -74.5q-99 0 -191.5 30.5t-166.5 95.5t-121 169q-44 99 -44 234q0 164 69.5 281.5t188 180.5t265.5 63q182 0 296 -82t168 -225q59 144 172 225.5t286 81.5q157 0 269 -67.5t172.5 -190.5 t60.5 -289h-904q19 -200 133 -303.5t278 -103.5q206 0 342 139l66 -69q-159 -170 -414 -170zM614 100q70 0 141.5 22t131.5 71.5t96.5 130.5t36.5 199q0 117 -47.5 213t-138.5 152.5t-220 56.5q-73 0 -145 -23.5t-131 -74.5t-94.5 -131t-35.5 -193q0 -111 35.5 -191.5 t94.5 -131.5t131 -75.5t145 -24.5zM1921 578q-8 114 -52 198.5t-126.5 132.5t-206.5 48q-177 0 -279.5 -102t-121.5 -277h786z"/>
<glyph glyph-name="Racute" unicode="Ŕ" horiz-adv-x="1445" d="M1295 0h-138l-315 461q-42 -3 -93 -5h-402v-456h-120v1399h512q257 0 401.5 -118t144.5 -346q0 -351 -331 -451zM739 568q130 0 226.5 39t150 119.5t53.5 205.5q0 180 -113 267.5t-317 87.5h-392v-719h392zM711 1537l-108 14l242 243l119 -55z"/>
<glyph glyph-name="racute" unicode="ŕ" horiz-adv-x="721" d="M317 0h-117v1046h117v-250q105 247 384 254v-115q-184 -6 -277.5 -104t-106.5 -269v-562zM477 1236l-108 14l242 243l119 -55z"/>
<glyph glyph-name="uni0156" unicode="Ŗ" horiz-adv-x="1445" d="M1295 0h-138l-315 461q-42 -3 -93 -5h-402v-456h-120v1399h512q257 0 401.5 -118t144.5 -346q0 -351 -331 -451zM739 568q130 0 226.5 39t150 119.5t53.5 205.5q0 180 -113 267.5t-317 87.5h-392v-719h392zM681 -432h-90l76 309h112z"/>
<glyph glyph-name="uni0157" unicode="ŗ" horiz-adv-x="721" d="M216 -432h-89l76 309h111zM317 0h-117v1046h117v-250q105 247 384 254v-115q-184 -6 -277.5 -104t-106.5 -269v-562z"/>
<glyph glyph-name="Rcaron" unicode="Ř" horiz-adv-x="1445" d="M1295 0h-138l-315 461q-42 -3 -93 -5h-402v-456h-120v1399h512q257 0 401.5 -118t144.5 -346q0 -351 -331 -451zM739 568q130 0 226.5 39t150 119.5t53.5 205.5q0 180 -113 267.5t-317 87.5h-392v-719h392zM727 1541h-133l-203 246h122l148 -159l148 159h121z"/>
<glyph glyph-name="rcaron" unicode="ř" horiz-adv-x="721" d="M517 1240h-133l-203 245h122l148 -158l148 158h121zM317 0h-117v1046h117v-250q105 247 384 254v-115q-184 -6 -277.5 -104t-106.5 -269v-562z"/>
<glyph glyph-name="Sacute" unicode="Ś" horiz-adv-x="1210" d="M587 -10q-304 0 -517 210l57 101q208 -194 461 -194q77 0 143 15.5t115 47t77 78t28 109.5q-1 140 -111 206q-116 64 -257 103q-120 36 -195 68q-144 61 -185 134q-54 87 -54 198q0 90 38.5 155.5t103.5 107.5t150.5 62t178.5 20q227 0 420 -120l-52 -106 q-90 54 -182 81.5t-193 27.5q-129 0 -220 -46q-95 -51 -110 -144l-3 -42l1 -14q5 -77 55.5 -130.5t154.5 -94.5q57 -23 115 -41t115.5 -37.5t113.5 -43t108 -56.5q130 -81 139 -283q0 -85 -34 -154t-98.5 -117.5t-156.5 -74.5t-206 -26zM627 1537l-108 14l242 243l119 -55z "/>
<glyph glyph-name="sacute" unicode="ś" horiz-adv-x="889" d="M446 -4q-230 0 -393 147l49 86q151 -134 348 -134q97 0 168 40t85 135q0 59 -40 96q-60 75 -226 117q-139 34 -243 108q-81 58 -86 187q0 98 50.5 158t131.5 87.5t171 27.5q179 0 316 -88l-46 -92q-125 79 -276 79q-69 0 -122 -16t-83 -52t-30 -95q0 -56 34 -92t93 -60.5 t136 -45.5q76 -21 155.5 -56.5t130.5 -89.5q50 -62 50 -159q0 -148 -116 -223q-102 -65 -257 -65zM475 1236l-108 14l242 243l119 -55z"/>
<glyph glyph-name="Scircumflex" unicode="Ŝ" horiz-adv-x="1210" d="M587 -10q-304 0 -517 210l57 101q208 -194 461 -194q77 0 143 15.5t115 47t77 78t28 109.5q-1 140 -111 206q-116 64 -257 103q-120 36 -195 68q-144 61 -185 134q-54 87 -54 198q0 90 38.5 155.5t103.5 107.5t150.5 62t178.5 20q227 0 420 -120l-52 -106 q-90 54 -182 81.5t-193 27.5q-129 0 -220 -46q-95 -51 -110 -144l-3 -42l1 -14q5 -77 55.5 -130.5t154.5 -94.5q57 -23 115 -41t115.5 -37.5t113.5 -43t108 -56.5q130 -81 139 -283q0 -85 -34 -154t-98.5 -117.5t-156.5 -74.5t-206 -26zM870 1541h-121l-148 159l-148 -159 h-122l203 246h133z"/>
<glyph glyph-name="scircumflex" unicode="ŝ" horiz-adv-x="889" d="M446 -4q-230 0 -393 147l49 86q151 -134 348 -134q97 0 168 40t85 135q0 59 -40 96q-60 75 -226 117q-139 34 -243 108q-81 58 -86 187q0 98 50.5 158t131.5 87.5t171 27.5q179 0 316 -88l-46 -92q-125 79 -276 79q-69 0 -122 -16t-83 -52t-30 -95q0 -56 34 -92t93 -60.5 t136 -45.5q76 -21 155.5 -56.5t130.5 -89.5q50 -62 50 -159q0 -148 -116 -223q-102 -65 -257 -65zM718 1240h-121l-148 159l-148 -159h-122l203 245h133z"/>
<glyph glyph-name="Scedilla" unicode="Ş" horiz-adv-x="1210" d="M600 -430q-87 0 -166 43l29 80q56 -34 125 -34q60 0 87.5 28.5t27.5 61.5q0 30 -25 57t-85 27h-60l47 157q-305 13 -510 210l57 101q206 -194 461 -194q101 0 183.5 27.5t131 83t48.5 139.5q0 152 -139 221q-107 54 -229 88q-151 44 -234 84.5t-121 84t-56 96.5 q-23 59 -23 135q0 90 38 155t104 107.5t151 62.5t178 20q226 0 420 -120l-52 -106q-182 109 -375 109q-86 0 -162.5 -23t-124 -71.5t-47.5 -127.5q0 -88 47.5 -144.5t154.5 -99.5q75 -31 165 -59q76 -24 152.5 -53t144.5 -71q130 -81 139 -283q0 -112 -52.5 -190 t-145 -122.5t-213.5 -56.5l-34 -101q162 -26 162 -152q0 -72 -51 -121t-148 -49z"/>
<glyph glyph-name="scedilla" unicode="ş" horiz-adv-x="889" d="M421 -430q-87 0 -166 43l30 80q58 -34 124 -34q61 0 88 28t27 62q0 31 -25.5 57.5t-83.5 26.5h-61l49 164q-204 13 -350 146l49 86q150 -134 348 -134q97 0 168 40t85 135q0 68 -48 109q-63 65 -218 104q-80 18 -155.5 53.5t-120.5 82.5q-50 58 -53 159q0 98 51 158 t132 87.5t170 27.5q179 0 316 -88l-46 -92q-125 79 -276 79q-108 0 -171.5 -38.5t-63.5 -124.5q0 -53 31 -87.5t85.5 -59.5t126.5 -46l13 -4q81 -25 158.5 -58t129.5 -83q55 -62 55 -165q0 -91 -42.5 -152.5t-115.5 -94.5t-168 -38l-34 -107q86 -15 124 -57t38 -95 q0 -74 -53 -122t-147 -48z"/>
<glyph glyph-name="Scaron" unicode="Š" horiz-adv-x="1210" d="M587 -10q-304 0 -517 210l57 101q208 -194 461 -194q77 0 143 15.5t115 47t77 78t28 109.5q-1 140 -111 206q-116 64 -257 103q-120 36 -195 68q-144 61 -185 134q-54 87 -54 198q0 90 38.5 155.5t103.5 107.5t150.5 62t178.5 20q227 0 420 -120l-52 -106 q-90 54 -182 81.5t-193 27.5q-129 0 -220 -46q-95 -51 -110 -144l-3 -42l1 -14q5 -77 55.5 -130.5t154.5 -94.5q57 -23 115 -41t115.5 -37.5t113.5 -43t108 -56.5q130 -81 139 -283q0 -85 -34 -154t-98.5 -117.5t-156.5 -74.5t-206 -26zM643 1541h-133l-203 246h122 l148 -159l148 159h121z"/>
<glyph glyph-name="scaron" unicode="š" horiz-adv-x="889" d="M446 -4q-230 0 -393 147l49 86q151 -134 348 -134q97 0 168 40t85 135q0 59 -40 96q-60 75 -226 117q-139 34 -243 108q-81 58 -86 187q0 98 50.5 158t131.5 87.5t171 27.5q179 0 316 -88l-46 -92q-125 79 -276 79q-69 0 -122 -16t-83 -52t-30 -95q0 -56 34 -92t93 -60.5 t136 -45.5q76 -21 155.5 -56.5t130.5 -89.5q50 -62 50 -159q0 -148 -116 -223q-102 -65 -257 -65zM515 1240h-133l-203 245h122l148 -158l148 158h121z"/>
<glyph glyph-name="uni0162" unicode="Ţ" horiz-adv-x="1095" d="M537 -430q-87 0 -166 43l30 80q55 -34 124 -34q60 0 87.5 28t27.5 62q0 31 -25.5 57.5t-83.5 26.5h-61l51 167h-34v1287h-464v112h1050v-112h-466v-1286l2 -1l-34 -108q86 -15 124 -56t38 -96q0 -75 -54 -122.5t-146 -47.5z"/>
<glyph glyph-name="uni0163" unicode="ţ" horiz-adv-x="761" d="M467 -430q-87 0 -166 43l30 80q56 -34 124 -34q62 0 88.5 27t26.5 63q0 30 -25 57t-84 27h-61l49 164q-101 8 -157 79t-56 213v634h-152v95h152v266h116v-266h344v-95h-344v-616q0 -201 153 -202q89 3 172 58l38 -90q-82 -59 -176 -73l-34 -108q85 -15 123.5 -56 t38.5 -96q0 -75 -54 -122.5t-146 -47.5z"/>
<glyph glyph-name="Tcaron" unicode="Ť" horiz-adv-x="1095" d="M607 0h-120v1287h-464v112h1050v-112h-466v-1287zM597 1541h-134l-202 246h121l148 -159l148 159h121z"/>
<glyph glyph-name="tcaron" unicode="ť" horiz-adv-x="761" d="M488 -4q-73 0 -130 30t-89.5 95t-32.5 168v634h-152v95h152v266h116v-266h344v-95h-344v-616q0 -200 149 -202q87 1 176 58l38 -90q-105 -75 -227 -77zM598 1161h-82v323h112z"/>
<glyph glyph-name="Tbar" unicode="Ŧ" horiz-adv-x="1095" d="M607 0h-120v643h-321v80h321v564h-464v112h1050v-112h-466v-564h319v-80h-319v-643z"/>
<glyph glyph-name="tbar" unicode="ŧ" horiz-adv-x="761" d="M488 -4q-71 0 -128 29t-90.5 93.5t-33.5 170.5v264h-153v80h153v290h-152v95h152v266h116v-266h344v-95h-344v-290h343v-80h-343v-246q0 -200 149 -202q87 1 176 58l38 -90q-105 -75 -227 -77z"/>
<glyph glyph-name="Utilde" unicode="Ũ" horiz-adv-x="1536" d="M769 -10q-177 0 -306 66.5t-199.5 195t-70.5 315.5v832h120v-832q0 -125 36.5 -213.5t99.5 -144.5t145.5 -82t174.5 -26q193 0 314 102q140 119 140 364v832h118v-832q0 -282 -152 -429.5t-420 -147.5zM903 1538q-42 0 -114 42l-13 7q-23 12 -44 25q-56 31 -89 31 q-22 0 -36 -13q-41 -16 -41 -84h-86q0 206 153 206q26 0 55.5 -13t58.5 -29t57 -32q27 -16 45 -21q24 -10 42 -10q22 0 37 13q41 17 41 84h86q0 -99 -37 -152.5t-115 -53.5z"/>
<glyph glyph-name="utilde" unicode="ũ" horiz-adv-x="1287" d="M560 -4q-138 0 -225.5 55t-129 148t-41.5 206v641h117v-614q0 -107 40 -178.5t111 -108t164 -36.5q131 13 213.5 69.5t121.5 148t39 206.5v513h117v-1046h-117v259q-108 -259 -410 -263zM779 1235q-29 0 -67.5 18.5t-74.5 39.5q-78 47 -117 47q-22 0 -37 -13 q-41 -15 -41 -84h-86q0 206 153 206q34 0 74 -19.5t78 -42.5t63.5 -32.5t43.5 -9.5q22 0 36 12q41 17 41 84h86q0 -206 -152 -206z"/>
<glyph glyph-name="Umacron" unicode="Ū" horiz-adv-x="1536" d="M769 -10q-177 0 -306 66.5t-199.5 195t-70.5 315.5v832h120v-832q0 -125 36.5 -213.5t99.5 -144.5t145.5 -82t174.5 -26q193 0 314 102q140 119 140 364v832h118v-832q0 -282 -152 -429.5t-420 -147.5zM1081 1551h-626v84h626v-84z"/>
<glyph glyph-name="umacron" unicode="ū" horiz-adv-x="1287" d="M560 -4q-138 0 -225.5 55t-129 148t-41.5 206v641h117v-614q0 -107 40 -178.5t111 -108t164 -36.5q131 13 213.5 69.5t121.5 148t39 206.5v513h117v-1046h-117v259q-108 -259 -410 -263zM915 1305h-544v84h544v-84z"/>
<glyph glyph-name="Ubreve" unicode="Ŭ" horiz-adv-x="1536" d="M769 -10q-177 0 -306 66.5t-199.5 195t-70.5 315.5v832h120v-832q0 -125 36.5 -213.5t99.5 -144.5t145.5 -82t174.5 -26q193 0 314 102q140 119 140 364v832h118v-832q0 -282 -152 -429.5t-420 -147.5zM769 1536q-96 0 -161.5 60.5t-78.5 181.5h87q7 -70 44 -112t109 -42 q131 0 151 154h88q-10 -109 -70 -175.5t-169 -66.5z"/>
<glyph glyph-name="ubreve" unicode="ŭ" horiz-adv-x="1287" d="M560 -4q-138 0 -225.5 55t-129 148t-41.5 206v641h117v-614q0 -107 40 -178.5t111 -108t164 -36.5q131 13 213.5 69.5t121.5 148t39 206.5v513h117v-1046h-117v259q-108 -259 -410 -263zM645 1230q-96 0 -161.5 60.5t-78.5 181.5h87q7 -70 44 -112t109 -42q131 0 151 154 h88q-10 -109 -70 -175.5t-169 -66.5z"/>
<glyph glyph-name="Uring" unicode="Ů" horiz-adv-x="1536" d="M769 -10q-177 0 -306 66.5t-199.5 195t-70.5 315.5v832h120v-832q0 -125 36.5 -213.5t99.5 -144.5t145.5 -82t174.5 -26q193 0 314 102q140 119 140 364v832h118v-832q0 -282 -152 -429.5t-420 -147.5zM768 1514q-82 0 -138.5 55.5t-56.5 137.5q0 48 23.5 92t67 72.5 t104.5 28.5t105.5 -29.5t68 -74t23.5 -89.5q0 -84 -58.5 -138.5t-138.5 -54.5zM768 1586q51 0 90 34.5t39 86.5q0 56 -40.5 88.5t-88.5 32.5q-47 0 -87.5 -32.5t-40.5 -88.5q0 -51 36 -86t92 -35z"/>
<glyph glyph-name="uring" unicode="ů" horiz-adv-x="1287" d="M560 -4q-138 0 -225.5 55t-129 148t-41.5 206v641h117v-614q0 -107 40 -178.5t111 -108t164 -36.5q131 13 213.5 69.5t121.5 148t39 206.5v513h117v-1046h-117v259q-108 -259 -410 -263zM644 1161q-82 0 -138.5 55.5t-56.5 137.5q0 48 23.5 92t67 72.5t104.5 28.5 t105.5 -29.5t68 -74t23.5 -89.5q0 -84 -58.5 -138.5t-138.5 -54.5zM644 1233q51 0 90 34.5t39 86.5q0 56 -40.5 88.5t-88.5 32.5q-47 0 -87.5 -32.5t-40.5 -88.5q0 -51 36 -86t92 -35z"/>
<glyph glyph-name="Uhungarumlaut" unicode="Ű" horiz-adv-x="1536" d="M769 -10q-177 0 -306 66.5t-199.5 195t-70.5 315.5v832h120v-832q0 -125 36.5 -213.5t99.5 -144.5t145.5 -82t174.5 -26q193 0 314 102q140 119 140 364v832h118v-832q0 -282 -152 -429.5t-420 -147.5zM645 1537l-95 13l181 249l99 -51zM920 1537l-95 13l181 249l99 -51z "/>
<glyph glyph-name="uhungarumlaut" unicode="ű" horiz-adv-x="1287" d="M560 -4q-138 0 -225.5 55t-129 148t-41.5 206v641h117v-614q0 -107 40 -178.5t111 -108t164 -36.5q131 13 213.5 69.5t121.5 148t39 206.5v513h117v-1046h-117v259q-108 -259 -410 -263zM521 1236l-95 13l181 249l99 -51zM796 1236l-95 13l181 249l99 -51z"/>
<glyph glyph-name="Uogonek" unicode="Ų" horiz-adv-x="1536" d="M963 -430q-13 0 -38 8t-49 23q-37 17 -60.5 51.5t-23.5 92.5q0 123 137 262q-75 -17 -160 -17q-138 0 -244.5 39.5t-180.5 114t-112.5 181.5t-38.5 242v832h120v-832q0 -124 36.5 -212.5t99 -145t146 -82.5t174.5 -26q93 0 176 26.5t145 82.5t98 145q35 84 35 202v842 h118v-832q0 -319 -207 -473q-232 -192 -232 -339q0 -86 84 -89q44 0 95 29l35 -81q-82 -44 -153 -44z"/>
<glyph glyph-name="uogonek" unicode="ų" horiz-adv-x="1287" d="M933 -430q-73 0 -122.5 38.5t-49.5 124.5q0 149 209 286v240q-108 -258 -410 -263q-138 0 -225.5 55t-129 147.5t-41.5 206.5v641h117v-614q0 -109 41 -180.5t112 -107t162 -35.5q131 13 213.5 69.5t121.5 148t39 206.5v513h117v-1046q-216 -140 -216 -250q0 -84 83 -84 q45 0 97 29l34 -81q-79 -44 -152 -44z"/>
<glyph glyph-name="Wcircumflex" unicode="Ŵ" horiz-adv-x="2035" d="M1548 0h-125l-403 1243l-409 -1243h-124l-472 1399h130l407 -1268l407 1268h122l408 -1269l406 1269h127zM1288 1541h-121l-148 159l-148 -159h-122l203 246h133z"/>
<glyph glyph-name="wcircumflex" unicode="ŵ" horiz-adv-x="1697" d="M1310 0h-123l-329 901l-329 -901h-123l-394 1046h125l332 -925l326 925h125l330 -925l328 925h123zM1122 1240h-121l-148 159l-148 -159h-122l203 245h133z"/>
<glyph glyph-name="Ycircumflex" unicode="Ŷ" horiz-adv-x="1237" d="M682 0h-119v501l-551 898h127l483 -762l477 762h125l-542 -896v-503zM887 1541h-121l-148 159l-148 -159h-121l202 246h134z"/>
<glyph glyph-name="ycircumflex" unicode="ŷ" horiz-adv-x="973" d="M193 -392q-122 0 -210 68l50 94q72 -49 153 -49q134 0 209 172l46 111l-433 1042h125l367 -913l355 913h122l-484 -1196q-107 -242 -300 -242zM763 1240h-121l-148 159l-148 -159h-121l202 245h134z"/>
<glyph glyph-name="Ydieresis" unicode="Ÿ" horiz-adv-x="1237" d="M682 0h-119v501l-551 898h127l483 -762l477 762h125l-542 -896v-503zM457 1537q-39 0 -59.5 26t-20.5 57q0 37 24 60t56 23t56 -22t24 -61q0 -29 -20 -56t-60 -27zM782 1537q-39 0 -59.5 26t-20.5 57q0 37 24 60t56 23t56 -22t24 -61q0 -29 -20 -56t-60 -27z"/>
<glyph glyph-name="Zacute" unicode="Ź" horiz-adv-x="1313" d="M1220 0h-1128v99l967 1188h-940v112h1094v-99l-968 -1188h976zM694 1537l-108 14l241 243l120 -55z"/>
<glyph glyph-name="zacute" unicode="ź" horiz-adv-x="1043" d="M951 -2l-840 2v94l686 850l-668 2v100l807 -1v-94l-687 -850l702 -2v-101zM551 1236l-108 14l242 243l119 -55z"/>
<glyph glyph-name="Zdotaccent" unicode="Ż" horiz-adv-x="1313" d="M1220 0h-1128v99l967 1188h-940v112h1094v-99l-968 -1188h976zM667 1537q-43 0 -64 27.5t-21 60.5q0 41 25 64.5t60 23.5q34 0 60 -23.5t26 -64.5q0 -33 -22.5 -60.5t-63.5 -27.5z"/>
<glyph glyph-name="zdotaccent" unicode="ż" horiz-adv-x="1043" d="M951 -2l-840 2v94l686 850l-668 2v100l807 -1v-94l-687 -850l702 -2v-101zM525 1259q-44 0 -65 27.5t-21 60.5q0 35 22.5 62t63.5 27q35 0 60 -24t25 -65q0 -33 -21.5 -60.5t-63.5 -27.5z"/>
<glyph glyph-name="Zcaron" unicode="Ž" horiz-adv-x="1313" d="M1220 0h-1128v99l967 1188h-940v112h1094v-99l-968 -1188h976zM710 1541h-133l-203 246h121l148 -159l148 159h122z"/>
<glyph glyph-name="zcaron" unicode="ž" horiz-adv-x="1043" d="M951 -2l-840 2v94l686 850l-668 2v100l807 -1v-94l-687 -850l702 -2v-101zM591 1240h-133l-203 245h122l148 -158l148 158h121z"/>
<glyph glyph-name="longs" unicode="ſ" horiz-adv-x="639" d="M342 0h-116v1157q0 114 46.5 190.5t120.5 114.5t156 38q91 -5 174 -48l-33 -98q-65 39 -140 39q-55 0 -102 -24.5t-76.5 -74t-29.5 -125.5v-1169z"/>
<glyph glyph-name="uni018F" unicode="Ə" horiz-adv-x="1572" d="M785 -10q-308 0 -509 214q-101 104 -151 233t-50 290h1290q-18 231 -158 387q-162 184 -424 184q-286 0 -468 -218l-84 85q213 245 554 245q293 0 496.5 -205.5t203.5 -502.5q0 -302 -205 -507t-495 -205zM783 101q241 0 389 144q151 144 187 370h-1156 q21 -149 96.5 -264.5t198.5 -182.5t285 -67z"/>
<glyph glyph-name="florin" unicode="ƒ" horiz-adv-x="671" d="M-57 -392q-112 11 -193 74l43 89q63 -54 142 -60q160 0 186 229l110 896h-132l9 89h133l32 260q50 308 326 319q124 -6 220 -75l-51 -88q-72 56 -159 60q-187 -6 -222 -229l-30 -247h314l-10 -89h-314l-112 -911q-38 -317 -292 -317z"/>
<glyph glyph-name="Ohorn" unicode="Ơ" horiz-adv-x="1683" d="M823 -10h-10q-310 0 -518 209t-208 503q0 298 212.5 503t513.5 205q176 0 321 -70q42 -15 88 -15q74 0 110.5 47t36.5 117q-3 64 -43 122l100 40q48 -83 48 -164q0 -19 -5 -52t-21.5 -68.5t-49.5 -64.5q-45 -41 -121 -53q266 -203 266 -555q0 -296 -213.5 -500 t-506.5 -204zM815 101q249 0 427 175.5t178 425.5q0 245 -177.5 420.5t-427.5 175.5t-428.5 -174t-178.5 -422q0 -251 180 -426q183 -175 427 -175z"/>
<glyph glyph-name="ohorn" unicode="ơ" horiz-adv-x="1280" d="M614 -4q-99 0 -192 31t-167.5 97t-120.5 170q-43 99 -43 231q0 161 69.5 279t187.5 182t266 64t263 -64v1q42 -15 88 -15q52 0 84.5 22.5t47.5 60t15 81.5q-3 64 -43 122l100 40q45 -81 47 -153l-1 -19q-1 -91 -51.5 -154t-165.5 -80q139 -143 139 -367 q0 -155 -66 -274.5t-183.5 -187t-273.5 -67.5zM614 100q75 0 148 24t130.5 75t92.5 131.5t35 192.5q0 179 -104 297q-112 125 -302 125q-82 0 -155.5 -26.5t-129.5 -79t-88.5 -132t-32.5 -184.5v-8q0 -105 34 -182.5t91 -130t130 -77.5t151 -25z"/>
<glyph glyph-name="Uhorn" unicode="Ư" horiz-adv-x="1570" d="M769 -10q-273 0 -424.5 152t-151.5 425v832h120v-781q0 -190 59 -303.5t162 -163.5t235 -50q192 0 314 103q140 119 140 363v832q62 0 106.5 7t68 30.5t23.5 72.5q0 50 -28 106l94 36q31 -74 31 -137q0 -47 -27 -109t-150 -83v-755q0 -282 -151 -429.5t-421 -147.5z"/>
<glyph glyph-name="uhorn" unicode="ư" horiz-adv-x="1290" d="M560 -4q-138 0 -225.5 55t-129 147.5t-41.5 206.5v641h117v-614q0 -111 41.5 -182.5t113 -106t160.5 -34.5q131 13 213.5 69.5t121.5 148t39 206.5v513q93 0 137 22t44 88q0 49 -28 105l94 36q31 -74 31 -136q0 -43 -25.5 -103.5t-135.5 -84.5v-973h-117v259 q-108 -258 -410 -263z"/>
<glyph glyph-name="uni01C4" unicode="Ǆ" horiz-adv-x="2906" d="M786 0h-559v1399h468q122 0 225.5 -14t196 -58t182.5 -131q103 -100 155 -223t52 -276q0 -294 -208 -496q-210 -201 -512 -201zM789 112q247 0 421.5 166.5t174.5 419.5q0 259 -177.5 424t-422.5 165h-438v-1175h442zM2813 0h-1128v99l967 1188h-941v112h1094v-99 l-967 -1188h976zM2303 1541h-134l-202 246h121l148 -159l148 159h121z"/>
<glyph glyph-name="uni01C5" unicode="ǅ" horiz-adv-x="2635" d="M786 0h-559v1399h468q122 0 225.5 -14t196 -58t182.5 -131q103 -100 155 -223t52 -276q0 -294 -208 -496q-210 -201 -512 -201zM789 112q247 0 421.5 166.5t174.5 419.5q0 259 -177.5 424t-422.5 165h-438v-1175h442zM2544 -2l-841 2v94l687 850l-669 2v100l808 -1v-94 l-687 -850l702 -2v-101zM2184 1240h-133l-203 245h121l148 -158l148 158h122z"/>
<glyph glyph-name="uni01C6" unicode="ǆ" horiz-adv-x="2397" d="M598 -7q-145 0 -260 64.5t-181 184t-66 282.5q0 152 62 271.5t175.5 188.5t268.5 69q160 0 266.5 -69.5t163.5 -190.5v691h117v-1484h-117v252q-59 -122 -165 -190.5t-264 -68.5zM618 96q112 0 205 50.5t148.5 146t55.5 228.5q0 116 -50 213.5t-142 156t-217 58.5 q-119 0 -211.5 -54t-145.5 -150t-53 -224q0 -79 23.5 -154t74.5 -136t132 -99q77 -36 180 -36zM2305 -2l-840 2v94l686 850l-668 2v100l807 -1v-94l-687 -850l702 -2v-101zM1945 1240h-133l-203 245h122l148 -158l148 158h121z"/>
<glyph glyph-name="uni01C7" unicode="Ǉ" horiz-adv-x="1967" d="M965 0h-738v1399h120v-1287h618v-112zM1393 -4q-224 0 -374 197l62 92q140 -170 311 -170q254 0 261 298v874h-508v112h630v-989q0 -205 -101.5 -309.5t-280.5 -104.5z"/>
<glyph glyph-name="uni01C8" unicode="ǈ" horiz-adv-x="1500" d="M965 0h-738v1399h120v-1287h618v-112zM1057 -390q-85 4 -154 32l31 93q46 -18 103 -22q172 1 172 245v1088h118v-1103q0 -327 -270 -333zM1268 1259q-43 0 -64 27.5t-21 60.5q0 36 22 62.5t63 26.5q40 0 62.5 -27t22.5 -62t-22 -61.5t-63 -26.5z"/>
<glyph glyph-name="uni01C9" unicode="ǉ" horiz-adv-x="1037" d="M377 -4q-17 0 -44 9t-57 30q-91 40 -93 193v1256h115v-1244q0 -135 103 -135q56 0 114 50l28 -93q-84 -66 -166 -66zM594 -390q-85 4 -154 32l31 93q46 -18 103 -22q172 1 172 245v1088h117v-1103q0 -327 -269 -333zM805 1259q-44 0 -65 27.5t-21 60.5q0 35 22.5 62 t63.5 27q35 0 60 -24t25 -65q0 -33 -21.5 -60.5t-63.5 -27.5z"/>
<glyph glyph-name="uni01CA" unicode="Ǌ" horiz-adv-x="2543" d="M1365 0h-130l-888 1213v-1213h-120v1399h130l889 -1212v1212h119v-1399zM1969 -4q-224 0 -374 197l62 92q141 -170 311 -170q254 0 261 298v874h-508v112h630v-989q0 -205 -101.5 -309.5t-280.5 -104.5z"/>
<glyph glyph-name="uni01CB" unicode="ǋ" horiz-adv-x="2076" d="M1365 0h-130l-888 1213v-1213h-120v1399h130l889 -1212v1212h119v-1399zM1633 -390q-85 4 -154 32l31 93q46 -18 103 -22q172 1 172 245v1088h118v-1041q0 -129 -22.5 -215.5t-82 -131.5t-165.5 -48zM1844 1259q-43 0 -64 27.5t-21 60.5q0 36 22 62.5t63 26.5 q40 0 62.5 -27t22.5 -62t-22 -61.5t-63 -26.5z"/>
<glyph glyph-name="uni01CC" unicode="ǌ" horiz-adv-x="1787" d="M1137 0h-118v614q0 160 -88 241.5t-232 81.5q-355 -25 -382 -374v-563h-117v1046h117v-252q113 251 418 256q142 0 230.5 -53.5t130 -146t41.5 -209.5v-641zM1345 -390q-86 4 -154 32l30 93q46 -18 104 -22q172 1 172 245v1088h117v-1103q0 -327 -269 -333zM1555 1259 q-43 0 -64 27.5t-21 60.5q0 36 22 62.5t63 26.5q40 0 63 -27t23 -62q0 -33 -21.5 -60.5t-64.5 -27.5z"/>
<glyph glyph-name="uni01CD" unicode="Ǎ" horiz-adv-x="1415" d="M1403 0h-132l-170 381h-791l-169 -381h-129l632 1399h125zM1051 493l-348 775l-343 -775h691zM773 1541h-133l-203 246h122l148 -159l148 159h121z"/>
<glyph glyph-name="uni01CE" unicode="ǎ" horiz-adv-x="1144" d="M459 -4h-9q-83 0 -147 25.5t-107.5 68.5t-65 99.5t-21.5 117.5q0 132 100.5 209t289.5 81h359v86q0 59 -17 108t-53.5 84.5t-92.5 55t-134 19.5q-181 0 -344 -129l-52 84q199 145 416 145q102 0 176 -25q217 -77 217 -331l3 -694h-115l-1 187q-133 -191 -402 -191z M480 96q131 0 232.5 61t147.5 192l-1 152h-315q-96 0 -169.5 -16.5t-114.5 -58t-41 -115.5q0 -57 28 -106t86 -79t147 -30zM651 1240h-134l-202 245h121l148 -158l148 158h121z"/>
<glyph glyph-name="uni01CF" unicode="Ǐ" horiz-adv-x="573" d="M347 0h-120v1399h120v-1399zM353 1541h-133l-203 246h122l148 -159l148 159h121z"/>
<glyph glyph-name="uni01D0" unicode="ǐ" horiz-adv-x="516" d="M325 1240h-134l-202 245h121l148 -158l148 158h121zM316 0h-116v1046h116v-1046z"/>
<glyph glyph-name="uni01D1" unicode="Ǒ" horiz-adv-x="1629" d="M823 -10h-10q-314 0 -520 211t-206 498q0 307 212 506q214 205 519 205q309 0 516 -208q106 -104 157.5 -227t51.5 -278q0 -299 -213.5 -503t-506.5 -204zM815 101q249 0 427 175.5t178 425.5q0 245 -177.5 420.5t-427.5 175.5t-428.5 -174t-178.5 -422q0 -251 180 -426 q183 -175 427 -175zM886 1541h-133l-203 246h122l148 -159l148 159h121z"/>
<glyph glyph-name="uni01D2" unicode="ǒ" horiz-adv-x="1228" d="M614 -4q-102 0 -195 31.5t-167 97.5t-119 171q-42 99 -42 229q0 163 70.5 280.5t189 181t263.5 63.5q98 0 191.5 -31.5t168 -96t119 -163.5t44.5 -234q0 -155 -66 -274.5t-183.5 -187t-273.5 -67.5zM614 100q75 0 148 24t130.5 75t92.5 131.5t35 192.5q0 179 -104 297 q-112 125 -302 125q-82 0 -155.5 -26.5t-129.5 -79t-88.5 -132t-32.5 -184.5v-8q0 -105 34 -182.5t91 -130t130 -77.5t151 -25zM681 1240h-134l-202 245h121l148 -158l148 158h121z"/>
<glyph glyph-name="uni01D3" unicode="Ǔ" horiz-adv-x="1536" d="M769 -10q-177 0 -306 66.5t-199.5 195t-70.5 315.5v832h120v-832q0 -125 36.5 -213.5t99.5 -144.5t145.5 -82t174.5 -26q193 0 314 102q140 119 140 364v832h118v-832q0 -282 -152 -429.5t-420 -147.5zM834 1541h-133l-203 246h122l148 -159l148 159h121z"/>
<glyph glyph-name="uni01D4" unicode="ǔ" horiz-adv-x="1287" d="M560 -4q-138 0 -225.5 55t-129 148t-41.5 206v641h117v-614q0 -107 40 -178.5t111 -108t164 -36.5q131 13 213.5 69.5t121.5 148t39 206.5v513h117v-1046h-117v259q-108 -259 -410 -263zM693 1240h-134l-202 245h121l148 -158l148 158h121z"/>
<glyph glyph-name="uni01D5" unicode="Ǖ" horiz-adv-x="1536" d="M769 -10q-177 0 -306 66.5t-199.5 195t-70.5 315.5v832h120v-832q0 -125 36.5 -213.5t99.5 -144.5t145.5 -82t174.5 -26q193 0 314 102q140 119 140 364v832h118v-832q0 -282 -152 -429.5t-420 -147.5zM607 1537q-39 0 -59.5 26t-20.5 57q0 37 24 60t56 23t56 -22t24 -61 q0 -29 -20 -56t-60 -27zM933 1537q-39 0 -59.5 26t-20.5 57q0 37 24 60t56 23t56 -22t24 -61q0 -29 -20 -56t-60 -27zM1080 1854h-626v84h626v-84z"/>
<glyph glyph-name="uni01D6" unicode="ǖ" horiz-adv-x="1287" d="M898 1687h-545v84h545v-84zM560 -4q-138 0 -225.5 55t-129 148t-41.5 206v641h117v-614q0 -107 40 -178.5t111 -108t164 -36.5q131 13 213.5 69.5t121.5 148t39 206.5v513h117v-1046h-117v259q-108 -259 -410 -263zM483 1264q-32 0 -55.5 24t-23.5 57q0 44 25 63.5 t54 19.5t54.5 -19.5t25.5 -63.5q0 -30 -19.5 -55.5t-60.5 -25.5zM807 1264q-40 0 -60 25t-20 56q0 43 24 63t56 20q29 0 54.5 -19.5t25.5 -63.5q0 -31 -19.5 -56t-60.5 -25z"/>
<glyph glyph-name="uni01D7" unicode="Ǘ" horiz-adv-x="1536" d="M769 -10q-177 0 -306 66.5t-199.5 195t-70.5 315.5v832h120v-832q0 -125 36.5 -213.5t99.5 -144.5t145.5 -82t174.5 -26q193 0 314 102q140 119 140 364v832h118v-832q0 -282 -152 -429.5t-420 -147.5zM607 1537q-39 0 -59.5 26t-20.5 57q0 37 24 60t56 23t56 -22t24 -61 q0 -29 -20 -56t-60 -27zM933 1537q-39 0 -59.5 26t-20.5 57q0 37 24 60t56 23t56 -22t24 -61q0 -29 -20 -56t-60 -27zM755 1840l-108 14l241 243l119 -55z"/>
<glyph glyph-name="uni01D8" unicode="ǘ" horiz-adv-x="1287" d="M613 1618l-108 14l242 243l119 -55zM560 -4q-138 0 -225.5 55t-129 148t-41.5 206v641h117v-614q0 -107 40 -178.5t111 -108t164 -36.5q131 13 213.5 69.5t121.5 148t39 206.5v513h117v-1046h-117v259q-108 -259 -410 -263zM483 1264q-32 0 -55.5 24t-23.5 57 q0 44 25 63.5t54 19.5t54.5 -19.5t25.5 -63.5q0 -30 -19.5 -55.5t-60.5 -25.5zM807 1264q-40 0 -60 25t-20 56q0 43 24 63t56 20q29 0 54.5 -19.5t25.5 -63.5q0 -31 -19.5 -56t-60.5 -25z"/>
<glyph glyph-name="uni01D9" unicode="Ǚ" horiz-adv-x="1536" d="M769 -10q-177 0 -306 66.5t-199.5 195t-70.5 315.5v832h120v-832q0 -125 36.5 -213.5t99.5 -144.5t145.5 -82t174.5 -26q193 0 314 102q140 119 140 364v832h118v-832q0 -282 -152 -429.5t-420 -147.5zM607 1537q-39 0 -59.5 26t-20.5 57q0 37 24 60t56 23t56 -22t24 -61 q0 -29 -20 -56t-60 -27zM933 1537q-39 0 -59.5 26t-20.5 57q0 37 24 60t56 23t56 -22t24 -61q0 -29 -20 -56t-60 -27zM834 1844h-133l-203 246h122l148 -159l148 159h121z"/>
<glyph glyph-name="uni01DA" unicode="ǚ" horiz-adv-x="1287" d="M693 1622h-134l-202 245h121l148 -158l148 158h121zM560 -4q-138 0 -225.5 55t-129 148t-41.5 206v641h117v-614q0 -107 40 -178.5t111 -108t164 -36.5q131 13 213.5 69.5t121.5 148t39 206.5v513h117v-1046h-117v259q-108 -259 -410 -263zM483 1264q-32 0 -55.5 24 t-23.5 57q0 44 25 63.5t54 19.5t54.5 -19.5t25.5 -63.5q0 -30 -19.5 -55.5t-60.5 -25.5zM807 1264q-40 0 -60 25t-20 56q0 43 24 63t56 20q29 0 54.5 -19.5t25.5 -63.5q0 -31 -19.5 -56t-60.5 -25z"/>
<glyph glyph-name="uni01DB" unicode="Ǜ" horiz-adv-x="1536" d="M769 -10q-177 0 -306 66.5t-199.5 195t-70.5 315.5v832h120v-832q0 -125 36.5 -213.5t99.5 -144.5t145.5 -82t174.5 -26q193 0 314 102q140 119 140 364v832h118v-832q0 -282 -152 -429.5t-420 -147.5zM607 1537q-39 0 -59.5 26t-20.5 57q0 37 24 60t56 23t56 -22t24 -61 q0 -29 -20 -56t-60 -27zM933 1537q-39 0 -59.5 26t-20.5 57q0 37 24 60t56 23t56 -22t24 -61q0 -29 -20 -56t-60 -27zM779 1840l-252 202l119 55l241 -243z"/>
<glyph glyph-name="uni01DC" unicode="ǜ" horiz-adv-x="1287" d="M638 1618l-253 202l119 55l242 -243zM560 -4q-138 0 -225.5 55t-129 148t-41.5 206v641h117v-614q0 -107 40 -178.5t111 -108t164 -36.5q131 13 213.5 69.5t121.5 148t39 206.5v513h117v-1046h-117v259q-108 -259 -410 -263zM483 1264q-32 0 -55.5 24t-23.5 57 q0 44 25 63.5t54 19.5t54.5 -19.5t25.5 -63.5q0 -30 -19.5 -55.5t-60.5 -25.5zM807 1264q-40 0 -60 25t-20 56q0 43 24 63t56 20q29 0 54.5 -19.5t25.5 -63.5q0 -31 -19.5 -56t-60.5 -25z"/>
<glyph glyph-name="uni01DE" unicode="Ǟ" horiz-adv-x="1415" d="M1403 0h-132l-170 381h-791l-169 -381h-129l632 1399h125zM1051 493l-348 775l-343 -775h691zM1021 1855h-626v84h626v-84zM546 1537q-39 0 -59.5 26t-20.5 57q0 37 24 60t56 23t56 -22t24 -61q0 -29 -20 -56t-60 -27zM871 1537q-39 0 -59.5 26t-20.5 57q0 37 24 60 t56 23t56 -22t24 -61q0 -29 -20 -56t-60 -27z"/>
<glyph glyph-name="uni01DF" unicode="ǟ" horiz-adv-x="1144" d="M459 -4h-9q-83 0 -147 25.5t-107.5 68.5t-65 99.5t-21.5 117.5q0 132 100.5 209t289.5 81h359v86q0 59 -17 108t-53.5 84.5t-92.5 55t-134 19.5q-181 0 -344 -129l-52 84q199 145 416 145q102 0 176 -25q217 -77 217 -331l3 -694h-115l-1 187q-133 -191 -402 -191z M480 96q131 0 232.5 61t147.5 192l-1 152h-315q-96 0 -169.5 -16.5t-114.5 -58t-41 -115.5q0 -57 28 -106t86 -79t147 -30zM487 1292q-51 0 -92.5 18.5t-65.5 45.5v13q14 33 45 48t65 15q96 0 158 -63q0 -28 -16 -57q-40 -20 -94 -20zM427 1405h-64q-17 29 -17 66 q0 19 19.5 28t49 11.5t58.5 2.5l63 -1h25q21 0 134 -4q6 -29 6 -61q0 -18 -5 -36q-134 -6 -269 -6zM714 1227q-33 0 -56 23.5t-23 57.5q0 39 25 59.5t54 20.5q30 0 54.5 -20.5t24.5 -59.5q0 -31 -21.5 -56t-57.5 -25z"/>
<glyph glyph-name="uni01E0" unicode="Ǡ" horiz-adv-x="1415" d="M1403 0h-132l-170 381h-791l-169 -381h-129l632 1399h125zM1051 493l-348 775l-343 -775h691zM1020 1849h-626v84h626v-84zM707 1537q-39 0 -62.5 27t-23.5 61q0 41 25.5 64.5t60.5 23.5q33 0 59 -23.5t26 -64.5q0 -30 -19.5 -59t-65.5 -29z"/>
<glyph glyph-name="uni01E1" unicode="ǡ" horiz-adv-x="1144" d="M459 -4h-9q-83 0 -147 25.5t-107.5 68.5t-65 99.5t-21.5 117.5q0 132 100.5 209t289.5 81h359v86q0 59 -17 108t-53.5 84.5t-92.5 55t-134 19.5q-181 0 -344 -129l-52 84q199 145 416 145q102 0 176 -25q217 -77 217 -331l3 -694h-115l-1 187q-133 -191 -402 -191z M480 96q131 0 232.5 61t147.5 192l-1 152h-315q-96 0 -169.5 -16.5t-114.5 -58t-41 -115.5q0 -57 28 -106t86 -79t147 -30zM856 1679h-545v84h545v-84zM584 1259q-40 0 -63 27t-23 61q0 35 22.5 62t63.5 27q35 0 60 -24t25 -65q0 -30 -19.5 -59t-65.5 -29z"/>
<glyph glyph-name="uni01E2" unicode="Ǣ" horiz-adv-x="2026" d="M1907 0h-952v405h-576l-238 -405h-129l831 1399h1037v-112h-805v-519h720v-111h-720v-545h832v-112zM955 505v790h-52l-466 -790h518zM1461 1551h-626v84h626v-84z"/>
<glyph glyph-name="uni01E3" unicode="ǣ" horiz-adv-x="1965" d="M1384 -4q-117 0 -208.5 36.5t-156 102t-102.5 153.5q-130 -292 -457 -292q-63 0 -125 17t-113 54t-82 95.5t-31 140.5q0 99 51 161t139.5 91t201.5 29h361l-1 99q-9 267 -300 267q-178 0 -359 -129l-37 86q211 143 416 143q298 0 370 -247q76 129 186.5 188t243.5 59 q151 0 263.5 -66t174.5 -188.5t62 -292.5h-900v-43q0 -102 55.5 -184t148.5 -130.5t206 -48.5q205 0 339 140l67 -71q-164 -170 -413 -170zM481 87q280 0 383 268v154h-308q-151 0 -233 -36q-104 -46 -104 -162q0 -98 71 -161t191 -63zM1764 578q-9 110 -52.5 195.5 t-125 134.5t-203.5 49q-167 0 -271 -99t-129 -280h781zM1267 1305h-545v84h545v-84z"/>
<glyph glyph-name="Gcaron" unicode="Ǧ" horiz-adv-x="1511" d="M813 -4q-312 0 -519 208.5t-207 483.5q0 54 5 99q14 134 85 257q93 165 251 257q176 101 390 101q287 0 504 -188l-70 -86q-191 164 -434 164q-253 0 -432 -173.5t-179 -418.5q0 -244 179 -421q181 -173 433 -173q210 0 393 132l-1 406h-399v112h508v-578 q-220 -182 -507 -182zM772 1541h-133l-203 246h121l148 -159l148 159h122z"/>
<glyph glyph-name="gcaron" unicode="ǧ" horiz-adv-x="1268" d="M579 -391q-236 0 -427 163l57 85q160 -145 366 -145q114 0 205.5 44.5t145 133t53.5 219.5v179q-117 -245 -408 -245q-133 0 -242 59t-173.5 171.5t-64.5 273.5q0 160 63.5 270.5t171 169t243.5 63.5q297 -7 410 -245v241h117v-886q0 -248 -113 -390q-129 -161 -404 -161 zM590 141q111 0 199 48.5t139 139t51 216.5q0 116 -49 208t-136.5 145t-203.5 53q-170 0 -276 -106t-113 -300q3 -163 90 -275q101 -129 299 -129zM669 1240h-134l-202 245h121l148 -158l148 158h121z"/>
<glyph glyph-name="uni01E8" unicode="Ǩ" horiz-adv-x="1379" d="M1329 0h-147l-544 691l-291 -318v-373h-120v1399h120v-867l796 867h146l-566 -616zM844 1541h-133l-203 246h122l148 -159l148 159h121z"/>
<glyph glyph-name="uni01E9" unicode="ǩ" horiz-adv-x="1123" d="M1097 0h-140l-384 557l-246 -252v-305h-117v1484h117v-1023l581 585h141l-394 -404zM335 1626h-133l-203 246h122l148 -159l148 159h121z"/>
<glyph glyph-name="uni01EA" unicode="Ǫ" horiz-adv-x="1629" d="M1017 -430q-72 0 -121.5 43t-49.5 132q0 123 141 266q-86 -21 -180 -21q-305 0 -513 210q-207 204 -207 502q0 296 212 503q214 205 522 205q306 0 513 -208q206 -203 209 -492q-4 -225 -104 -382t-268 -247q-215 -192 -215 -326q0 -87 84 -89q46 0 95 29l35 -81 q-83 -44 -153 -44zM815 101q102 0 204 34t178 108l1 -1q103 79 162.5 193.5t59.5 266.5q0 245 -177.5 420.5t-427.5 175.5t-428.5 -174t-178.5 -422q0 -247 180 -426q87 -85 192 -130t235 -45z"/>
<glyph glyph-name="uni01EB" unicode="ǫ" horiz-adv-x="1228" d="M759 -430q-46 0 -85 18.5t-62 57.5t-23 99q0 124 137 264q-49 -13 -112 -13q-101 0 -194 31.5t-167 97.5t-119 170q-43 99 -43 230q0 164 71 282t190 180.5t262 62.5q96 0 188 -30.5t167 -95t123 -166.5q45 -99 45 -233q0 -289 -213 -436q-225 -194 -225 -334 q0 -86 84 -89q45 0 95 29l35 -81q-83 -44 -154 -44zM614 100q75 0 148 24t130.5 75t92.5 131.5t35 192.5q0 179 -104 297q-112 125 -302 125q-82 0 -155.5 -26.5t-129.5 -79t-88.5 -132t-32.5 -184.5v-8q0 -105 34 -182.5t91 -130t130 -77.5t151 -25z"/>
<glyph glyph-name="uni01EC" unicode="Ǭ" horiz-adv-x="1629" d="M1017 -430q-72 0 -121.5 43t-49.5 132q0 123 141 266q-86 -21 -180 -21q-305 0 -513 210q-207 204 -207 502q0 296 212 503q214 205 522 205q306 0 513 -208q206 -203 209 -492q-4 -225 -104 -382t-268 -247q-215 -192 -215 -326q0 -87 84 -89q46 0 95 29l35 -81 q-83 -44 -153 -44zM815 101q102 0 204 34t178 108l1 -1q103 79 162.5 193.5t59.5 266.5q0 245 -177.5 420.5t-427.5 175.5t-428.5 -174t-178.5 -422q0 -247 180 -426q87 -85 192 -130t235 -45zM1132 1551h-626v84h626v-84z"/>
<glyph glyph-name="uni01ED" unicode="ǭ" horiz-adv-x="1228" d="M759 -430q-46 0 -85 18.5t-62 57.5t-23 99q0 124 137 264q-49 -13 -112 -13q-101 0 -194 31.5t-167 97.5t-119 170q-43 99 -43 230q0 164 71 282t190 180.5t262 62.5q96 0 188 -30.5t167 -95t123 -166.5q45 -99 45 -233q0 -289 -213 -436q-225 -194 -225 -334 q0 -86 84 -89q45 0 95 29l35 -81q-83 -44 -154 -44zM614 100q75 0 148 24t130.5 75t92.5 131.5t35 192.5q0 179 -104 297q-112 125 -302 125q-82 0 -155.5 -26.5t-129.5 -79t-88.5 -132t-32.5 -184.5v-8q0 -105 34 -182.5t91 -130t130 -77.5t151 -25zM886 1305h-545v84h545 v-84z"/>
<glyph glyph-name="uni01F0" unicode="ǰ" horiz-adv-x="483" d="M41 -390q-85 4 -154 32l30 93q46 -18 104 -22q172 2 172 245v1088h117v-1103q0 -327 -269 -333zM318 1240h-134l-202 245h121l148 -158l148 158h121z"/>
<glyph glyph-name="uni01F1" unicode="Ǳ" horiz-adv-x="2906" d="M786 0h-559v1399h468q122 0 225.5 -14t196 -58t182.5 -131q103 -100 155 -223t52 -276q0 -294 -208 -496q-210 -201 -512 -201zM789 112q247 0 421.5 166.5t174.5 419.5q0 259 -177.5 424t-422.5 165h-438v-1175h442zM2813 0h-1128v99l967 1188h-940v112h1094v-99 l-968 -1188h976z"/>
<glyph glyph-name="uni01F2" unicode="ǲ" horiz-adv-x="2635" d="M786 0h-559v1399h468q122 0 225.5 -14t196 -58t182.5 -131q103 -100 155 -223t52 -276q0 -294 -208 -496q-210 -201 -512 -201zM789 112q247 0 421.5 166.5t174.5 419.5q0 259 -177.5 424t-422.5 165h-438v-1175h442zM2544 -2l-840 2v94l686 850l-668 2v100l807 -1v-94 l-687 -850l702 -2v-101z"/>
<glyph glyph-name="uni01F3" unicode="ǳ" horiz-adv-x="2397" d="M598 -7q-145 0 -260 64.5t-181 184t-66 282.5q0 152 62 271.5t175.5 188.5t268.5 69q160 0 266.5 -69.5t163.5 -190.5v691h117v-1484h-117v252q-59 -122 -165 -190.5t-264 -68.5zM618 96q112 0 205 50.5t148.5 146t55.5 228.5q0 116 -50 213.5t-142 156t-217 58.5 q-119 0 -211.5 -54t-145.5 -150t-53 -224q0 -79 23.5 -154t74.5 -136t132 -99q77 -36 180 -36zM2305 -2l-840 2v94l686 850l-668 2v100l807 -1v-94l-687 -850l702 -2v-101z"/>
<glyph glyph-name="uni01F4" unicode="Ǵ" horiz-adv-x="1511" d="M813 -4q-312 0 -519 208.5t-207 483.5q0 54 5 99q14 134 85 257q93 165 251 257q176 101 390 101q287 0 504 -188l-70 -86q-191 164 -434 164q-253 0 -432 -173.5t-179 -418.5q0 -244 179 -421q181 -173 433 -173q210 0 393 132l-1 406h-399v112h508v-578 q-220 -182 -507 -182zM692 1537l-108 14l241 243l120 -55z"/>
<glyph glyph-name="uni01F5" unicode="ǵ" horiz-adv-x="1268" d="M579 -391q-236 0 -427 163l57 85q160 -145 366 -145q114 0 205.5 44.5t145 133t53.5 219.5v179q-117 -245 -408 -245q-133 0 -242 59t-173.5 171.5t-64.5 273.5q0 160 63.5 270.5t171 169t243.5 63.5q297 -7 410 -245v241h117v-886q0 -248 -113 -390q-129 -161 -404 -161 zM590 141q111 0 199 48.5t139 139t51 216.5q0 116 -49 208t-136.5 145t-203.5 53q-170 0 -276 -106t-113 -300q3 -163 90 -275q101 -129 299 -129zM581 1236l-108 14l242 243l119 -55z"/>
<glyph glyph-name="uni01F8" unicode="Ǹ" horiz-adv-x="1593" d="M1365 0h-130l-888 1213v-1213h-120v1399h130l889 -1212v1212h119v-1399zM808 1537l-252 202l119 55l241 -243z"/>
<glyph glyph-name="uni01F9" unicode="ǹ" horiz-adv-x="1304" d="M1137 0h-118v614q0 160 -88 241.5t-232 81.5q-355 -25 -382 -374v-563h-117v1046h117v-252q113 251 418 256q142 0 230.5 -53.5t130 -146t41.5 -209.5v-641zM681 1236l-253 202l119 55l242 -243z"/>
<glyph glyph-name="Aringacute" unicode="Ǻ" horiz-adv-x="1415" d="M1403 0h-132l-170 381h-791l-169 -381h-129l632 1399h125zM1051 493l-348 775l-343 -775h691zM707 1514q-83 0 -139.5 55.5t-56.5 137.5q0 50 24.5 94t69 71.5t102.5 27.5q61 0 105.5 -29.5t68 -74t23.5 -89.5q0 -84 -58.5 -138.5t-138.5 -54.5zM707 1586q50 0 89 34 t39 87q0 55 -39 88t-89 33q-47 0 -87.5 -32.5t-40.5 -88.5q0 -51 36 -86t92 -35zM681 1979l-98 32l282 194l99 -70z"/>
<glyph glyph-name="aringacute" unicode="ǻ" horiz-adv-x="1144" d="M459 -4h-9q-83 0 -147 25.5t-107.5 68.5t-65 99.5t-21.5 117.5q0 132 100.5 209t289.5 81h359v86q0 59 -17 108t-53.5 84.5t-92.5 55t-134 19.5q-181 0 -344 -129l-52 84q199 145 416 145q102 0 176 -25q217 -77 217 -331l3 -694h-115l-1 187q-133 -191 -402 -191z M480 96q131 0 232.5 61t147.5 192l-1 152h-315q-96 0 -169.5 -16.5t-114.5 -58t-41 -115.5q0 -57 28 -106t86 -79t147 -30zM561 1161q-82 0 -138.5 55.5t-56.5 137.5q0 48 23.5 92t67 72.5t104.5 28.5q62 0 106.5 -29.5t68 -74t23.5 -89.5q0 -81 -58 -137t-140 -56z M561 1233q51 0 90 34.5t39 86.5q0 56 -40.5 88.5t-88.5 32.5q-47 0 -87.5 -32.5t-40.5 -88.5q0 -51 36 -86t92 -35zM535 1626l-98 31l282 194l100 -70z"/>
<glyph glyph-name="AEacute" unicode="Ǽ" horiz-adv-x="2026" d="M1907 0h-952v405h-576l-238 -405h-129l831 1399h1037v-112h-805v-519h720v-111h-720v-545h832v-112zM955 505v790h-52l-466 -790h518zM1245 1537l-108 14l242 243l119 -55z"/>
<glyph glyph-name="aeacute" unicode="ǽ" horiz-adv-x="1965" d="M1384 -4q-117 0 -208.5 36.5t-156 102t-102.5 153.5q-130 -292 -457 -292q-63 0 -125 17t-113 54t-82 95.5t-31 140.5q0 99 51 161t139.5 91t201.5 29h361l-1 99q-9 267 -300 267q-178 0 -359 -129l-37 86q211 143 416 143q298 0 370 -247q76 129 186.5 188t243.5 59 q151 0 263.5 -66t174.5 -188.5t62 -292.5h-900v-43q0 -102 55.5 -184t148.5 -130.5t206 -48.5q205 0 339 140l67 -71q-164 -170 -413 -170zM481 87q280 0 383 268v154h-308q-151 0 -233 -36q-104 -46 -104 -162q0 -98 71 -161t191 -63zM1009 1236l-108 14l242 243l119 -55z M1764 578q-9 110 -52.5 195.5t-125 134.5t-203.5 49q-167 0 -271 -99t-129 -280h781z"/>
<glyph glyph-name="Oslashacute" unicode="Ǿ" horiz-adv-x="1629" d="M294 -110h-106l179 253q-146 107 -213 247t-67 318q0 294 216 494t504 200q221 -2 382 -99l146 207h106l-179 -254q145 -105 213 -245.5t68 -318.5q0 -297 -214.5 -496.5t-505.5 -199.5q-214 0 -382 99zM434 239l688 969q-140 80 -309 82q-171 0 -308 -79t-217 -213 t-80 -298q0 -288 226 -461zM815 107q251 0 428 173t177 420q0 285 -226 460l-687 -969q138 -84 308 -84zM843 1537l-108 14l241 243l119 -55z"/>
<glyph glyph-name="oslashacute" unicode="ǿ" horiz-adv-x="1228" d="M159 -208h-91l215 313q-192 153 -192 420q0 161 69.5 279t187.5 182t266 64q150 0 269 -68l186 272h91l-215 -313q192 -153 192 -416q0 -156 -67 -275.5t-185 -186.5t-271 -67q-150 0 -269 68zM341 191l484 707q-91 55 -211 55q-77 0 -150.5 -25t-132 -77t-93.5 -133.5 t-35 -194.5q0 -215 138 -332zM614 92q71 0 143.5 22.5t133 73t97.5 133t37 202.5q0 210 -139 331l-484 -707q94 -55 212 -55zM641 1236l-108 14l241 243l119 -55z"/>
<glyph glyph-name="uni0200" unicode="Ȁ" horiz-adv-x="1415" d="M1403 0h-132l-170 381h-791l-169 -381h-129l632 1399h125zM1051 493l-348 775l-343 -775h691zM549 1537l-187 211l101 51l181 -249zM824 1537l-187 211l101 51l181 -249z"/>
<glyph glyph-name="uni0201" unicode="ȁ" horiz-adv-x="1144" d="M459 -4h-9q-83 0 -147 25.5t-107.5 68.5t-65 99.5t-21.5 117.5q0 132 100.5 209t289.5 81h359v86q0 59 -17 108t-53.5 84.5t-92.5 55t-134 19.5q-181 0 -344 -129l-52 84q199 145 416 145q102 0 176 -25q217 -77 217 -331l3 -694h-115l-1 187q-133 -191 -402 -191z M480 96q131 0 232.5 61t147.5 192l-1 152h-315q-96 0 -169.5 -16.5t-114.5 -58t-41 -115.5q0 -57 28 -106t86 -79t147 -30zM403 1236l-186 211l100 51l182 -249zM679 1236l-187 211l101 51l181 -249z"/>
<glyph glyph-name="uni0202" unicode="Ȃ" horiz-adv-x="1415" d="M1403 0h-132l-170 381h-791l-169 -381h-129l632 1399h125zM1051 493l-348 775l-343 -775h691zM947 1541h-88q-20 154 -152 154q-73 0 -109 -43t-43 -111h-87q6 67 34 121.5t78.5 87.5t126.5 33q103 0 165 -64t75 -178z"/>
<glyph glyph-name="uni0203" unicode="ȃ" horiz-adv-x="1144" d="M459 -4h-9q-83 0 -147 25.5t-107.5 68.5t-65 99.5t-21.5 117.5q0 132 100.5 209t289.5 81h359v86q0 59 -17 108t-53.5 84.5t-92.5 55t-134 19.5q-181 0 -344 -129l-52 84q199 145 416 145q102 0 176 -25q217 -77 217 -331l3 -694h-115l-1 187q-133 -191 -402 -191z M480 96q131 0 232.5 61t147.5 192l-1 152h-315q-96 0 -169.5 -16.5t-114.5 -58t-41 -115.5q0 -57 28 -106t86 -79t147 -30zM801 1230h-88q-8 69 -44 111.5t-107 42.5q-73 0 -109.5 -42.5t-43.5 -111.5h-86q8 107 69.5 174.5t169.5 67.5q100 0 162.5 -62t76.5 -180z"/>
<glyph glyph-name="uni0204" unicode="Ȅ" horiz-adv-x="1297" d="M1178 0h-951v1399h924v-112h-804v-519h718v-111h-718v-545h831v-112zM543 1537l-186 211l100 51l182 -249zM819 1537l-187 211l101 51l181 -249z"/>
<glyph glyph-name="uni0205" unicode="ȅ" horiz-adv-x="1177" d="M606 -4q-100 0 -193.5 33t-165.5 99t-114 163.5t-42 222.5v9q0 227 121 358q141 161 393 169q228 0 355 -141q116 -130 129 -348q4 -38 4 -76h-886q7 -94 40.5 -167.5t87.5 -122.5t125.5 -74t153.5 -25q206 0 339 139l67 -69q-159 -170 -414 -170zM986 581 q-17 252 -215 340q-70 29 -166 29q-123 0 -206.5 -47.5t-131 -130.5t-60.5 -191h779zM434 1236l-187 211l101 51l181 -249zM709 1236l-186 211l100 51l182 -249z"/>
<glyph glyph-name="uni0206" unicode="Ȇ" horiz-adv-x="1297" d="M1178 0h-951v1399h924v-112h-804v-519h718v-111h-718v-545h831v-112zM941 1541h-88q-20 154 -151 154q-73 0 -109.5 -43t-43.5 -111h-86q5 68 33.5 122.5t80 87t125.5 32.5q97 0 161.5 -61t77.5 -181z"/>
<glyph glyph-name="uni0207" unicode="ȇ" horiz-adv-x="1177" d="M606 -4q-100 0 -193.5 33t-165.5 99t-114 163.5t-42 222.5v9q0 227 121 358q141 161 393 169q228 0 355 -141q116 -130 129 -348q4 -38 4 -76h-886q7 -94 40.5 -167.5t87.5 -122.5t125.5 -74t153.5 -25q206 0 339 139l67 -69q-159 -170 -414 -170zM986 581 q-17 252 -215 340q-70 29 -166 29q-123 0 -206.5 -47.5t-131 -130.5t-60.5 -191h779zM832 1230h-88q-18 154 -151 154q-73 0 -109.5 -42.5t-43.5 -111.5h-87q7 70 35.5 124t80 86t124.5 32q102 0 164 -64t75 -178z"/>
<glyph glyph-name="uni0208" unicode="Ȉ" horiz-adv-x="573" d="M128 1537l-187 211l101 51l181 -249zM403 1537l-186 211l100 51l182 -249zM347 0h-120v1399h120v-1399z"/>
<glyph glyph-name="uni0209" unicode="ȉ" horiz-adv-x="516" d="M99 1236l-187 211l101 51l181 -249zM374 1236l-187 211l101 51l181 -249zM316 0h-116v1046h116v-1046z"/>
<glyph glyph-name="uni020A" unicode="Ȋ" horiz-adv-x="573" d="M526 1541h-88q-18 154 -151 154q-137 0 -153 -154h-87q7 70 35.5 124t80 86t124.5 32q102 0 164 -64t75 -178zM347 0h-120v1399h120v-1399z"/>
<glyph glyph-name="uni020B" unicode="ȋ" horiz-adv-x="516" d="M466 1230h-87q-2 41 -15 75.5t-39 56.5t-68 22q-41 0 -68 -22t-40.5 -56.5t-14.5 -75.5h-87q12 121 68 182t142 61q84 0 139 -59.5t70 -183.5zM316 0h-116v1046h116v-1046z"/>
<glyph glyph-name="uni020C" unicode="Ȍ" horiz-adv-x="1629" d="M823 -10h-10q-314 0 -520 211t-206 498q0 307 212 506q214 205 519 205q309 0 516 -208q106 -104 157.5 -227t51.5 -278q0 -299 -213.5 -503t-506.5 -204zM815 101q249 0 427 175.5t178 425.5q0 245 -177.5 420.5t-427.5 175.5t-428.5 -174t-178.5 -422q0 -251 180 -426 q183 -175 427 -175zM657 1537l-187 211l101 51l181 -249zM932 1537l-187 211l101 51l181 -249z"/>
<glyph glyph-name="uni020D" unicode="ȍ" horiz-adv-x="1228" d="M614 -4q-102 0 -195 31.5t-167 97.5t-119 171q-42 99 -42 229q0 163 70.5 280.5t189 181t263.5 63.5q98 0 191.5 -31.5t168 -96t119 -163.5t44.5 -234q0 -155 -66 -274.5t-183.5 -187t-273.5 -67.5zM614 100q75 0 148 24t130.5 75t92.5 131.5t35 192.5q0 179 -104 297 q-112 125 -302 125q-82 0 -155.5 -26.5t-129.5 -79t-88.5 -132t-32.5 -184.5v-8q0 -105 34 -182.5t91 -130t130 -77.5t151 -25zM455 1236l-186 211l100 51l182 -249zM731 1236l-187 211l101 51l181 -249z"/>
<glyph glyph-name="uni020E" unicode="Ȏ" horiz-adv-x="1629" d="M823 -10h-10q-314 0 -520 211t-206 498q0 307 212 506q214 205 519 205q309 0 516 -208q106 -104 157.5 -227t51.5 -278q0 -299 -213.5 -503t-506.5 -204zM815 101q249 0 427 175.5t178 425.5q0 245 -177.5 420.5t-427.5 175.5t-428.5 -174t-178.5 -422q0 -251 180 -426 q183 -175 427 -175zM1055 1541h-88q-20 154 -152 154q-73 0 -109 -43t-43 -111h-87q6 67 34 121.5t78.5 87.5t126.5 33q103 0 165 -64t75 -178z"/>
<glyph glyph-name="uni020F" unicode="ȏ" horiz-adv-x="1228" d="M614 -4q-102 0 -195 31.5t-167 97.5t-119 171q-42 99 -42 229q0 163 70.5 280.5t189 181t263.5 63.5q98 0 191.5 -31.5t168 -96t119 -163.5t44.5 -234q0 -155 -66 -274.5t-183.5 -187t-273.5 -67.5zM614 100q75 0 148 24t130.5 75t92.5 131.5t35 192.5q0 179 -104 297 q-112 125 -302 125q-82 0 -155.5 -26.5t-129.5 -79t-88.5 -132t-32.5 -184.5v-8q0 -105 34 -182.5t91 -130t130 -77.5t151 -25zM853 1230h-88q-18 154 -151 154q-73 0 -109.5 -42.5t-43.5 -111.5h-86q5 68 33.5 122.5t80 87t125.5 32.5q97 0 161.5 -61t77.5 -181z"/>
<glyph glyph-name="uni0210" unicode="Ȑ" horiz-adv-x="1445" d="M1295 0h-138l-315 461q-42 -3 -93 -5h-402v-456h-120v1399h512q257 0 401.5 -118t144.5 -346q0 -351 -331 -451zM739 568q130 0 226.5 39t150 119.5t53.5 205.5q0 180 -113 267.5t-317 87.5h-392v-719h392zM526 1537l-187 211l101 51l181 -249zM801 1537l-186 211l100 51 l182 -249z"/>
<glyph glyph-name="uni0211" unicode="ȑ" horiz-adv-x="721" d="M292 1236l-187 211l101 51l181 -249zM317 0h-117v1046h117v-250q105 247 384 254v-115q-184 -6 -277.5 -104t-106.5 -269v-562zM567 1236l-186 211l100 51l182 -249z"/>
<glyph glyph-name="uni0212" unicode="Ȓ" horiz-adv-x="1445" d="M1295 0h-138l-315 461q-42 -3 -93 -5h-402v-456h-120v1399h512q257 0 401.5 -118t144.5 -346q0 -351 -331 -451zM739 568q130 0 226.5 39t150 119.5t53.5 205.5q0 180 -113 267.5t-317 87.5h-392v-719h392zM924 1541h-88q-20 154 -151 154q-73 0 -109.5 -42.5 t-43.5 -111.5h-87q7 70 35.5 124t80 86t124.5 32q102 0 164 -64t75 -178z"/>
<glyph glyph-name="uni0213" unicode="ȓ" horiz-adv-x="721" d="M317 0h-117v1046h117v-250q105 247 384 254v-115q-184 -6 -277.5 -104t-106.5 -269v-562zM690 1230h-88q-8 69 -44 111.5t-107 42.5q-73 0 -109.5 -42.5t-43.5 -111.5h-87q6 69 35 123.5t80 86.5t125 32q99 0 161.5 -62t77.5 -180z"/>
<glyph glyph-name="uni0214" unicode="Ȕ" horiz-adv-x="1536" d="M769 -10q-177 0 -306 66.5t-199.5 195t-70.5 315.5v832h120v-832q0 -125 36.5 -213.5t99.5 -144.5t145.5 -82t174.5 -26q193 0 314 102q140 119 140 364v832h118v-832q0 -282 -152 -429.5t-420 -147.5zM610 1537l-187 211l101 51l181 -249zM885 1537l-186 211l100 51 l182 -249z"/>
<glyph glyph-name="uni0215" unicode="ȕ" horiz-adv-x="1287" d="M560 -4q-138 0 -225.5 55t-129 148t-41.5 206v641h117v-614q0 -107 40 -178.5t111 -108t164 -36.5q131 13 213.5 69.5t121.5 148t39 206.5v513h117v-1046h-117v259q-108 -259 -410 -263zM486 1236l-187 211l101 51l181 -249zM761 1236l-186 211l100 51l182 -249z"/>
<glyph glyph-name="uni0216" unicode="Ȗ" horiz-adv-x="1536" d="M769 -10q-177 0 -306 66.5t-199.5 195t-70.5 315.5v832h120v-832q0 -125 36.5 -213.5t99.5 -144.5t145.5 -82t174.5 -26q193 0 314 102q140 119 140 364v832h118v-832q0 -282 -152 -429.5t-420 -147.5zM1008 1541h-88q-20 154 -151 154q-73 0 -109.5 -42.5t-43.5 -111.5 h-87q7 70 35.5 124t80 86t124.5 32q102 0 164 -64t75 -178z"/>
<glyph glyph-name="uni0217" unicode="ȗ" horiz-adv-x="1287" d="M560 -4q-138 0 -225.5 55t-129 148t-41.5 206v641h117v-614q0 -107 40 -178.5t111 -108t164 -36.5q131 13 213.5 69.5t121.5 148t39 206.5v513h117v-1046h-117v259q-108 -259 -410 -263zM884 1230h-88q-18 154 -151 154q-73 0 -109.5 -42.5t-43.5 -111.5h-87 q7 70 35.5 124t80 86t124.5 32q102 0 164 -64t75 -178z"/>
<glyph glyph-name="uni0218" unicode="Ș" horiz-adv-x="1210" d="M587 -10q-304 0 -517 210l57 101q208 -194 461 -194q77 0 143 15.5t115 47t77 78t28 109.5q-1 140 -111 206q-116 64 -257 103q-120 36 -195 68q-144 61 -185 134q-54 87 -54 198q0 90 38.5 155.5t103.5 107.5t150.5 62t178.5 20q227 0 420 -120l-52 -106 q-90 54 -182 81.5t-193 27.5q-129 0 -220 -46q-95 -51 -110 -144l-3 -42l1 -14q5 -77 55.5 -130.5t154.5 -94.5q57 -23 115 -41t115.5 -37.5t113.5 -43t108 -56.5q130 -81 139 -283q0 -85 -34 -154t-98.5 -117.5t-156.5 -74.5t-206 -26zM570 -432h-89l76 309h111z"/>
<glyph glyph-name="uni0219" unicode="ș" horiz-adv-x="889" d="M446 -4q-230 0 -393 147l49 86q151 -134 348 -134q97 0 168 40t85 135q0 59 -40 96q-60 75 -226 117q-139 34 -243 108q-81 58 -86 187q0 98 50.5 158t131.5 87.5t171 27.5q179 0 316 -88l-46 -92q-125 79 -276 79q-69 0 -122 -16t-83 -52t-30 -95q0 -56 34 -92t93 -60.5 t136 -45.5q76 -21 155.5 -56.5t130.5 -89.5q50 -62 50 -159q0 -148 -116 -223q-102 -65 -257 -65zM400 -432h-89l76 309h111z"/>
<glyph glyph-name="uni021A" unicode="Ț" horiz-adv-x="1095" d="M607 0h-120v1287h-464v112h1050v-112h-466v-1287zM507 -432h-89l76 309h111z"/>
<glyph glyph-name="uni021B" unicode="ț" horiz-adv-x="761" d="M488 -4q-73 0 -130 30t-89.5 95t-32.5 168v634h-152v95h152v266h116v-266h344v-95h-344v-616q0 -200 149 -202q87 1 176 58l38 -90q-105 -75 -227 -77zM446 -432h-89l76 309h111z"/>
<glyph glyph-name="uni021E" unicode="Ȟ" horiz-adv-x="1591" d="M1365 0h-120v642h-898v-642h-120v1399h120v-646h898v646h120v-1399zM862 1541h-133l-203 246h122l148 -159l148 159h121z"/>
<glyph glyph-name="uni021F" unicode="ȟ" horiz-adv-x="1316" d="M1149 0h-118v614q0 160 -88 241.5t-232 81.5q-183 -13 -283.5 -121t-100.5 -303v-513h-117v1484h117v-695q112 258 420 261q142 0 230.5 -53.5t130 -146t41.5 -209.5v-641zM335 1626h-133l-203 246h122l148 -159l148 159h121z"/>
<glyph glyph-name="uni0226" unicode="Ȧ" horiz-adv-x="1415" d="M1403 0h-132l-170 381h-791l-169 -381h-129l632 1399h125zM1051 493l-348 775l-343 -775h691zM707 1537q-39 0 -62.5 27t-23.5 61q0 41 25.5 64.5t60.5 23.5q33 0 59 -23.5t26 -64.5q0 -30 -19.5 -59t-65.5 -29z"/>
<glyph glyph-name="uni0227" unicode="ȧ" horiz-adv-x="1144" d="M459 -4h-9q-83 0 -147 25.5t-107.5 68.5t-65 99.5t-21.5 117.5q0 132 100.5 209t289.5 81h359v86q0 59 -17 108t-53.5 84.5t-92.5 55t-134 19.5q-181 0 -344 -129l-52 84q199 145 416 145q102 0 176 -25q217 -77 217 -331l3 -694h-115l-1 187q-133 -191 -402 -191z M480 96q131 0 232.5 61t147.5 192l-1 152h-315q-96 0 -169.5 -16.5t-114.5 -58t-41 -115.5q0 -57 28 -106t86 -79t147 -30zM584 1259q-40 0 -63 27t-23 61q0 35 22.5 62t63.5 27q35 0 60 -24t25 -65q0 -30 -19.5 -59t-65.5 -29z"/>
<glyph glyph-name="uni0228" unicode="Ȩ" horiz-adv-x="1297" d="M1178 0h-951v1399h924v-112h-804v-519h718v-111h-718v-545h831v-112zM675 -430q-87 0 -166 43l29 80q58 -34 125 -34q61 0 88 28.5t27 61.5q0 32 -26 58t-84 26h-60l54 180l85 -13l-35 -108q86 -15 124 -56t38 -96q0 -72 -51 -121t-148 -49z"/>
<glyph glyph-name="uni0229" unicode="ȩ" horiz-adv-x="1177" d="M606 -4q-100 0 -193.5 33t-165.5 99t-114 163.5t-42 222.5v9q0 227 121 358q141 161 393 169q228 0 355 -141q116 -130 129 -348q4 -38 4 -76h-886q7 -94 40.5 -167.5t87.5 -122.5t125.5 -74t153.5 -25q206 0 339 139l67 -69q-159 -170 -414 -170zM986 581 q-17 252 -215 340q-70 29 -166 29q-123 0 -206.5 -47.5t-131 -130.5t-60.5 -191h779zM584 -430q-87 0 -166 43l29 80q56 -34 125 -34q59 0 86.5 28t27.5 62q0 32 -25.5 58t-83.5 26h-61l54 180l86 -13l-35 -108q86 -15 124 -56t38 -96q0 -72 -51 -121t-148 -49z"/>
<glyph glyph-name="uni022A" unicode="Ȫ" horiz-adv-x="1629" d="M823 -10h-10q-314 0 -520 211t-206 498q0 307 212 506q214 205 519 205q309 0 516 -208q106 -104 157.5 -227t51.5 -278q0 -299 -213.5 -503t-506.5 -204zM815 101q249 0 427 175.5t178 425.5q0 245 -177.5 420.5t-427.5 175.5t-428.5 -174t-178.5 -422q0 -251 180 -426 q183 -175 427 -175zM1050 1781h-465v86h465v-86zM670 1537q-34 0 -56.5 24t-22.5 58q0 39 25 59.5t54 20.5q39 0 59 -24t20 -56q0 -31 -20.5 -56.5t-58.5 -25.5zM965 1537q-34 0 -56.5 24t-22.5 58q0 43 25 61.5t54 18.5q27 0 52.5 -19.5t25.5 -60.5q0 -33 -23 -57.5 t-55 -24.5z"/>
<glyph glyph-name="uni022B" unicode="ȫ" horiz-adv-x="1228" d="M614 -4q-102 0 -195 31.5t-167 97.5t-119 171q-42 99 -42 229q0 163 70.5 280.5t189 181t263.5 63.5q98 0 191.5 -31.5t168 -96t119 -163.5t44.5 -234q0 -155 -66 -274.5t-183.5 -187t-273.5 -67.5zM614 100q75 0 148 24t130.5 75t92.5 131.5t35 192.5q0 179 -104 297 q-112 125 -302 125q-82 0 -155.5 -26.5t-129.5 -79t-88.5 -132t-32.5 -184.5v-8q0 -105 34 -182.5t91 -130t130 -77.5t151 -25zM849 1471h-465v85h465v-85zM469 1227q-33 0 -56 23.5t-23 57.5q0 43 25 61.5t54 18.5q39 0 58.5 -23.5t19.5 -56.5q0 -31 -19.5 -56t-58.5 -25z M763 1227q-32 0 -55 23t-23 58q0 43 25 61.5t53 18.5q30 0 54.5 -20.5t24.5 -59.5q0 -31 -21.5 -56t-57.5 -25z"/>
<glyph glyph-name="uni022C" unicode="Ȭ" horiz-adv-x="1629" d="M823 -10h-10q-314 0 -520 211t-206 498q0 307 212 506q214 205 519 205q309 0 516 -208q106 -104 157.5 -227t51.5 -278q0 -299 -213.5 -503t-506.5 -204zM815 101q249 0 427 175.5t178 425.5q0 245 -177.5 420.5t-427.5 175.5t-428.5 -174t-178.5 -422q0 -251 180 -426 q183 -175 427 -175zM951 1535q-33 2 -74.5 19t-81.5 38q-41 20 -66 28.5t-44 8.5q-23 0 -38 -13q-41 -15 -42 -75h-76q0 182 152 182q37 -4 78 -21t78 -35q72 -37 111 -37q23 0 38 12q41 15 41 73h74q0 -48 -14.5 -89t-47.5 -66t-88 -25zM1050 1798h-465v85h465v-85z"/>
<glyph glyph-name="uni022D" unicode="ȭ" horiz-adv-x="1228" d="M614 -4q-102 0 -195 31.5t-167 97.5t-119 171q-42 99 -42 229q0 163 70.5 280.5t189 181t263.5 63.5q98 0 191.5 -31.5t168 -96t119 -163.5t44.5 -234q0 -155 -66 -274.5t-183.5 -187t-273.5 -67.5zM614 100q75 0 148 24t130.5 75t92.5 131.5t35 192.5q0 179 -104 297 q-112 125 -302 125q-82 0 -155.5 -26.5t-129.5 -79t-88.5 -132t-32.5 -184.5v-8q0 -105 34 -182.5t91 -130t130 -77.5t151 -25zM750 1222q-33 2 -74.5 19t-81.5 38q-41 20 -66 28t-44 8q-23 0 -38 -12q-42 -16 -42 -75h-76q0 182 152 182q35 -4 75.5 -20.5t77.5 -34.5 q74 -38 113 -38q24 0 39 12q40 15 41 73h74q0 -48 -14.5 -89t-47.5 -66t-88 -25zM849 1485h-465v85h465v-85z"/>
<glyph glyph-name="uni022E" unicode="Ȯ" horiz-adv-x="1629" d="M823 -10h-10q-314 0 -520 211t-206 498q0 307 212 506q214 205 519 205q309 0 516 -208q106 -104 157.5 -227t51.5 -278q0 -299 -213.5 -503t-506.5 -204zM815 101q249 0 427 175.5t178 425.5q0 245 -177.5 420.5t-427.5 175.5t-428.5 -174t-178.5 -422q0 -251 180 -426 q183 -175 427 -175zM816 1537q-43 0 -64 27.5t-21 60.5q0 40 24.5 64t60.5 24q33 0 59 -23.5t26 -64.5q0 -35 -22 -61.5t-63 -26.5z"/>
<glyph glyph-name="uni022F" unicode="ȯ" horiz-adv-x="1228" d="M614 -4q-102 0 -195 31.5t-167 97.5t-119 171q-42 99 -42 229q0 163 70.5 280.5t189 181t263.5 63.5q98 0 191.5 -31.5t168 -96t119 -163.5t44.5 -234q0 -155 -66 -274.5t-183.5 -187t-273.5 -67.5zM614 100q75 0 148 24t130.5 75t92.5 131.5t35 192.5q0 179 -104 297 q-112 125 -302 125q-82 0 -155.5 -26.5t-129.5 -79t-88.5 -132t-32.5 -184.5v-8q0 -105 34 -182.5t91 -130t130 -77.5t151 -25zM614 1259q-43 0 -64 27.5t-21 60.5q0 36 22 62.5t63 26.5q35 0 60 -24t25 -65q0 -33 -21 -60.5t-64 -27.5z"/>
<glyph glyph-name="uni0230" unicode="Ȱ" horiz-adv-x="1629" d="M823 -10h-10q-314 0 -520 211t-206 498q0 307 212 506q214 205 519 205q309 0 516 -208q106 -104 157.5 -227t51.5 -278q0 -299 -213.5 -503t-506.5 -204zM815 101q249 0 427 175.5t178 425.5q0 245 -177.5 420.5t-427.5 175.5t-428.5 -174t-178.5 -422q0 -251 180 -426 q183 -175 427 -175zM1161 1841h-560v84h560v-84zM882 1537q-43 0 -64 27.5t-21 60.5q0 40 24.5 64t60.5 24q39 0 62 -26t23 -62q0 -35 -22.5 -61.5t-62.5 -26.5z"/>
<glyph glyph-name="uni0231" unicode="ȱ" horiz-adv-x="1228" d="M614 -4q-102 0 -195 31.5t-167 97.5t-119 171q-42 99 -42 229q0 163 70.5 280.5t189 181t263.5 63.5q98 0 191.5 -31.5t168 -96t119 -163.5t44.5 -234q0 -155 -66 -274.5t-183.5 -187t-273.5 -67.5zM614 100q75 0 148 24t130.5 75t92.5 131.5t35 192.5q0 179 -104 297 q-112 125 -302 125q-82 0 -155.5 -26.5t-129.5 -79t-88.5 -132t-32.5 -184.5v-8q0 -105 34 -182.5t91 -130t130 -77.5t151 -25zM845 1471h-465v85h465v-85zM611 1227q-30 0 -55.5 22.5t-25.5 61.5q0 44 26 64.5t55 20.5q33 0 58 -22.5t25 -62.5q0 -31 -20 -57.5t-63 -26.5z "/>
<glyph glyph-name="uni0232" unicode="Ȳ" horiz-adv-x="1237" d="M682 0h-119v501l-551 898h127l483 -762l477 762h125l-542 -896v-503zM930 1551h-626v84h626v-84z"/>
<glyph glyph-name="uni0233" unicode="ȳ" horiz-adv-x="973" d="M193 -392q-122 0 -210 68l50 94q72 -49 153 -49q134 0 209 172l46 111l-433 1042h125l367 -913l355 913h122l-484 -1196q-107 -242 -300 -242zM765 1305h-545v84h545v-84z"/>
<glyph glyph-name="uni0237" unicode="ȷ" horiz-adv-x="483" d="M41 -390q-85 4 -154 32l30 93q46 -18 104 -22q172 2 172 245v1088h117v-1103q0 -327 -269 -333z"/>
<glyph glyph-name="uni0259" unicode="ə" horiz-adv-x="1177" d="M572 -4q-118 0 -207 38t-148.5 104t-91.5 155t-38 191l-4 58l1 19h886q-16 177 -120 282q-110 107 -287 107q-204 0 -340 -139l-66 69q158 170 414 170q101 0 194 -33.5t165 -99.5t115 -165q41 -95 41 -220v-9q0 -225 -121 -358q-142 -161 -393 -169zM572 96 q119 0 203.5 47t133 130t60.5 192h-778q6 -106 49 -189t125 -131.5t207 -48.5z"/>
<glyph glyph-name="uni02BB" unicode="ʻ" horiz-adv-x="315" d="M215 1027l-115 26l33 347h82v-373z"/>
<glyph glyph-name="uni02BC" unicode="ʼ" horiz-adv-x="230" d="M145 880h-81l6 519h96z"/>
<glyph glyph-name="uni02BE" unicode="ʾ" horiz-adv-x="516" d="M135 1126v67q42 0 80 19t62 54t24 83q0 62 -47 110t-119 48v66q69 0 120.5 -33.5t80.5 -84.5t29 -106q0 -89 -64 -156t-166 -67z"/>
<glyph glyph-name="uni02BF" unicode="ʿ" horiz-adv-x="514" d="M378 1126q-72 0 -123 33t-78 84.5t-27 105.5q0 98 67.5 161t160.5 63v-66q-63 0 -113.5 -44t-50.5 -114q0 -51 25.5 -85.5t63.5 -52.5t75 -18v-67z"/>
<glyph glyph-name="circumflex" unicode="ˆ" horiz-adv-x="603" d="M571 1240h-122l-148 159l-148 -159h-121l203 245h133z"/>
<glyph glyph-name="caron" unicode="ˇ" horiz-adv-x="603" d="M344 1240h-133l-203 245h121l148 -158l148 158h122z"/>
<glyph glyph-name="uni02C8" unicode="ˈ" horiz-adv-x="148" d="M120 1043h-92v356h92v-356z"/>
<glyph glyph-name="uni02C9" unicode="ˉ" horiz-adv-x="700" d="M623 1305h-545v84h545v-84z"/>
<glyph glyph-name="uni02CA" unicode="ˊ" horiz-adv-x="700" d="M297 1236l-108 14l242 243l119 -55z"/>
<glyph glyph-name="uni02CB" unicode="ˋ" horiz-adv-x="700" d="M353 1236l-253 202l119 55l242 -243z"/>
<glyph glyph-name="uni02CC" unicode="ˌ" horiz-adv-x="147" d="M119 -416h-91v355h91v-355z"/>
<glyph glyph-name="breve" unicode="˘" horiz-adv-x="581" d="M291 1230q-96 0 -161 60.5t-78 181.5h87q7 -70 43.5 -112t108.5 -42q130 0 152 154h88q-10 -109 -70 -175.5t-170 -66.5z"/>
<glyph glyph-name="dotaccent" unicode="˙" horiz-adv-x="395" d="M197 1259q-43 0 -64 27.5t-21 60.5q0 36 22 62.5t63 26.5q34 0 60 -24t26 -65q0 -33 -21.5 -60.5t-64.5 -27.5z"/>
<glyph glyph-name="ring" unicode="˚" horiz-adv-x="859" d="M352 1161q-82 0 -138.5 55.5t-56.5 137.5q0 48 23.5 92t67 72.5t104.5 28.5t105.5 -29.5t68 -74t23.5 -89.5q0 -84 -58.5 -138.5t-138.5 -54.5zM352 1233q51 0 90 34.5t39 86.5q0 56 -40.5 88.5t-88.5 32.5q-47 0 -87.5 -32.5t-40.5 -88.5q0 -51 36 -86t92 -35z"/>
<glyph glyph-name="ogonek" unicode="˛" horiz-adv-x="505" d="M239 -430q-41 0 -80.5 14.5t-65.5 50t-26 98.5q0 166 256 316l70 -49q-216 -139 -216 -250q0 -84 82 -84q47 0 97 29l35 -81q-80 -44 -152 -44z"/>
<glyph glyph-name="tilde" unicode="˜" horiz-adv-x="679" d="M475 1235q-29 0 -67.5 18.5t-74.5 39.5q-78 47 -117 47q-22 0 -37 -13q-41 -15 -41 -84h-86q0 206 153 206q34 0 74 -19.5t78 -42.5t63.5 -32.5t43.5 -9.5q22 0 36 12q41 17 41 84h86q0 -206 -152 -206z"/>
<glyph glyph-name="hungarumlaut" unicode="˝" horiz-adv-x="896" d="M271 1236l-94 13l180 249l100 -51zM547 1236l-95 13l181 249l99 -51z"/>
<glyph glyph-name="gravecomb" unicode="̀" d="M-221 1236l-253 202l119 55l242 -243z"/>
<glyph glyph-name="acutecomb" unicode="́" d="M-293 1236l-108 14l242 243l119 -55z"/>
<glyph glyph-name="uni0302" unicode="̂" d="M-32 1240h-121l-148 159l-148 -159h-122l203 245h133z"/>
<glyph glyph-name="tildecomb" unicode="̃" d="M-205 1235q-29 0 -67.5 18.5t-74.5 39.5q-78 47 -117 47q-21 0 -36 -13q-41 -15 -41 -84h-86q0 206 152 206q32 0 72.5 -19.5t79.5 -42.5t64 -33t44 -10q22 0 36 13q41 17 41 84h86q0 -206 -153 -206z"/>
<glyph glyph-name="uni0304" unicode="̄" d="M0 1305h-545v84h545v-84z"/>
<glyph glyph-name="uni0306" unicode="̆" d="M-290 1230q-96 0 -161 59.5t-78 182.5h86q8 -69 44.5 -111.5t108.5 -42.5q68 0 105 40t46 114h88q-10 -109 -70 -175.5t-169 -66.5z"/>
<glyph glyph-name="uni0307" unicode="̇" d="M-185 1259q-40 0 -63 27t-23 61q0 35 22.5 62t63.5 27q35 0 60 -24t25 -65q0 -30 -19.5 -59t-65.5 -29z"/>
<glyph glyph-name="uni0308" unicode="̈" d="M-502 1264q-31 0 -55 23t-24 58q0 42 25 62.5t54 20.5q30 0 55 -19.5t25 -63.5q0 -30 -19.5 -55.5t-60.5 -25.5zM-178 1264q-40 0 -60 25t-20 56q0 43 24.5 63t55.5 20q30 0 55 -19.5t25 -63.5q0 -30 -19 -55.5t-61 -25.5z"/>
<glyph glyph-name="hookabovecomb" unicode="̉" d="M-198 1165l-75 34q82 69 94 137q2 16 2 30v10q-9 67 -85 67q-43 0 -91 -30l-42 68q77 50 153 50q78 0 123.5 -38t45.5 -113q0 -106 -125 -215z"/>
<glyph glyph-name="uni030A" unicode="̊" d="M-353 1161q-84 0 -139.5 57t-55.5 136q0 76 55 134.5t140 58.5q62 0 106.5 -28.5t68 -72.5t23.5 -92q0 -83 -58 -138t-140 -55zM-353 1233q50 0 89.5 34t39.5 87q0 56 -40 88.5t-89 32.5q-47 0 -87.5 -32.5t-40.5 -88.5q0 -51 36 -86t92 -35z"/>
<glyph glyph-name="uni030B" unicode="̋" d="M-559 1236l-94 13l180 249l100 -51zM-283 1236l-95 13l181 249l99 -51z"/>
<glyph glyph-name="uni030C" unicode="̌" d="M-269 1240h-134l-202 245h121l148 -158l148 158h121z"/>
<glyph glyph-name="uni030F" unicode="̏" d="M-480 1236l-187 211l101 51l181 -249zM-205 1236l-186 211l100 51l182 -249z"/>
<glyph glyph-name="uni0311" unicode="̑" d="M-51 1230h-88q-7 69 -43 111.5t-108 42.5q-135 0 -153 -154h-86q11 112 72.5 177t166.5 65q107 0 167 -65.5t72 -176.5z"/>
<glyph glyph-name="uni0312" unicode="̒" d="M-155 1227h-112l98 309h90z"/>
<glyph glyph-name="uni031B" unicode="̛" d="M-279 965l1 81q68 0 99.5 29.5t31.5 80.5q0 49 -28 105l94 36q31 -72 31 -135q0 -57 -39 -127t-190 -70z"/>
<glyph glyph-name="dotbelowcomb" unicode="̣" d="M-185 -329q-41 0 -63.5 28t-22.5 60q0 37 23 63t63 26q41 0 63 -27t22 -62q0 -33 -20.5 -60.5t-64.5 -27.5z"/>
<glyph glyph-name="uni0324" unicode="̤" d="M-482 -314q-31 0 -55 23t-24 58q0 42 25.5 62.5t53.5 20.5q30 0 55 -19.5t25 -63.5q0 -30 -19.5 -55.5t-60.5 -25.5zM-158 -314q-40 0 -60 25t-20 56q0 42 24.5 62.5t55.5 20.5t55.5 -20.5t24.5 -62.5q0 -30 -19.5 -55.5t-60.5 -25.5z"/>
<glyph glyph-name="uni0325" unicode="̥" d="M-391 -516q-84 0 -139.5 57t-55.5 136q0 76 55 134.5t140 58.5q61 0 105.5 -28t68.5 -72t24 -93q0 -82 -58.5 -137.5t-139.5 -55.5zM-391 -444q49 0 89 33.5t40 87.5q0 55 -40 88t-89 33t-88.5 -32.5t-39.5 -88.5q0 -50 36.5 -85.5t91.5 -35.5z"/>
<glyph glyph-name="uni0326" unicode="̦" d="M-211 -432h-90l76 309h112z"/>
<glyph glyph-name="uni0327" unicode="̧" d="M-281 -430q-87 0 -166 43l29 80q56 -34 125 -34q59 0 86.5 28t27.5 62q0 32 -25.5 58t-83.5 26h-61l54 180l86 -13l-35 -108q86 -15 124 -56t38 -96q0 -72 -51 -121t-148 -49z"/>
<glyph glyph-name="uni0328" unicode="̨" d="M-217 -430q-41 0 -80.5 14.5t-65.5 50t-26 98.5q0 165 256 316l70 -49q-216 -140 -216 -250q0 -84 83 -84q44 0 97 29l34 -81q-79 -44 -152 -44z"/>
<glyph glyph-name="uni032D" unicode="̭" d="M-203 -401h-122l-148 158l-148 -158h-121l203 245h133z"/>
<glyph glyph-name="uni032E" unicode="̮" d="M-290 -342q-102 0 -164.5 63t-74.5 179h86q8 -68 44 -111t109 -43q70 0 106.5 41.5t44.5 112.5h88q-11 -112 -73 -177t-166 -65z"/>
<glyph glyph-name="uni0330" unicode="̰" d="M-319 -385q-69 0 -149 64q-68 52 -107 52q-80 0 -81 -108h-86q0 206 153 206q69 0 149 -65q68 -52 106 -52q81 0 81 109h86q0 -206 -152 -206z"/>
<glyph glyph-name="uni0331" unicode="̱" d="M-60 -256h-545v84h545v-84z"/>
<glyph glyph-name="uni0335" unicode="̵" d="M-8 842h-612v80h612v-80z"/>
<glyph glyph-name="uni0336" unicode="̶" d="M-224 842h-760v80h760v-80z"/>
<glyph glyph-name="uni0337" unicode="̷" d="M-389 169h-105l312 950h105z"/>
<glyph glyph-name="uni0338" unicode="̸" d="M-443 0h-105l486 1484h105z"/>
<glyph glyph-name="uni0394" unicode="Δ" horiz-adv-x="1415" d="M1403 0h-1391l632 1399h125zM1227 100l-524 1168l-518 -1168h1042z"/>
<glyph glyph-name="uni03A9" unicode="Ω" horiz-adv-x="1816" d="M1794 0h-632v113q125 76 203.5 175.5t115 208.5t36.5 210q0 165 -75 298t-213 211t-327 78q-174 0 -310 -74t-214 -206t-78 -305q0 -165 87 -324.5t269 -273.5v-111h-633v105h486q-89 65 -161 157t-114.5 208t-42.5 252q0 293 205 487t513 194q312 0 515 -193.5 t203 -487.5q0 -169 -82.5 -331t-237.5 -286h487v-105z"/>
<glyph glyph-name="uni03BC" unicode="μ" horiz-adv-x="1332" d="M328 -388h-117v743q-2 8 -2 691h119v-658q34 -279 313 -279q131 13 213.5 69.5t121.5 148t39 206.5v513h117v-1046h-117v259q-108 -258 -410 -263q-180 0 -277 109v-493z"/>
<glyph glyph-name="pi" unicode="π" horiz-adv-x="1441" d="M1090 0h-103v950h-406l-110 -950h-101l108 950h-142q-108 0 -175.5 -58t-71.5 -159q1 -85 61 -169l-84 -39q-68 100 -74 224q4 87 44 153.5t112.5 105t176.5 38.5h1102l-2 -96h-335v-950z"/>
<glyph glyph-name="uni1E00" unicode="Ḁ" horiz-adv-x="1415" d="M1403 0h-132l-170 381h-791l-169 -381h-129l632 1399h125zM1051 493l-348 775l-343 -775h691zM705 -516q-84 0 -139.5 57t-55.5 136q0 48 23.5 92t67 72.5t104.5 28.5t105.5 -28t68.5 -72t24 -93q0 -81 -58 -137t-140 -56zM705 -444q47 0 88 33.5t41 87.5q0 55 -40 88 t-89 33t-88.5 -32.5t-39.5 -88.5q0 -48 36 -84.5t92 -36.5z"/>
<glyph glyph-name="uni1E01" unicode="ḁ" horiz-adv-x="1144" d="M459 -4h-9q-83 0 -147 25.5t-107.5 68.5t-65 99.5t-21.5 117.5q0 132 100.5 209t289.5 81h359v86q0 59 -17 108t-53.5 84.5t-92.5 55t-134 19.5q-181 0 -344 -129l-52 84q199 145 416 145q102 0 176 -25q217 -77 217 -331l3 -694h-115l-1 187q-133 -191 -402 -191z M480 96q131 0 232.5 61t147.5 192l-1 152h-315q-96 0 -169.5 -16.5t-114.5 -58t-41 -115.5q0 -57 28 -106t86 -79t147 -30zM541 -516q-83 0 -139.5 56.5t-56.5 136.5q0 50 24.5 94t69 71.5t102.5 27.5q61 0 105 -27.5t68 -72t24 -93.5q0 -84 -58.5 -138.5t-138.5 -54.5z M541 -444q47 0 87.5 33.5t40.5 87.5q0 56 -40.5 88.5t-87.5 32.5q-49 0 -88.5 -32.5t-39.5 -88.5q0 -47 35 -84t93 -37z"/>
<glyph glyph-name="uni1E02" unicode="Ḃ" horiz-adv-x="1442" d="M813 0h-586v1399h580q123 0 224 -34t161 -110.5t60 -203.5q0 -120 -64.5 -204t-200.5 -115q166 -31 248 -125t82 -229q0 -128 -65 -212t-178.5 -125t-260.5 -41zM802 112q171 0 273 59q121 69 121 221q0 135 -104.5 204.5t-289.5 69.5h-455v-554h455zM802 777 q166 0 245 69t82 189q0 86 -39.5 140.5t-113 82t-174.5 29.5h-455v-510h455zM737 1537q-43 0 -64 27.5t-21 60.5q0 41 25 64.5t60 23.5q34 0 60 -23.5t26 -64.5q0 -33 -21.5 -60.5t-64.5 -27.5z"/>
<glyph glyph-name="uni1E03" unicode="ḃ" horiz-adv-x="1347" d="M755 -4q-305 0 -428 256v-252h-117v1484h117v-690q124 256 425 256q145 0 270 -72t193 -227q42 -99 42 -230q0 -154 -68.5 -282.5t-213.5 -198.5q-94 -44 -220 -44zM733 101q131 0 221.5 59t137 155.5t46.5 208.5q0 81 -24.5 156.5t-74.5 135.5t-126 95.5t-180 35.5 q-119 0 -219 -57.5t-153 -179.5q-34 -80 -34 -186q0 -117 53 -222t173 -165q76 -36 180 -36zM792 1184q-43 0 -64 27.5t-21 60.5q0 40 24.5 64t60.5 24q33 0 59 -23.5t26 -64.5q0 -35 -22 -61.5t-63 -26.5z"/>
<glyph glyph-name="uni1E04" unicode="Ḅ" horiz-adv-x="1442" d="M813 0h-586v1399h580q123 0 224 -34t161 -110.5t60 -203.5q0 -120 -64.5 -204t-200.5 -115q166 -31 248 -125t82 -229q0 -128 -65 -212t-178.5 -125t-260.5 -41zM802 112q171 0 273 59q121 69 121 221q0 135 -104.5 204.5t-289.5 69.5h-455v-554h455zM802 777 q166 0 245 69t82 189q0 86 -39.5 140.5t-113 82t-174.5 29.5h-455v-510h455zM768 -329q-42 0 -63.5 28.5t-21.5 59.5q0 36 22.5 62.5t62.5 26.5t62.5 -27t22.5 -62q0 -36 -22.5 -62t-62.5 -26z"/>
<glyph glyph-name="uni1E05" unicode="ḅ" horiz-adv-x="1347" d="M755 -4q-305 0 -428 256v-252h-117v1484h117v-690q124 256 425 256q145 0 270 -72t193 -227q42 -99 42 -230q0 -154 -68.5 -282.5t-213.5 -198.5q-94 -44 -220 -44zM733 101q131 0 221.5 59t137 155.5t46.5 208.5q0 81 -24.5 156.5t-74.5 135.5t-126 95.5t-180 35.5 q-119 0 -219 -57.5t-153 -179.5q-34 -80 -34 -186q0 -117 53 -222t173 -165q76 -36 180 -36zM733 -329q-42 0 -63.5 28.5t-21.5 59.5q0 36 22.5 62.5t62.5 26.5q41 0 63.5 -27t22.5 -62t-23 -61.5t-63 -26.5z"/>
<glyph glyph-name="uni1E06" unicode="Ḇ" horiz-adv-x="1442" d="M813 0h-586v1399h580q123 0 224 -34t161 -110.5t60 -203.5q0 -120 -64.5 -204t-200.5 -115q166 -31 248 -125t82 -229q0 -128 -65 -212t-178.5 -125t-260.5 -41zM802 112q171 0 273 59q121 69 121 221q0 135 -104.5 204.5t-289.5 69.5h-455v-554h455zM802 777 q166 0 245 69t82 189q0 86 -39.5 140.5t-113 82t-174.5 29.5h-455v-510h455zM1040 -256h-545v84h545v-84z"/>
<glyph glyph-name="uni1E07" unicode="ḇ" horiz-adv-x="1347" d="M755 -4q-305 0 -428 256v-252h-117v1484h117v-690q124 256 425 256q145 0 270 -72t193 -227q42 -99 42 -230q0 -154 -68.5 -282.5t-213.5 -198.5q-94 -44 -220 -44zM733 101q131 0 221.5 59t137 155.5t46.5 208.5q0 81 -24.5 156.5t-74.5 135.5t-126 95.5t-180 35.5 q-119 0 -219 -57.5t-153 -179.5q-34 -80 -34 -186q0 -117 53 -222t173 -165q76 -36 180 -36zM1005 -256h-544v84h544v-84z"/>
<glyph glyph-name="uni1E08" unicode="Ḉ" horiz-adv-x="1403" d="M772 -430q-87 0 -166 43l29 80q56 -34 125 -34q61 0 88 27.5t27 62.5q0 34 -27.5 59t-82.5 25h-60l47 158q-199 21 -362 128t-250 304q-53 125 -53 281q0 180 88.5 342t250.5 261q170 103 387 103q285 0 501 -198l-73 -86q-185 174 -427 174q-255 0 -430 -174 q-177 -171 -177 -427q0 -114 42.5 -221t121.5 -191.5t191.5 -134t251.5 -49.5q242 0 427 170l75 -79q-200 -186 -475 -203l-32 -99q162 -28 162 -152q0 -77 -54 -123.5t-145 -46.5zM784 1537l-108 14l241 243l120 -55z"/>
<glyph glyph-name="uni1E09" unicode="ḉ" horiz-adv-x="1119" d="M559 -430q-87 0 -166 43l30 80q56 -34 124 -34q61 0 88 28t27 62q0 31 -25.5 57.5t-83.5 26.5h-61l51 166q-210 26 -331 162t-121 362q0 165 68.5 283t185 181t261.5 63q239 0 388 -150l-66 -81q-128 124 -318 124q-121 0 -220 -58.5t-151 -180.5q-33 -79 -33 -181 q0 -131 54.5 -225.5t146 -145.5t203.5 -51q210 0 333 141l69 -71q-137 -162 -382 -174l-33 -105q85 -15 123.5 -56t38.5 -96q0 -72 -51 -121t-149 -49zM595 1293l-108 14l242 242l119 -54z"/>
<glyph glyph-name="uni1E0A" unicode="Ḋ" horiz-adv-x="1593" d="M786 0h-559v1399h468q122 0 225.5 -14t196 -58t182.5 -131q103 -100 155 -223t52 -276q0 -294 -208 -496q-210 -201 -512 -201zM789 112q247 0 421.5 166.5t174.5 419.5q0 259 -177.5 424t-422.5 165h-438v-1175h442zM803 1537q-44 0 -65 27.5t-21 60.5q0 40 25 64t61 24 q33 0 59 -23.5t26 -64.5q0 -35 -22.5 -61.5t-62.5 -26.5z"/>
<glyph glyph-name="uni1E0B" unicode="ḋ" horiz-adv-x="1354" d="M598 -7q-145 0 -260 64.5t-181 184t-66 282.5q0 152 62 271.5t175.5 188.5t268.5 69q160 0 266.5 -69.5t163.5 -190.5v691h117v-1484h-117v252q-59 -122 -165 -190.5t-264 -68.5zM618 96q112 0 205 50.5t148.5 146t55.5 228.5q0 116 -50 213.5t-142 156t-217 58.5 q-119 0 -211.5 -54t-145.5 -150t-53 -224q0 -79 23.5 -154t74.5 -136t132 -99q77 -36 180 -36zM559 1184q-43 0 -64 27.5t-21 60.5q0 41 25 64.5t60 23.5q34 0 60 -23.5t26 -64.5q0 -33 -21.5 -60.5t-64.5 -27.5z"/>
<glyph glyph-name="uni1E0C" unicode="Ḍ" horiz-adv-x="1593" d="M786 0h-559v1399h468q122 0 225.5 -14t196 -58t182.5 -131q103 -100 155 -223t52 -276q0 -294 -208 -496q-210 -201 -512 -201zM789 112q247 0 421.5 166.5t174.5 419.5q0 259 -177.5 424t-422.5 165h-438v-1175h442zM774 -329q-42 0 -63.5 28.5t-21.5 59.5 q0 36 22.5 62.5t62.5 26.5q33 0 59 -24t26 -65q0 -36 -23 -62t-62 -26z"/>
<glyph glyph-name="uni1E0D" unicode="ḍ" horiz-adv-x="1354" d="M598 -7q-145 0 -260 64.5t-181 184t-66 282.5q0 152 62 271.5t175.5 188.5t268.5 69q160 0 266.5 -69.5t163.5 -190.5v691h117v-1484h-117v252q-59 -122 -165 -190.5t-264 -68.5zM618 96q112 0 205 50.5t148.5 146t55.5 228.5q0 116 -50 213.5t-142 156t-217 58.5 q-119 0 -211.5 -54t-145.5 -150t-53 -224q0 -79 23.5 -154t74.5 -136t132 -99q77 -36 180 -36zM683 -329q-42 0 -64 27.5t-22 60.5q0 36 22.5 62.5t63.5 26.5q33 0 59 -24t26 -65q0 -36 -22.5 -62t-62.5 -26z"/>
<glyph glyph-name="uni1E0E" unicode="Ḏ" horiz-adv-x="1593" d="M786 0h-559v1399h468q122 0 225.5 -14t196 -58t182.5 -131q103 -100 155 -223t52 -276q0 -294 -208 -496q-210 -201 -512 -201zM789 112q247 0 421.5 166.5t174.5 419.5q0 259 -177.5 424t-422.5 165h-438v-1175h442zM1045 -256h-545v84h545v-84z"/>
<glyph glyph-name="uni1E0F" unicode="ḏ" horiz-adv-x="1354" d="M598 -7q-145 0 -260 64.5t-181 184t-66 282.5q0 152 62 271.5t175.5 188.5t268.5 69q160 0 266.5 -69.5t163.5 -190.5v691h117v-1484h-117v252q-59 -122 -165 -190.5t-264 -68.5zM618 96q112 0 205 50.5t148.5 146t55.5 228.5q0 116 -50 213.5t-142 156t-217 58.5 q-119 0 -211.5 -54t-145.5 -150t-53 -224q0 -79 23.5 -154t74.5 -136t132 -99q77 -36 180 -36zM953 -256h-544v84h544v-84z"/>
<glyph glyph-name="uni1E10" unicode="Ḑ" horiz-adv-x="1593" d="M786 0h-559v1399h468q122 0 225.5 -14t196 -58t182.5 -131q103 -100 155 -223t52 -276q0 -294 -208 -496q-210 -201 -512 -201zM789 112q247 0 421.5 166.5t174.5 419.5q0 259 -177.5 424t-422.5 165h-438v-1175h442zM803 -432h-89l76 309h111z"/>
<glyph glyph-name="uni1E11" unicode="ḑ" horiz-adv-x="1354" d="M598 -7q-145 0 -260 64.5t-181 184t-66 282.5q0 152 62 271.5t175.5 188.5t268.5 69q160 0 266.5 -69.5t163.5 -190.5v691h117v-1484h-117v252q-59 -122 -165 -190.5t-264 -68.5zM618 96q112 0 205 50.5t148.5 146t55.5 228.5q0 116 -50 213.5t-142 156t-217 58.5 q-119 0 -211.5 -54t-145.5 -150t-53 -224q0 -79 23.5 -154t74.5 -136t132 -99q77 -36 180 -36zM611 -432h-90l76 309h112z"/>
<glyph glyph-name="uni1E12" unicode="Ḓ" horiz-adv-x="1593" d="M786 0h-559v1399h468q122 0 225.5 -14t196 -58t182.5 -131q103 -100 155 -223t52 -276q0 -294 -208 -496q-210 -201 -512 -201zM789 112q247 0 421.5 166.5t174.5 419.5q0 259 -177.5 424t-422.5 165h-438v-1175h442zM1072 -401h-121l-148 158l-148 -158h-122l203 245 h133z"/>
<glyph glyph-name="uni1E13" unicode="ḓ" horiz-adv-x="1354" d="M598 -7q-145 0 -260 64.5t-181 184t-66 282.5q0 152 62 271.5t175.5 188.5t268.5 69q160 0 266.5 -69.5t163.5 -190.5v691h117v-1484h-117v252q-59 -122 -165 -190.5t-264 -68.5zM618 96q112 0 205 50.5t148.5 146t55.5 228.5q0 116 -50 213.5t-142 156t-217 58.5 q-119 0 -211.5 -54t-145.5 -150t-53 -224q0 -79 23.5 -154t74.5 -136t132 -99q77 -36 180 -36zM887 -401h-121l-148 158l-148 -158h-121l202 245h134z"/>
<glyph glyph-name="uni1E14" unicode="Ḕ" horiz-adv-x="1297" d="M1178 0h-951v1399h924v-112h-804v-519h718v-111h-718v-545h831v-112zM947 1543h-464v85h464v-85zM740 1737l-283 156l99 70l282 -194z"/>
<glyph glyph-name="uni1E15" unicode="ḕ" horiz-adv-x="1177" d="M606 -4q-100 0 -193.5 33t-165.5 99t-114 163.5t-42 222.5v9q0 227 121 358q141 161 393 169q228 0 355 -141q116 -130 129 -348q4 -38 4 -76h-886q7 -94 40.5 -167.5t87.5 -122.5t125.5 -74t153.5 -25q206 0 339 139l67 -69q-159 -170 -414 -170zM986 581 q-17 252 -215 340q-70 29 -166 29q-123 0 -206.5 -47.5t-131 -130.5t-60.5 -191h779zM833 1228h-464v85h464v-85zM626 1423l-283 155l99 70l282 -194z"/>
<glyph glyph-name="uni1E16" unicode="Ḗ" horiz-adv-x="1297" d="M1178 0h-951v1399h924v-112h-804v-519h718v-111h-718v-545h831v-112zM921 1543h-464v85h464v-85zM661 1737l-98 32l282 194l100 -70z"/>
<glyph glyph-name="uni1E17" unicode="ḗ" horiz-adv-x="1177" d="M606 -4q-100 0 -193.5 33t-165.5 99t-114 163.5t-42 222.5v9q0 227 121 358q141 161 393 169q228 0 355 -141q116 -130 129 -348q4 -38 4 -76h-886q7 -94 40.5 -167.5t87.5 -122.5t125.5 -74t153.5 -25q206 0 339 139l67 -69q-159 -170 -414 -170zM986 581 q-17 252 -215 340q-70 29 -166 29q-123 0 -206.5 -47.5t-131 -130.5t-60.5 -191h779zM841 1228h-465v85h465v-85zM581 1423l-98 31l282 194l99 -70z"/>
<glyph glyph-name="uni1E18" unicode="Ḙ" horiz-adv-x="1297" d="M1178 0h-951v1399h924v-112h-804v-519h718v-111h-718v-545h831v-112zM972 -401h-121l-148 158l-148 -158h-122l203 245h133z"/>
<glyph glyph-name="uni1E19" unicode="ḙ" horiz-adv-x="1177" d="M606 -4q-100 0 -193.5 33t-165.5 99t-114 163.5t-42 222.5v9q0 227 121 358q141 161 393 169q228 0 355 -141q116 -130 129 -348q4 -38 4 -76h-886q7 -94 40.5 -167.5t87.5 -122.5t125.5 -74t153.5 -25q206 0 339 139l67 -69q-159 -170 -414 -170zM986 581 q-17 252 -215 340q-70 29 -166 29q-123 0 -206.5 -47.5t-131 -130.5t-60.5 -191h779zM862 -401h-121l-148 158l-148 -158h-122l203 245h133z"/>
<glyph glyph-name="uni1E1A" unicode="Ḛ" horiz-adv-x="1297" d="M1178 0h-951v1399h924v-112h-804v-519h718v-111h-718v-545h831v-112zM837 -385q-32 0 -72.5 19.5t-79.5 42.5t-64 33t-44 10q-22 0 -36 -13q-41 -17 -41 -84h-86q0 206 153 206q29 0 67.5 -18.5t74.5 -39.5q78 -47 117 -47q21 0 36 13q41 15 41 84h86q0 -206 -152 -206z "/>
<glyph glyph-name="uni1E1B" unicode="ḛ" horiz-adv-x="1177" d="M606 -4q-100 0 -193.5 33t-165.5 99t-114 163.5t-42 222.5v9q0 227 121 358q141 161 393 169q228 0 355 -141q116 -130 129 -348q4 -38 4 -76h-886q7 -94 40.5 -167.5t87.5 -122.5t125.5 -74t153.5 -25q206 0 339 139l67 -69q-159 -170 -414 -170zM986 581 q-17 252 -215 340q-70 29 -166 29q-123 0 -206.5 -47.5t-131 -130.5t-60.5 -191h779zM727 -385q-32 0 -72.5 19.5t-79.5 42.5t-64 33t-44 10q-22 0 -36 -13q-41 -17 -41 -84h-86q0 206 153 206q29 0 67.5 -18.5t74.5 -39.5q78 -47 117 -47q21 0 36 13q41 15 41 84h86 q0 -206 -152 -206z"/>
<glyph glyph-name="uni1E1C" unicode="Ḝ" horiz-adv-x="1297" d="M693 -430q-89 0 -166 43l29 80q56 -34 125 -34q60 0 87 28t27 62q0 31 -25.5 57.5t-83.5 26.5h-61l51 167h-449v1399h924v-112h-804v-519h718v-111h-718v-545h831v-112h-413l-35 -108q86 -15 124 -56.5t38 -95.5q0 -76 -53.5 -123t-145.5 -47zM678 1536 q-96 0 -161.5 60.5t-77.5 181.5h86q7 -70 44 -112t109 -42q131 0 151 154h88q-10 -109 -70 -175.5t-169 -66.5z"/>
<glyph glyph-name="uni1E1D" unicode="ḝ" horiz-adv-x="1177" d="M575 -430q-87 0 -166 43l30 80q53 -34 124 -34q60 0 87.5 28t27.5 62q0 31 -25.5 57.5t-83.5 26.5h-61l49 165q-94 9 -178 45t-148.5 100.5t-102 158.5t-37.5 221q0 170 69 286t185 176.5t260 64.5q158 0 263.5 -66t160.5 -178.5t62 -255.5q2 -30 2 -65h-886 q15 -178 121 -283.5t286 -105.5q206 0 339 139l67 -69q-140 -152 -374 -169l-33 -105q85 -15 123.5 -55.5t38.5 -96.5q0 -72 -51 -121t-149 -49zM986 581q-17 252 -215 340q-70 29 -166 29q-123 0 -206.5 -47.5t-131 -130.5t-60.5 -191h779zM585 1287q-96 0 -161.5 60.5 t-78.5 181.5h87q7 -70 44 -112t109 -42q131 0 151 154h88q-10 -109 -70 -175.5t-169 -66.5z"/>
<glyph glyph-name="uni1E1E" unicode="Ḟ" horiz-adv-x="1114" d="M347 0h-120v1399h864v-112h-744v-558h663v-111h-663v-618zM660 1537q-43 0 -64 27.5t-21 60.5q0 40 24.5 64t60.5 24q33 0 59 -23.5t26 -64.5q0 -35 -22 -61.5t-63 -26.5z"/>
<glyph glyph-name="uni1E1F" unicode="ḟ" horiz-adv-x="639" d="M342 0h-116v923h-134v95h134v139q0 105 42.5 182t115.5 119t165 42q91 -5 174 -48l-33 -98q-65 39 -140 39q-55 0 -102 -24.5t-76.5 -74t-29.5 -125.5v-151h313v-95h-313v-923zM545 1638q-44 0 -65 27.5t-21 60.5q0 40 25 64t61 24q33 0 59 -23.5t26 -64.5 q0 -35 -22.5 -61.5t-62.5 -26.5z"/>
<glyph glyph-name="uni1E20" unicode="Ḡ" horiz-adv-x="1511" d="M813 -4q-312 0 -519 208.5t-207 483.5q0 54 5 99q14 134 85 257q93 165 251 257q176 101 390 101q287 0 504 -188l-70 -86q-191 164 -434 164q-253 0 -432 -173.5t-179 -418.5q0 -244 179 -421q181 -173 433 -173q210 0 393 132l-1 406h-399v112h508v-578 q-220 -182 -507 -182zM1017 1551h-626v84h626v-84z"/>
<glyph glyph-name="uni1E21" unicode="ḡ" horiz-adv-x="1268" d="M579 -391q-236 0 -427 163l57 85q160 -145 366 -145q114 0 205.5 44.5t145 133t53.5 219.5v179q-117 -245 -408 -245q-133 0 -242 59t-173.5 171.5t-64.5 273.5q0 160 63.5 270.5t171 169t243.5 63.5q297 -7 410 -245v241h117v-886q0 -248 -113 -390q-129 -161 -404 -161 zM590 141q111 0 199 48.5t139 139t51 216.5q0 116 -49 208t-136.5 145t-203.5 53q-170 0 -276 -106t-113 -300q3 -163 90 -275q101 -129 299 -129zM873 1305h-545v84h545v-84z"/>
<glyph glyph-name="uni1E22" unicode="Ḣ" horiz-adv-x="1591" d="M1365 0h-120v642h-898v-642h-120v1399h120v-646h898v646h120v-1399zM796 1537q-43 0 -64 27.5t-21 60.5q0 40 24.5 64t60.5 24q33 0 59 -23.5t26 -64.5q0 -35 -22 -61.5t-63 -26.5z"/>
<glyph glyph-name="uni1E23" unicode="ḣ" horiz-adv-x="1316" d="M269 1622q-44 0 -65 27.5t-21 60.5q0 40 25 64t61 24q33 0 59 -23.5t26 -64.5q0 -35 -22.5 -61.5t-62.5 -26.5zM1149 0h-118v614q0 160 -88 241.5t-232 81.5q-183 -13 -283.5 -121t-100.5 -303v-513h-117v1484h117v-695q112 258 420 261q142 0 230.5 -53.5t130 -146 t41.5 -209.5v-641z"/>
<glyph glyph-name="uni1E24" unicode="Ḥ" horiz-adv-x="1591" d="M1365 0h-120v642h-898v-642h-120v1399h120v-646h898v646h120v-1399zM796 -329q-42 0 -63.5 28.5t-21.5 59.5q0 36 22.5 62.5t62.5 26.5q33 0 59 -24t26 -65q0 -36 -22.5 -62t-62.5 -26z"/>
<glyph glyph-name="uni1E25" unicode="ḥ" horiz-adv-x="1316" d="M1149 0h-118v614q0 160 -88 241.5t-232 81.5q-183 -13 -283.5 -121t-100.5 -303v-513h-117v1484h117v-695q112 258 420 261q142 0 230.5 -53.5t130 -146t41.5 -209.5v-641zM680 -329q-42 0 -63.5 28.5t-21.5 59.5q0 36 22.5 62.5t62.5 26.5q33 0 59 -24t26 -65 q0 -36 -22.5 -62t-62.5 -26z"/>
<glyph glyph-name="uni1E26" unicode="Ḧ" horiz-adv-x="1591" d="M1365 0h-120v642h-898v-642h-120v1399h120v-646h898v646h120v-1399zM633 1537q-39 0 -59.5 26t-20.5 57q0 37 24 60t56 23t56 -22t24 -61q0 -29 -20 -56t-60 -27zM959 1537q-39 0 -59.5 26t-20.5 57q0 37 24 60t56 23t56 -22t24 -61q0 -29 -20 -56t-60 -27z"/>
<glyph glyph-name="uni1E27" unicode="ḧ" horiz-adv-x="1316" d="M106 1622q-39 0 -59.5 26t-20.5 57q0 37 24 59.5t56 22.5t56 -22.5t24 -59.5q0 -29 -20 -56t-60 -27zM1149 0h-118v614q0 160 -88 241.5t-232 81.5q-183 -13 -283.5 -121t-100.5 -303v-513h-117v1484h117v-695q112 258 420 261q142 0 230.5 -53.5t130 -146t41.5 -209.5 v-641zM431 1622q-39 0 -59.5 26t-20.5 57q0 37 24 59.5t56 22.5t56 -22.5t24 -59.5q0 -29 -20 -56t-60 -27z"/>
<glyph glyph-name="uni1E28" unicode="Ḩ" horiz-adv-x="1591" d="M259 -430q-87 0 -166 43l30 80q56 -34 124 -34q61 0 88 28t27 62q0 33 -26.5 58.5t-82.5 25.5h-61l54 180l85 -13l-34 -108q86 -15 124 -56t38 -96q0 -75 -54.5 -122.5t-145.5 -47.5zM1365 0h-120v642h-898v-642h-120v1399h120v-646h898v646h120v-1399z"/>
<glyph glyph-name="uni1E29" unicode="ḩ" horiz-adv-x="1316" d="M241 -430q-87 0 -166 43l30 80q56 -34 124 -34q61 0 88 28t27 62q0 33 -26.5 58.5t-82.5 25.5h-61l54 180l85 -13l-34 -108q86 -15 124 -56t38 -96q0 -75 -54.5 -122.5t-145.5 -47.5zM1149 0h-118v614q0 160 -88 241.5t-232 81.5q-183 -13 -283.5 -121t-100.5 -303v-513 h-117v1484h117v-695q112 258 420 261q142 0 230.5 -53.5t130 -146t41.5 -209.5v-641z"/>
<glyph glyph-name="uni1E2A" unicode="Ḫ" horiz-adv-x="1591" d="M1365 0h-120v642h-898v-642h-120v1399h120v-646h898v646h120v-1399zM796 -342q-98 0 -162.5 61t-76.5 181h86q7 -67 43.5 -110.5t109.5 -43.5q131 0 151 154h88q-10 -109 -70 -175.5t-169 -66.5z"/>
<glyph glyph-name="uni1E2B" unicode="ḫ" horiz-adv-x="1316" d="M1149 0h-118v614q0 160 -88 241.5t-232 81.5q-183 -13 -283.5 -121t-100.5 -303v-513h-117v1484h117v-695q112 258 420 261q142 0 230.5 -53.5t130 -146t41.5 -209.5v-641zM680 -342q-98 0 -162.5 61t-76.5 181h86q7 -67 43.5 -110.5t109.5 -43.5q131 0 151 154h88 q-10 -109 -70 -175.5t-169 -66.5z"/>
<glyph glyph-name="uni1E2C" unicode="Ḭ" horiz-adv-x="573" d="M421 -385q-69 0 -149 64q-68 52 -107 52q-81 0 -81 -108h-86q0 206 153 206q69 0 149 -65q68 -52 106 -52q81 0 81 109h86q0 -206 -152 -206zM347 0h-120v1399h120v-1399z"/>
<glyph glyph-name="uni1E2D" unicode="ḭ" horiz-adv-x="516" d="M391 -385q-69 0 -148 64q-68 52 -107 52q-81 0 -81 -108h-86q0 206 152 206q70 0 150 -65q67 -52 106 -52q80 0 81 109h86q0 -206 -153 -206zM257 1259q-43 0 -64 27.5t-21 60.5q0 36 22 62.5t63 26.5q34 0 60 -24t26 -65q0 -33 -21.5 -60.5t-64.5 -27.5zM316 0h-116 v1046h116v-1046z"/>
<glyph glyph-name="uni1E2E" unicode="Ḯ" horiz-adv-x="573" d="M124 1537q-34 0 -56.5 24t-22.5 58q0 39 25 59.5t54 20.5q39 0 59 -24t20 -56q0 -31 -20 -56.5t-59 -25.5zM312 571l-123 6l102 991l118 -9zM376 1021q-61 138 -61 296q0 91 18.5 164t42.5 132h13q23 -59 42.5 -132t19.5 -164q0 -156 -62 -296h-13zM308 1688 q-47 13 -93 31l36 39l18 19q63 64 138 108q58 -29 105 -78q-62 -49 -142 -85z"/>
<glyph glyph-name="uni1E2F" unicode="ḯ" horiz-adv-x="516" d="M95 1227q-33 0 -56 23.5t-23 57.5q0 43 25 61.5t54 18.5q39 0 58.5 -23.5t19.5 -56.5q0 -31 -19.5 -56t-58.5 -25zM215 1432l-98 31l282 194l99 -70zM316 0h-116v1046h116v-1046zM389 1227q-32 0 -55 23t-23 58q0 43 25 61.5t53 18.5q30 0 54.5 -20.5t24.5 -59.5 q0 -31 -21 -56t-58 -25z"/>
<glyph glyph-name="uni1E30" unicode="Ḱ" horiz-adv-x="1379" d="M1329 0h-147l-544 691l-291 -318v-373h-120v1399h120v-867l796 867h146l-566 -616zM767 1537l-108 14l241 243l119 -55z"/>
<glyph glyph-name="uni1E31" unicode="ḱ" horiz-adv-x="1123" d="M257 1622l-108 14l241 243l119 -55zM1097 0h-140l-384 557l-246 -252v-305h-117v1484h117v-1023l581 585h141l-394 -404z"/>
<glyph glyph-name="uni1E32" unicode="Ḳ" horiz-adv-x="1379" d="M1329 0h-147l-544 691l-291 -318v-373h-120v1399h120v-867l796 867h146l-566 -616zM779 -329q-42 0 -64 27.5t-22 60.5q0 36 22.5 62.5t63.5 26.5q40 0 62.5 -27t22.5 -62q0 -36 -22.5 -62t-62.5 -26z"/>
<glyph glyph-name="uni1E33" unicode="ḳ" horiz-adv-x="1123" d="M1097 0h-140l-384 557l-246 -252v-305h-117v1484h117v-1023l581 585h141l-394 -404zM654 -329q-42 0 -63.5 28.5t-21.5 59.5q0 36 22.5 62.5t62.5 26.5t62.5 -27t22.5 -62q0 -36 -22.5 -62t-62.5 -26z"/>
<glyph glyph-name="uni1E34" unicode="Ḵ" horiz-adv-x="1379" d="M1329 0h-147l-544 691l-291 -318v-373h-120v1399h120v-867l796 867h146l-566 -616zM1051 -256h-545v84h545v-84z"/>
<glyph glyph-name="uni1E35" unicode="ḵ" horiz-adv-x="1123" d="M1097 0h-140l-384 557l-246 -252v-305h-117v1484h117v-1023l581 585h141l-394 -404zM926 -256h-545v84h545v-84z"/>
<glyph glyph-name="uni1E36" unicode="Ḷ" horiz-adv-x="1017" d="M965 0h-738v1399h120v-1287h618v-112zM597 -329q-42 0 -64 27.5t-22 60.5q0 36 22.5 62.5t63.5 26.5q33 0 59 -24t26 -65q0 -36 -23 -62t-62 -26z"/>
<glyph glyph-name="uni1E37" unicode="ḷ" horiz-adv-x="559" d="M330 -329q-42 0 -63.5 28.5t-21.5 59.5q0 36 22.5 62.5t62.5 26.5t62.5 -27t22.5 -62q0 -36 -23 -62t-62 -26zM377 -4q-17 0 -44 9t-57 30q-91 40 -93 193v1256h115v-1244q0 -135 103 -135q56 0 114 50l28 -93q-84 -66 -166 -66z"/>
<glyph glyph-name="uni1E38" unicode="Ḹ" horiz-adv-x="1017" d="M599 1551h-626v84h626v-84zM965 0h-738v1399h120v-1287h618v-112zM597 -329q-42 0 -64 27.5t-22 60.5q0 36 22.5 62.5t63.5 26.5q33 0 59 -24t26 -65q0 -36 -23 -62t-62 -26z"/>
<glyph glyph-name="uni1E39" unicode="ḹ" horiz-adv-x="559" d="M553 1636h-626v84h626v-84zM330 -329q-42 0 -63.5 28.5t-21.5 59.5q0 36 22.5 62.5t62.5 26.5t62.5 -27t22.5 -62q0 -36 -23 -62t-62 -26zM377 -4q-17 0 -44 9t-57 30q-91 40 -93 193v1256h115v-1244q0 -135 103 -135q56 0 114 50l28 -93q-84 -66 -166 -66z"/>
<glyph glyph-name="uni1E3A" unicode="Ḻ" horiz-adv-x="1017" d="M965 0h-738v1399h120v-1287h618v-112zM867 -256h-544v84h544v-84z"/>
<glyph glyph-name="uni1E3B" unicode="ḻ" horiz-adv-x="559" d="M638 -256h-545v84h545v-84zM377 -4q-17 0 -44 9t-57 30q-91 40 -93 193v1256h115v-1244q0 -135 103 -135q56 0 114 50l28 -93q-84 -66 -166 -66z"/>
<glyph glyph-name="uni1E3C" unicode="Ḽ" horiz-adv-x="1017" d="M965 0h-738v1399h120v-1287h618v-112zM866 -401h-121l-148 158l-148 -158h-122l203 245h133z"/>
<glyph glyph-name="uni1E3D" unicode="ḽ" horiz-adv-x="559" d="M648 -401h-121l-148 158l-148 -158h-122l203 245h133zM377 -4q-17 0 -44 9t-57 30q-91 40 -93 193v1256h115v-1244q0 -135 103 -135q56 0 114 50l28 -93q-84 -66 -166 -66z"/>
<glyph glyph-name="uni1E3E" unicode="Ḿ" horiz-adv-x="1873" d="M1647 0h-114l-2 1231l-563 -1081h-63l-566 1081v-1231h-112v1399h152l560 -1066l554 1066h154v-1399zM925 1537l-108 14l241 243l119 -55z"/>
<glyph glyph-name="uni1E3F" unicode="ḿ" horiz-adv-x="2089" d="M1923 0h-117v614q0 111 -41 182.5t-112 106.5t-160 35q-190 -20 -281 -134.5t-91 -289.5v-514h-118v614q0 150 -81 237t-233 87q-178 -15 -275.5 -122t-97.5 -302v-514h-116v1046h116v-257q110 257 411 261q305 0 382 -288q102 284 421 288q137 0 224 -55t128 -147.5 t41 -206.5v-641zM1051 1236l-108 14l241 243l119 -55z"/>
<glyph glyph-name="uni1E40" unicode="Ṁ" horiz-adv-x="1873" d="M1647 0h-114l-2 1231l-563 -1081h-63l-566 1081v-1231h-112v1399h152l560 -1066l554 1066h154v-1399zM937 1537q-44 0 -65 27.5t-21 60.5q0 40 25 64t61 24q33 0 59 -23.5t26 -64.5q0 -35 -22.5 -61.5t-62.5 -26.5z"/>
<glyph glyph-name="uni1E41" unicode="ṁ" horiz-adv-x="2089" d="M1923 0h-117v614q0 111 -41 182.5t-112 106.5t-160 35q-190 -20 -281 -134.5t-91 -289.5v-514h-118v614q0 150 -81 237t-233 87q-178 -15 -275.5 -122t-97.5 -302v-514h-116v1046h116v-257q110 257 411 261q305 0 382 -288q102 284 421 288q137 0 224 -55t128 -147.5 t41 -206.5v-641zM1063 1259q-44 0 -65 27.5t-21 60.5q0 35 22.5 62t63.5 27q35 0 60 -24t25 -65q0 -35 -22.5 -61.5t-62.5 -26.5z"/>
<glyph glyph-name="uni1E42" unicode="Ṃ" horiz-adv-x="1873" d="M1647 0h-114l-2 1231l-563 -1081h-63l-566 1081v-1231h-112v1399h152l560 -1066l554 1066h154v-1399zM937 -329q-42 0 -64 27.5t-22 60.5q0 36 22.5 62.5t63.5 26.5q33 0 59 -24t26 -65q0 -36 -22.5 -62t-62.5 -26z"/>
<glyph glyph-name="uni1E43" unicode="ṃ" horiz-adv-x="2089" d="M1923 0h-117v614q0 111 -41 182.5t-112 106.5t-160 35q-190 -20 -281 -134.5t-91 -289.5v-514h-118v614q0 150 -81 237t-233 87q-178 -15 -275.5 -122t-97.5 -302v-514h-116v1046h116v-257q110 257 411 261q305 0 382 -288q102 284 421 288q137 0 224 -55t128 -147.5 t41 -206.5v-641zM1063 -329q-42 0 -64 27.5t-22 60.5q0 36 22.5 62.5t63.5 26.5q40 0 62.5 -27t22.5 -62q0 -36 -22.5 -62t-62.5 -26z"/>
<glyph glyph-name="uni1E44" unicode="Ṅ" horiz-adv-x="1593" d="M1365 0h-130l-888 1213v-1213h-120v1399h130l889 -1212v1212h119v-1399zM823 1537q-43 0 -64 27.5t-21 60.5q0 41 25 64.5t60 23.5q34 0 60 -23.5t26 -64.5q0 -33 -22.5 -60.5t-63.5 -27.5z"/>
<glyph glyph-name="uni1E45" unicode="ṅ" horiz-adv-x="1304" d="M1137 0h-118v614q0 160 -88 241.5t-232 81.5q-355 -25 -382 -374v-563h-117v1046h117v-252q113 251 418 256q142 0 230.5 -53.5t130 -146t41.5 -209.5v-641zM687 1259q-44 0 -65 27.5t-21 60.5q0 35 22.5 62t63.5 27q35 0 60 -24t25 -65q0 -35 -22.5 -61.5t-62.5 -26.5z "/>
<glyph glyph-name="uni1E46" unicode="Ṇ" horiz-adv-x="1593" d="M1365 0h-130l-888 1213v-1213h-120v1399h130l889 -1212v1212h119v-1399zM791 -329q-42 0 -63.5 28.5t-21.5 59.5q0 36 22.5 62.5t62.5 26.5q34 0 60 -24t26 -65q0 -36 -24 -62t-62 -26z"/>
<glyph glyph-name="uni1E47" unicode="ṇ" horiz-adv-x="1304" d="M1137 0h-118v614q0 160 -88 241.5t-232 81.5q-355 -25 -382 -374v-563h-117v1046h117v-252q113 251 418 256q142 0 230.5 -53.5t130 -146t41.5 -209.5v-641zM659 -329q-42 0 -63.5 28.5t-21.5 59.5q0 36 22.5 62.5t62.5 26.5q34 0 60 -24t26 -65q0 -36 -24 -62t-62 -26z "/>
<glyph glyph-name="uni1E48" unicode="Ṉ" horiz-adv-x="1593" d="M1365 0h-130l-888 1213v-1213h-120v1399h130l889 -1212v1212h119v-1399zM1062 -256h-545v84h545v-84z"/>
<glyph glyph-name="uni1E49" unicode="ṉ" horiz-adv-x="1304" d="M1137 0h-118v614q0 160 -88 241.5t-232 81.5q-355 -25 -382 -374v-563h-117v1046h117v-252q113 251 418 256q142 0 230.5 -53.5t130 -146t41.5 -209.5v-641zM930 -256h-545v84h545v-84z"/>
<glyph glyph-name="uni1E4A" unicode="Ṋ" horiz-adv-x="1593" d="M1365 0h-130l-888 1213v-1213h-120v1399h130l889 -1212v1212h119v-1399zM1065 -401h-121l-148 158l-148 -158h-121l202 245h134z"/>
<glyph glyph-name="uni1E4B" unicode="ṋ" horiz-adv-x="1304" d="M1137 0h-118v614q0 160 -88 241.5t-232 81.5q-355 -25 -382 -374v-563h-117v1046h117v-252q113 251 418 256q142 0 230.5 -53.5t130 -146t41.5 -209.5v-641zM938 -401h-121l-148 158l-148 -158h-122l203 245h133z"/>
<glyph glyph-name="uni1E4C" unicode="Ṍ" horiz-adv-x="1629" d="M823 -10h-10q-314 0 -520 211t-206 498q0 307 212 506q214 205 519 205q309 0 516 -208q106 -104 157.5 -227t51.5 -278q0 -299 -213.5 -503t-506.5 -204zM815 101q249 0 427 175.5t178 425.5q0 245 -177.5 420.5t-427.5 175.5t-428.5 -174t-178.5 -422q0 -251 180 -426 q183 -175 427 -175zM951 1535q-33 2 -74.5 19t-81.5 38q-41 20 -66 28.5t-44 8.5q-23 0 -38 -13q-41 -15 -42 -75h-76q0 182 152 182q37 -4 78 -21t78 -35q72 -37 111 -37q23 0 38 12q41 15 41 73h74q0 -48 -14.5 -89t-47.5 -66t-88 -25zM791 1797l-98 31l282 194l100 -70z "/>
<glyph glyph-name="uni1E4D" unicode="ṍ" horiz-adv-x="1228" d="M614 -4q-102 0 -195 31.5t-167 97.5t-119 171q-42 99 -42 229q0 163 70.5 280.5t189 181t263.5 63.5q98 0 191.5 -31.5t168 -96t119 -163.5t44.5 -234q0 -155 -66 -274.5t-183.5 -187t-273.5 -67.5zM614 100q75 0 148 24t130.5 75t92.5 131.5t35 192.5q0 179 -104 297 q-112 125 -302 125q-82 0 -155.5 -26.5t-129.5 -79t-88.5 -132t-32.5 -184.5v-8q0 -105 34 -182.5t91 -130t130 -77.5t151 -25zM750 1222q-33 2 -74.5 19t-81.5 38q-41 20 -66 28t-44 8q-23 0 -38 -12q-42 -16 -42 -75h-76q0 182 152 182q35 -4 75.5 -20.5t77.5 -34.5 q74 -38 113 -38q24 0 39 12q40 15 41 73h74q0 -48 -14.5 -89t-47.5 -66t-88 -25zM590 1483l-98 32l282 194l99 -70z"/>
<glyph glyph-name="uni1E4E" unicode="Ṏ" horiz-adv-x="1629" d="M823 -10h-10q-314 0 -520 211t-206 498q0 307 212 506q214 205 519 205q309 0 516 -208q106 -104 157.5 -227t51.5 -278q0 -299 -213.5 -503t-506.5 -204zM815 101q249 0 427 175.5t178 425.5q0 245 -177.5 420.5t-427.5 175.5t-428.5 -174t-178.5 -422q0 -251 180 -426 q183 -175 427 -175zM939 1535q-33 2 -74.5 19t-81.5 38q-41 20 -66 28.5t-44 8.5q-23 0 -38 -13q-41 -15 -42 -75h-76q0 182 152 182q37 -4 78 -21t78 -35q72 -37 111 -37q23 0 38 12q41 15 41 73h74q0 -48 -14.5 -89t-47.5 -66t-88 -25zM659 1797q-32 0 -55 23t-23 58 q0 41 24.5 60.5t53.5 19.5q40 0 59.5 -24t19.5 -56q0 -31 -20 -56t-59 -25zM954 1797q-33 0 -56 23.5t-23 57.5q0 42 25 61t54 19q30 0 54.5 -21t24.5 -59q0 -31 -21.5 -56t-57.5 -25z"/>
<glyph glyph-name="uni1E4F" unicode="ṏ" horiz-adv-x="1228" d="M614 -4q-102 0 -195 31.5t-167 97.5t-119 171q-42 99 -42 229q0 163 70.5 280.5t189 181t263.5 63.5q98 0 191.5 -31.5t168 -96t119 -163.5t44.5 -234q0 -155 -66 -274.5t-183.5 -187t-273.5 -67.5zM614 100q75 0 148 24t130.5 75t92.5 131.5t35 192.5q0 179 -104 297 q-112 125 -302 125q-82 0 -155.5 -26.5t-129.5 -79t-88.5 -132t-32.5 -184.5v-8q0 -105 34 -182.5t91 -130t130 -77.5t151 -25zM738 1222q-33 2 -74.5 19t-81.5 38q-41 20 -66 28t-44 8q-23 0 -38 -12q-42 -16 -42 -75h-76q0 182 152 182q35 -4 75.5 -20.5t77.5 -34.5 q74 -38 113 -38q24 0 39 12q40 15 41 73h74q0 -48 -14.5 -89t-47.5 -66t-88 -25zM458 1483q-34 0 -56.5 24t-22.5 58q0 42 25 61t54 19q39 0 59 -24.5t20 -55.5t-20 -56.5t-59 -25.5zM753 1483q-34 0 -56.5 24t-22.5 58q0 42 25 61t54 19t53.5 -21t24.5 -59q0 -33 -23 -57.5 t-55 -24.5z"/>
<glyph glyph-name="uni1E50" unicode="Ṑ" horiz-adv-x="1629" d="M823 -10h-10q-314 0 -520 211t-206 498q0 307 212 506q214 205 519 205q309 0 516 -208q106 -104 157.5 -227t51.5 -278q0 -299 -213.5 -503t-506.5 -204zM815 101q249 0 427 175.5t178 425.5q0 245 -177.5 420.5t-427.5 175.5t-428.5 -174t-178.5 -422q0 -251 180 -426 q183 -175 427 -175zM1061 1543h-465v85h465v-85zM853 1737l-283 156l99 70l282 -194z"/>
<glyph glyph-name="uni1E51" unicode="ṑ" horiz-adv-x="1228" d="M614 -4q-102 0 -195 31.5t-167 97.5t-119 171q-42 99 -42 229q0 163 70.5 280.5t189 181t263.5 63.5q98 0 191.5 -31.5t168 -96t119 -163.5t44.5 -234q0 -155 -66 -274.5t-183.5 -187t-273.5 -67.5zM614 100q75 0 148 24t130.5 75t92.5 131.5t35 192.5q0 179 -104 297 q-112 125 -302 125q-82 0 -155.5 -26.5t-129.5 -79t-88.5 -132t-32.5 -184.5v-8q0 -105 34 -182.5t91 -130t130 -77.5t151 -25zM855 1228h-465v85h465v-85zM647 1423l-283 155l99 70l282 -194z"/>
<glyph glyph-name="uni1E52" unicode="Ṓ" horiz-adv-x="1629" d="M823 -10h-10q-314 0 -520 211t-206 498q0 307 212 506q214 205 519 205q309 0 516 -208q106 -104 157.5 -227t51.5 -278q0 -299 -213.5 -503t-506.5 -204zM815 101q249 0 427 175.5t178 425.5q0 245 -177.5 420.5t-427.5 175.5t-428.5 -174t-178.5 -422q0 -251 180 -426 q183 -175 427 -175zM1035 1543h-465v85h465v-85zM775 1737l-98 32l282 194l99 -70z"/>
<glyph glyph-name="uni1E53" unicode="ṓ" horiz-adv-x="1228" d="M614 -4q-102 0 -195 31.5t-167 97.5t-119 171q-42 99 -42 229q0 163 70.5 280.5t189 181t263.5 63.5q98 0 191.5 -31.5t168 -96t119 -163.5t44.5 -234q0 -155 -66 -274.5t-183.5 -187t-273.5 -67.5zM614 100q75 0 148 24t130.5 75t92.5 131.5t35 192.5q0 179 -104 297 q-112 125 -302 125q-82 0 -155.5 -26.5t-129.5 -79t-88.5 -132t-32.5 -184.5v-8q0 -105 34 -182.5t91 -130t130 -77.5t151 -25zM862 1228h-465v85h465v-85zM602 1423l-98 31l282 194l99 -70z"/>
<glyph glyph-name="uni1E54" unicode="Ṕ" horiz-adv-x="1333" d="M347 0h-120v1399h508q242 0 387 -111q155 -120 155 -353q0 -210 -119 -335q-136 -144 -423 -144h-388v-456zM731 568q203 0 313 89q117 95 117 275v9q0 174 -118 263q-115 83 -312 83h-384v-719h384zM740 1537l-108 14l241 243l120 -55z"/>
<glyph glyph-name="uni1E55" unicode="ṕ" horiz-adv-x="1347" d="M327 -388h-117v1434h117v-252q125 256 425 256q145 0 270 -72t193 -227q42 -99 42 -230q0 -154 -68.5 -282.5t-213.5 -198.5q-94 -44 -220 -44q-305 0 -428 256v-640zM733 101q131 0 221.5 59t137 155.5t46.5 208.5q0 81 -24.5 156.5t-74.5 135.5t-126 95.5t-180 35.5 q-119 0 -219 -57.5t-153 -179.5q-34 -80 -34 -186q0 -117 53 -222t173 -165q76 -36 180 -36zM721 1236l-108 14l242 243l119 -55z"/>
<glyph glyph-name="uni1E56" unicode="Ṗ" horiz-adv-x="1333" d="M347 0h-120v1399h508q242 0 387 -111q155 -120 155 -353q0 -210 -119 -335q-136 -144 -423 -144h-388v-456zM731 568q203 0 313 89q117 95 117 275v9q0 174 -118 263q-115 83 -312 83h-384v-719h384zM752 1537q-43 0 -64 27.5t-21 60.5q0 40 24.5 64t60.5 24 q33 0 59 -23.5t26 -64.5q0 -35 -22 -61.5t-63 -26.5z"/>
<glyph glyph-name="uni1E57" unicode="ṗ" horiz-adv-x="1347" d="M327 -388h-117v1434h117v-252q125 256 425 256q145 0 270 -72t193 -227q42 -99 42 -230q0 -154 -68.5 -282.5t-213.5 -198.5q-94 -44 -220 -44q-305 0 -428 256v-640zM733 101q131 0 221.5 59t137 155.5t46.5 208.5q0 81 -24.5 156.5t-74.5 135.5t-126 95.5t-180 35.5 q-119 0 -219 -57.5t-153 -179.5q-34 -80 -34 -186q0 -117 53 -222t173 -165q76 -36 180 -36zM733 1259q-43 0 -64 27.5t-21 60.5q0 36 22 62.5t63 26.5q34 0 60 -24t26 -65q0 -33 -21.5 -60.5t-64.5 -27.5z"/>
<glyph glyph-name="uni1E58" unicode="Ṙ" horiz-adv-x="1445" d="M1295 0h-138l-315 461q-42 -3 -93 -5h-402v-456h-120v1399h512q257 0 401.5 -118t144.5 -346q0 -351 -331 -451zM739 568q130 0 226.5 39t150 119.5t53.5 205.5q0 180 -113 267.5t-317 87.5h-392v-719h392zM744 1537q-43 0 -64 27.5t-21 60.5q0 40 24.5 64t60.5 24 q33 0 59 -23.5t26 -64.5q0 -35 -22 -61.5t-63 -26.5z"/>
<glyph glyph-name="uni1E59" unicode="ṙ" horiz-adv-x="721" d="M317 0h-117v1046h117v-250q105 247 384 254v-115q-184 -6 -277.5 -104t-106.5 -269v-562zM451 1259q-43 0 -64 27.5t-21 60.5q0 36 22 62.5t63 26.5q34 0 60 -24t26 -65q0 -33 -21.5 -60.5t-64.5 -27.5z"/>
<glyph glyph-name="uni1E5A" unicode="Ṛ" horiz-adv-x="1445" d="M1295 0h-138l-315 461q-42 -3 -93 -5h-402v-456h-120v1399h512q257 0 401.5 -118t144.5 -346q0 -351 -331 -451zM739 568q130 0 226.5 39t150 119.5t53.5 205.5q0 180 -113 267.5t-317 87.5h-392v-719h392zM721 -329q-42 0 -64 27.5t-22 60.5q0 36 22.5 62.5t63.5 26.5 q33 0 59 -24t26 -65q0 -36 -23 -62t-62 -26z"/>
<glyph glyph-name="uni1E5B" unicode="ṛ" horiz-adv-x="721" d="M256 -329q-42 0 -63.5 28.5t-21.5 59.5q0 36 22.5 62.5t62.5 26.5q33 0 59 -24t26 -65q0 -36 -22.5 -62t-62.5 -26zM317 0h-117v1046h117v-250q105 247 384 254v-115q-184 -6 -277.5 -104t-106.5 -269v-562z"/>
<glyph glyph-name="uni1E5C" unicode="Ṝ" horiz-adv-x="1445" d="M1295 0h-138l-315 461q-42 -3 -93 -5h-402v-456h-120v1399h512q257 0 401.5 -118t144.5 -346q0 -351 -331 -451zM739 568q130 0 226.5 39t150 119.5t53.5 205.5q0 180 -113 267.5t-317 87.5h-392v-719h392zM1056 1551h-626v84h626v-84zM721 -329q-42 0 -64 27.5t-22 60.5 q0 36 22.5 62.5t63.5 26.5q33 0 59 -24t26 -65q0 -36 -23 -62t-62 -26z"/>
<glyph glyph-name="uni1E5D" unicode="ṝ" horiz-adv-x="721" d="M709 1305h-545v84h545v-84zM256 -329q-42 0 -63.5 28.5t-21.5 59.5q0 36 22.5 62.5t62.5 26.5q33 0 59 -24t26 -65q0 -36 -22.5 -62t-62.5 -26zM317 0h-117v1046h117v-250q105 247 384 254v-115q-184 -6 -277.5 -104t-106.5 -269v-562z"/>
<glyph glyph-name="uni1E5E" unicode="Ṟ" horiz-adv-x="1445" d="M1295 0h-138l-315 461q-42 -3 -93 -5h-402v-456h-120v1399h512q257 0 401.5 -118t144.5 -346q0 -351 -331 -451zM739 568q130 0 226.5 39t150 119.5t53.5 205.5q0 180 -113 267.5t-317 87.5h-392v-719h392zM991 -256h-544v84h544v-84z"/>
<glyph glyph-name="uni1E5F" unicode="ṟ" horiz-adv-x="721" d="M619 -256h-545v84h545v-84zM317 0h-117v1046h117v-250q105 247 384 254v-115q-184 -6 -277.5 -104t-106.5 -269v-562z"/>
<glyph glyph-name="uni1E60" unicode="Ṡ" horiz-adv-x="1210" d="M587 -10q-304 0 -517 210l57 101q208 -194 461 -194q77 0 143 15.5t115 47t77 78t28 109.5q-1 140 -111 206q-116 64 -257 103q-120 36 -195 68q-144 61 -185 134q-54 87 -54 198q0 90 38.5 155.5t103.5 107.5t150.5 62t178.5 20q227 0 420 -120l-52 -106 q-90 54 -182 81.5t-193 27.5q-129 0 -220 -46q-95 -51 -110 -144l-3 -42l1 -14q5 -77 55.5 -130.5t154.5 -94.5q57 -23 115 -41t115.5 -37.5t113.5 -43t108 -56.5q130 -81 139 -283q0 -85 -34 -154t-98.5 -117.5t-156.5 -74.5t-206 -26zM601 1537q-44 0 -65 27.5t-21 60.5 q0 40 25 64t61 24q33 0 59 -23.5t26 -64.5q0 -31 -22 -59.5t-63 -28.5z"/>
<glyph glyph-name="uni1E61" unicode="ṡ" horiz-adv-x="889" d="M446 -4q-230 0 -393 147l49 86q151 -134 348 -134q97 0 168 40t85 135q0 59 -40 96q-60 75 -226 117q-139 34 -243 108q-81 58 -86 187q0 98 50.5 158t131.5 87.5t171 27.5q179 0 316 -88l-46 -92q-125 79 -276 79q-69 0 -122 -16t-83 -52t-30 -95q0 -56 34 -92t93 -60.5 t136 -45.5q76 -21 155.5 -56.5t130.5 -89.5q50 -62 50 -159q0 -148 -116 -223q-102 -65 -257 -65zM449 1259q-44 0 -65 27.5t-21 60.5q0 35 22.5 62t63.5 27q35 0 60 -24t25 -65q0 -33 -21.5 -60.5t-63.5 -27.5z"/>
<glyph glyph-name="uni1E62" unicode="Ṣ" horiz-adv-x="1210" d="M587 -10q-304 0 -517 210l57 101q208 -194 461 -194q77 0 143 15.5t115 47t77 78t28 109.5q-1 140 -111 206q-116 64 -257 103q-120 36 -195 68q-144 61 -185 134q-54 87 -54 198q0 90 38.5 155.5t103.5 107.5t150.5 62t178.5 20q227 0 420 -120l-52 -106 q-90 54 -182 81.5t-193 27.5q-129 0 -220 -46q-95 -51 -110 -144l-3 -42l1 -14q5 -77 55.5 -130.5t154.5 -94.5q57 -23 115 -41t115.5 -37.5t113.5 -43t108 -56.5q130 -81 139 -283q0 -85 -34 -154t-98.5 -117.5t-156.5 -74.5t-206 -26zM610 -329q-42 0 -63.5 28.5 t-21.5 59.5q0 36 22.5 62.5t62.5 26.5q33 0 59 -24t26 -65q0 -36 -23 -62t-62 -26z"/>
<glyph glyph-name="uni1E63" unicode="ṣ" horiz-adv-x="889" d="M446 -4q-230 0 -393 147l49 86q151 -134 348 -134q97 0 168 40t85 135q0 59 -40 96q-60 75 -226 117q-139 34 -243 108q-81 58 -86 187q0 98 50.5 158t131.5 87.5t171 27.5q179 0 316 -88l-46 -92q-125 79 -276 79q-69 0 -122 -16t-83 -52t-30 -95q0 -56 34 -92t93 -60.5 t136 -45.5q76 -21 155.5 -56.5t130.5 -89.5q50 -62 50 -159q0 -148 -116 -223q-102 -65 -257 -65zM440 -329q-42 0 -63.5 28.5t-21.5 59.5q0 36 22.5 62.5t62.5 26.5q33 0 59 -24t26 -65q0 -36 -22.5 -62t-62.5 -26z"/>
<glyph glyph-name="uni1E64" unicode="Ṥ" horiz-adv-x="1210" d="M587 -10q-304 0 -517 210l57 101q208 -194 461 -194q77 0 143 15.5t115 47t77 78t28 109.5q-1 140 -111 206q-116 64 -257 103q-120 36 -195 68q-144 61 -185 134q-54 87 -54 198q0 90 38.5 155.5t103.5 107.5t150.5 62t178.5 20q227 0 420 -120l-52 -106 q-90 54 -182 81.5t-193 27.5q-129 0 -220 -46q-95 -51 -110 -144l-3 -42l1 -14q5 -77 55.5 -130.5t154.5 -94.5q57 -23 115 -41t115.5 -37.5t113.5 -43t108 -56.5q130 -81 139 -283q0 -85 -34 -154t-98.5 -117.5t-156.5 -74.5t-206 -26zM509 1528l-98 31l282 194l99 -70z M587 1796q-31 0 -56 24t-25 60q0 44 26 64.5t55 20.5q33 0 58 -22.5t25 -62.5q0 -31 -20 -57.5t-63 -26.5z"/>
<glyph glyph-name="uni1E65" unicode="ṥ" horiz-adv-x="889" d="M446 -4q-230 0 -393 147l49 86q151 -134 348 -134q97 0 168 40t85 135q0 59 -40 96q-60 75 -226 117q-139 34 -243 108q-81 58 -86 187q0 98 50.5 158t131.5 87.5t171 27.5q179 0 316 -88l-46 -92q-125 79 -276 79q-69 0 -122 -16t-83 -52t-30 -95q0 -56 34 -92t93 -60.5 t136 -45.5q76 -21 155.5 -56.5t130.5 -89.5q50 -62 50 -159q0 -148 -116 -223q-102 -65 -257 -65zM357 1227l-98 31l282 194l99 -70zM435 1495q-30 0 -55.5 22.5t-25.5 61.5q0 44 26 64.5t55 20.5q33 0 58 -22.5t25 -62.5q0 -31 -20 -57.5t-63 -26.5z"/>
<glyph glyph-name="uni1E66" unicode="Ṧ" horiz-adv-x="1210" d="M587 -10q-304 0 -517 210l57 101q208 -194 461 -194q77 0 143 15.5t115 47t77 78t28 109.5q-1 140 -111 206q-116 64 -257 103q-120 36 -195 68q-144 61 -185 134q-54 87 -54 198q0 90 38.5 155.5t103.5 107.5t150.5 62t178.5 20q227 0 420 -120l-52 -106 q-90 54 -182 81.5t-193 27.5q-129 0 -220 -46q-95 -51 -110 -144l-3 -42l1 -14q5 -77 55.5 -130.5t154.5 -94.5q57 -23 115 -41t115.5 -37.5t113.5 -43t108 -56.5q130 -81 139 -283q0 -85 -34 -154t-98.5 -117.5t-156.5 -74.5t-206 -26zM706 1539h-167l-214 179h130 l167 -124l167 124h130zM619 1773q-30 0 -55.5 22.5t-25.5 61.5q0 44 25.5 64.5t55.5 20.5q34 0 58.5 -23t24.5 -62q0 -31 -20 -57.5t-63 -26.5z"/>
<glyph glyph-name="uni1E67" unicode="ṧ" horiz-adv-x="889" d="M446 -4q-230 0 -393 147l49 86q151 -134 348 -134q97 0 168 40t85 135q0 59 -40 96q-60 75 -226 117q-139 34 -243 108q-81 58 -86 187q0 98 50.5 158t131.5 87.5t171 27.5q179 0 316 -88l-46 -92q-125 79 -276 79q-69 0 -122 -16t-83 -52t-30 -95q0 -56 34 -92t93 -60.5 t136 -45.5q76 -21 155.5 -56.5t130.5 -89.5q50 -62 50 -159q0 -148 -116 -223q-102 -65 -257 -65zM554 1228h-167l-214 179h130l167 -124l167 124h130zM467 1461q-31 0 -56 24t-25 60q0 44 26 65t55 21q33 0 58 -23t25 -63q0 -31 -20 -57.5t-63 -26.5z"/>
<glyph glyph-name="uni1E68" unicode="Ṩ" horiz-adv-x="1210" d="M587 -10q-304 0 -517 210l57 101q208 -194 461 -194q77 0 143 15.5t115 47t77 78t28 109.5q-1 140 -111 206q-116 64 -257 103q-120 36 -195 68q-144 61 -185 134q-54 87 -54 198q0 90 38.5 155.5t103.5 107.5t150.5 62t178.5 20q227 0 420 -120l-52 -106 q-90 54 -182 81.5t-193 27.5q-129 0 -220 -46q-95 -51 -110 -144l-3 -42l1 -14q5 -77 55.5 -130.5t154.5 -94.5q57 -23 115 -41t115.5 -37.5t113.5 -43t108 -56.5q130 -81 139 -283q0 -85 -34 -154t-98.5 -117.5t-156.5 -74.5t-206 -26zM610 -329q-42 0 -63.5 28.5 t-21.5 59.5q0 36 22.5 62.5t62.5 26.5q33 0 59 -24t26 -65q0 -36 -23 -62t-62 -26zM610 1537q-43 0 -64 27.5t-21 60.5q0 40 24.5 64t60.5 24q33 0 59 -23.5t26 -64.5q0 -35 -22.5 -61.5t-62.5 -26.5z"/>
<glyph glyph-name="uni1E69" unicode="ṩ" horiz-adv-x="889" d="M446 -4q-230 0 -393 147l49 86q151 -134 348 -134q97 0 168 40t85 135q0 59 -40 96q-60 75 -226 117q-139 34 -243 108q-81 58 -86 187q0 98 50.5 158t131.5 87.5t171 27.5q179 0 316 -88l-46 -92q-125 79 -276 79q-69 0 -122 -16t-83 -52t-30 -95q0 -56 34 -92t93 -60.5 t136 -45.5q76 -21 155.5 -56.5t130.5 -89.5q50 -62 50 -159q0 -148 -116 -223q-102 -65 -257 -65zM440 -329q-42 0 -63.5 28.5t-21.5 59.5q0 36 22.5 62.5t62.5 26.5q33 0 59 -24t26 -65q0 -36 -22.5 -62t-62.5 -26zM440 1259q-43 0 -64 27.5t-21 60.5q0 36 22 62.5t63 26.5 q35 0 60 -24t25 -65q0 -35 -22 -61.5t-63 -26.5z"/>
<glyph glyph-name="uni1E6A" unicode="Ṫ" horiz-adv-x="1095" d="M607 0h-120v1287h-464v112h1050v-112h-466v-1287zM549 1537q-44 0 -65 27.5t-21 60.5q0 40 25 64t61 24q33 0 59 -23.5t26 -64.5q0 -35 -22.5 -61.5t-62.5 -26.5z"/>
<glyph glyph-name="uni1E6B" unicode="ṫ" horiz-adv-x="761" d="M488 -4q-73 0 -130 30t-89.5 95t-32.5 168v634h-152v95h152v266h116v-266h344v-95h-344v-616q0 -200 149 -202q87 1 176 58l38 -90q-105 -75 -227 -77zM295 1422q-44 0 -65 27.5t-21 60.5q0 40 25 64t61 24q33 0 59 -23.5t26 -64.5q0 -35 -22.5 -61.5t-62.5 -26.5z"/>
<glyph glyph-name="uni1E6C" unicode="Ṭ" horiz-adv-x="1095" d="M607 0h-120v1287h-464v112h1050v-112h-466v-1287zM547 -329q-42 0 -63.5 28.5t-21.5 59.5q0 36 22.5 62.5t62.5 26.5q34 0 60 -24t26 -65q0 -36 -24 -62t-62 -26z"/>
<glyph glyph-name="uni1E6D" unicode="ṭ" horiz-adv-x="761" d="M488 -4q-73 0 -130 30t-89.5 95t-32.5 168v634h-152v95h152v266h116v-266h344v-95h-344v-616q0 -200 149 -202q87 1 176 58l38 -90q-105 -75 -227 -77zM486 -329q-42 0 -63.5 28.5t-21.5 59.5q0 36 22.5 62.5t62.5 26.5q33 0 59 -24t26 -65q0 -36 -23 -62t-62 -26z"/>
<glyph glyph-name="uni1E6E" unicode="Ṯ" horiz-adv-x="1095" d="M607 0h-120v1287h-464v112h1050v-112h-466v-1287zM818 -256h-545v84h545v-84z"/>
<glyph glyph-name="uni1E6F" unicode="ṯ" horiz-adv-x="761" d="M488 -4q-73 0 -130 30t-89.5 95t-32.5 168v634h-152v95h152v266h116v-266h344v-95h-344v-616q0 -200 149 -202q87 1 176 58l38 -90q-105 -75 -227 -77zM757 -256h-545v84h545v-84z"/>
<glyph glyph-name="uni1E70" unicode="Ṱ" horiz-adv-x="1095" d="M607 0h-120v1287h-464v112h1050v-112h-466v-1287zM818 -401h-121l-148 158l-148 -158h-122l203 245h133z"/>
<glyph glyph-name="uni1E71" unicode="ṱ" horiz-adv-x="761" d="M488 -4q-73 0 -130 30t-89.5 95t-32.5 168v634h-152v95h152v266h116v-266h344v-95h-344v-616q0 -200 149 -202q87 1 176 58l38 -90q-105 -75 -227 -77zM763 -401h-122l-148 158l-148 -158h-121l203 245h133z"/>
<glyph glyph-name="uni1E72" unicode="Ṳ" horiz-adv-x="1536" d="M769 -10q-177 0 -306 66.5t-199.5 195t-70.5 315.5v832h120v-832q0 -125 36.5 -213.5t99.5 -144.5t145.5 -82t174.5 -26q193 0 314 102q140 119 140 364v832h118v-832q0 -282 -152 -429.5t-420 -147.5zM604 -314q-33 0 -56 24.5t-23 56.5q0 42 25 62.5t54 20.5 t54.5 -19.5t25.5 -63.5q0 -30 -19.5 -55.5t-60.5 -25.5zM928 -314q-41 0 -60.5 25.5t-19.5 55.5q0 42 24 62.5t56 20.5q29 0 54.5 -19.5t25.5 -63.5q0 -30 -19.5 -55.5t-60.5 -25.5z"/>
<glyph glyph-name="uni1E73" unicode="ṳ" horiz-adv-x="1287" d="M560 -4q-138 0 -225.5 55t-129 148t-41.5 206v641h117v-614q0 -107 40 -178.5t111 -108t164 -36.5q131 13 213.5 69.5t121.5 148t39 206.5v513h117v-1046h-117v259q-108 -259 -410 -263zM463 -314q-33 0 -55.5 24.5t-22.5 56.5q0 44 25 63.5t53 19.5q30 0 55 -19.5 t25 -63.5q0 -30 -19 -55.5t-61 -25.5zM787 -314q-41 0 -60.5 25.5t-19.5 55.5q0 42 24.5 62.5t55.5 20.5t55.5 -20t24.5 -63q0 -30 -19 -55.5t-61 -25.5z"/>
<glyph glyph-name="uni1E74" unicode="Ṵ" horiz-adv-x="1536" d="M769 -10q-177 0 -306 66.5t-199.5 195t-70.5 315.5v832h120v-832q0 -125 36.5 -213.5t99.5 -144.5t145.5 -82t174.5 -26q193 0 314 102q140 119 140 364v832h118v-832q0 -282 -152 -429.5t-420 -147.5zM901 -385q-32 0 -72.5 19.5t-78.5 42.5q-39 24 -64 33.5t-44 9.5 q-22 0 -36 -13q-41 -17 -41 -84h-86q0 206 152 206q31 0 69 -18.5t74 -40.5q77 -46 116 -46q22 0 37 13q39 15 41 84h86q0 -206 -153 -206z"/>
<glyph glyph-name="uni1E75" unicode="ṵ" horiz-adv-x="1287" d="M560 -4q-138 0 -225.5 55t-129 148t-41.5 206v641h117v-614q0 -107 40 -178.5t111 -108t164 -36.5q131 13 213.5 69.5t121.5 148t39 206.5v513h117v-1046h-117v259q-108 -259 -410 -263zM761 -385q-32 0 -72.5 19.5t-79.5 42.5t-64 33t-44 10q-22 0 -36 -13 q-41 -17 -41 -84h-86q0 206 153 206q29 0 67.5 -18.5t74.5 -39.5q78 -47 117 -47q21 0 36 13q41 15 41 84h86q0 -206 -152 -206z"/>
<glyph glyph-name="uni1E76" unicode="Ṷ" horiz-adv-x="1536" d="M769 -10q-177 0 -306 66.5t-199.5 195t-70.5 315.5v832h120v-832q0 -125 36.5 -213.5t99.5 -144.5t145.5 -82t174.5 -26q193 0 314 102q140 119 140 364v832h118v-832q0 -282 -152 -429.5t-420 -147.5zM1037 -401h-122l-148 158l-148 -158h-121l203 245h133z"/>
<glyph glyph-name="uni1E77" unicode="ṷ" horiz-adv-x="1287" d="M560 -4q-138 0 -225.5 55t-129 148t-41.5 206v641h117v-614q0 -107 40 -178.5t111 -108t164 -36.5q131 13 213.5 69.5t121.5 148t39 206.5v513h117v-1046h-117v259q-108 -259 -410 -263zM896 -401h-121l-148 158l-148 -158h-122l203 245h133z"/>
<glyph glyph-name="uni1E78" unicode="Ṹ" horiz-adv-x="1536" d="M769 -10q-177 0 -306 66.5t-199.5 195t-70.5 315.5v832h120v-832q0 -125 36.5 -213.5t99.5 -144.5t145.5 -82t174.5 -26q193 0 314 102q140 119 140 364v832h118v-832q0 -282 -152 -429.5t-420 -147.5zM905 1535q-57 6 -121 40l-32 15q-77 39 -114 39q-23 0 -37 -13 q-42 -15 -42 -75h-76q0 182 152 182q35 -4 75.5 -20.5t77.5 -34.5q74 -38 113 -38q24 0 38 12q40 15 42 73h74q0 -48 -14.5 -89t-47.5 -66t-88 -25zM745 1797l-98 31l282 194l99 -70z"/>
<glyph glyph-name="uni1E79" unicode="ṹ" horiz-adv-x="1287" d="M560 -4q-138 0 -225.5 55t-129 148t-41.5 206v641h117v-614q0 -107 40 -178.5t111 -108t164 -36.5q131 13 213.5 69.5t121.5 148t39 206.5v513h117v-1046h-117v259q-108 -259 -410 -263zM781 1222q-57 6 -121 40l-32 15q-77 39 -114 39q-23 0 -37 -13q-42 -15 -42 -75 h-76q0 182 152 182q35 -4 75.5 -20.5t77.5 -34.5q74 -38 113 -38q24 0 38 12q41 15 42 73h74q0 -48 -14.5 -89t-47.5 -66t-88 -25zM621 1483l-98 32l282 194l99 -70z"/>
<glyph glyph-name="uni1E7A" unicode="Ṻ" horiz-adv-x="1536" d="M769 -10q-177 0 -306 66.5t-199.5 195t-70.5 315.5v832h120v-832q0 -125 36.5 -213.5t99.5 -144.5t145.5 -82t174.5 -26q193 0 314 102q140 119 140 364v832h118v-832q0 -282 -152 -429.5t-420 -147.5zM997 1543h-465v85h465v-85zM617 1736q-33 0 -56 23.5t-23 57.5 q0 43 25 61.5t54 18.5q39 0 58.5 -23.5t19.5 -56.5q0 -31 -20 -56t-58 -25zM911 1736q-32 0 -55 23t-23 58q0 43 25 61.5t53 18.5q30 0 54.5 -20.5t24.5 -59.5q0 -31 -21.5 -56t-57.5 -25z"/>
<glyph glyph-name="uni1E7B" unicode="ṻ" horiz-adv-x="1287" d="M560 -4q-138 0 -225.5 55t-129 148t-41.5 206v641h117v-614q0 -107 40 -178.5t111 -108t164 -36.5q131 13 213.5 69.5t121.5 148t39 206.5v513h117v-1046h-117v259q-108 -259 -410 -263zM857 1228h-465v85h465v-85zM477 1421q-34 0 -56.5 24t-22.5 58q0 43 25 61.5 t54 18.5q39 0 58.5 -24t19.5 -56q0 -31 -20 -56.5t-58 -25.5zM771 1421q-33 0 -55.5 24t-22.5 58q0 43 25 61.5t53 18.5q30 0 54.5 -20.5t24.5 -59.5q0 -33 -23 -57.5t-56 -24.5z"/>
<glyph glyph-name="uni1E7C" unicode="Ṽ" horiz-adv-x="1304" d="M713 0h-125l-573 1399h130l508 -1264l508 1264h128zM787 1538q-43 0 -115 42q-30 16 -56 32q-56 31 -89 31q-22 0 -36 -13q-41 -16 -41 -84h-86q0 206 153 206q26 0 55.5 -13t58.5 -29t56 -32t45 -21q25 -10 43 -10q22 0 37 13q41 17 41 84h86q0 -99 -37 -152.5 t-115 -53.5z"/>
<glyph glyph-name="uni1E7D" unicode="ṽ" horiz-adv-x="968" d="M555 0h-123l-420 1046h126l357 -925l356 925h121zM627 1235q-26 0 -56 13t-59.5 29.5t-55.5 32.5q-27 15 -45 20q-24 10 -43 10q-22 0 -37 -13q-41 -15 -41 -84h-86q0 206 153 206q34 0 74 -19.5t78 -42.5t62.5 -32.5t43.5 -9.5q22 0 37 12q41 17 41 84h86 q0 -206 -152 -206z"/>
<glyph glyph-name="uni1E7E" unicode="Ṿ" horiz-adv-x="1304" d="M713 0h-125l-573 1399h130l508 -1264l508 1264h128zM653 -329q-42 0 -64 27.5t-22 60.5q0 36 22.5 62.5t63.5 26.5q40 0 62.5 -27t22.5 -62q0 -36 -22.5 -62t-62.5 -26z"/>
<glyph glyph-name="uni1E7F" unicode="ṿ" horiz-adv-x="968" d="M555 0h-123l-420 1046h126l357 -925l356 925h121zM493 -329q-42 0 -64 27.5t-22 60.5q0 36 22.5 62.5t63.5 26.5q40 0 62.5 -27t22.5 -62q0 -36 -22.5 -62t-62.5 -26z"/>
<glyph glyph-name="Wgrave" unicode="Ẁ" horiz-adv-x="2035" d="M1548 0h-125l-403 1243l-409 -1243h-124l-472 1399h130l407 -1268l407 1268h122l408 -1269l406 1269h127zM1005 1537l-252 202l119 55l241 -243z"/>
<glyph glyph-name="wgrave" unicode="ẁ" horiz-adv-x="1697" d="M1310 0h-123l-329 901l-329 -901h-123l-394 1046h125l332 -925l326 925h125l330 -925l328 925h123zM841 1236l-253 202l119 55l242 -243z"/>
<glyph glyph-name="Wacute" unicode="Ẃ" horiz-adv-x="2035" d="M1548 0h-125l-403 1243l-409 -1243h-124l-472 1399h130l407 -1268l407 1268h122l408 -1269l406 1269h127zM1045 1537l-108 14l242 243l119 -55z"/>
<glyph glyph-name="wacute" unicode="ẃ" horiz-adv-x="1697" d="M1310 0h-123l-329 901l-329 -901h-123l-394 1046h125l332 -925l326 925h125l330 -925l328 925h123zM879 1236l-108 14l242 243l119 -55z"/>
<glyph glyph-name="Wdieresis" unicode="Ẅ" horiz-adv-x="2035" d="M1548 0h-125l-403 1243l-409 -1243h-124l-472 1399h130l407 -1268l407 1268h122l408 -1269l406 1269h127zM857 1537q-39 0 -59.5 26t-20.5 57q0 37 24 60t56 23t56 -22t24 -61q0 -29 -20 -56t-60 -27zM1183 1537q-39 0 -59.5 26t-20.5 57q0 37 24 60t56 23q38 0 59 -25 t21 -58q0 -29 -20 -56t-60 -27z"/>
<glyph glyph-name="wdieresis" unicode="ẅ" horiz-adv-x="1697" d="M1310 0h-123l-329 901l-329 -901h-123l-394 1046h125l332 -925l326 925h125l330 -925l328 925h123zM691 1264q-32 0 -55.5 24t-23.5 57q0 44 25 63.5t54 19.5t54.5 -19.5t25.5 -63.5q0 -31 -19.5 -56t-60.5 -25zM1015 1264q-40 0 -60 25t-20 56q0 43 24 63t56 20 q29 0 54.5 -19.5t25.5 -63.5q0 -31 -19.5 -56t-60.5 -25z"/>
<glyph glyph-name="uni1E86" unicode="Ẇ" horiz-adv-x="2035" d="M1548 0h-125l-403 1243l-409 -1243h-124l-472 1399h130l407 -1268l407 1268h122l408 -1269l406 1269h127zM1019 1537q-44 0 -65 27.5t-21 60.5q0 40 25 64t61 24q33 0 59 -23.5t26 -64.5q0 -35 -22.5 -61.5t-62.5 -26.5z"/>
<glyph glyph-name="uni1E87" unicode="ẇ" horiz-adv-x="1697" d="M1310 0h-123l-329 901l-329 -901h-123l-394 1046h125l332 -925l326 925h125l330 -925l328 925h123zM857 1259q-43 0 -64 27.5t-21 60.5q0 36 22 62.5t63 26.5q34 0 60 -24t26 -65q0 -33 -21.5 -60.5t-64.5 -27.5z"/>
<glyph glyph-name="uni1E88" unicode="Ẉ" horiz-adv-x="2035" d="M1548 0h-125l-403 1243l-409 -1243h-124l-472 1399h130l407 -1268l407 1268h122l408 -1269l406 1269h127zM1019 -329q-42 0 -64 27.5t-22 60.5q0 36 22.5 62.5t63.5 26.5q40 0 62.5 -27t22.5 -62q0 -36 -22.5 -62t-62.5 -26z"/>
<glyph glyph-name="uni1E89" unicode="ẉ" horiz-adv-x="1697" d="M1310 0h-123l-329 901l-329 -901h-123l-394 1046h125l332 -925l326 925h125l330 -925l328 925h123zM857 -329q-42 0 -63.5 28.5t-21.5 59.5q0 36 22.5 62.5t62.5 26.5q41 0 63.5 -27t22.5 -62t-23 -61.5t-63 -26.5z"/>
<glyph glyph-name="uni1E8A" unicode="Ẋ" horiz-adv-x="1302" d="M1235 0h-144l-451 624l-447 -624h-142l517 721l-480 678h141l411 -577l414 577h141l-479 -672zM643 1537q-43 0 -64 27.5t-21 60.5q0 41 25 64.5t60 23.5q34 0 60 -23.5t26 -64.5q0 -33 -21.5 -60.5t-64.5 -27.5z"/>
<glyph glyph-name="uni1E8B" unicode="ẋ" horiz-adv-x="1031" d="M976 0h-138l-325 455l-330 -455h-134l388 540l-361 506h136l302 -423l305 423h130l-358 -506zM513 1259q-44 0 -65 27.5t-21 60.5q0 35 22.5 62t63.5 27q35 0 60 -24t25 -65q0 -35 -22.5 -61.5t-62.5 -26.5z"/>
<glyph glyph-name="uni1E8C" unicode="Ẍ" horiz-adv-x="1302" d="M1235 0h-144l-451 624l-447 -624h-142l517 721l-480 678h141l411 -577l414 577h141l-479 -672zM481 1537q-39 0 -59.5 26t-20.5 57q0 37 24 60t56 23t56 -22t24 -61q0 -29 -20 -56t-60 -27zM806 1537q-39 0 -59.5 26t-20.5 57q0 37 24 60t56 23t56 -22t24 -61 q0 -29 -20 -56t-60 -27z"/>
<glyph glyph-name="uni1E8D" unicode="ẍ" horiz-adv-x="1031" d="M976 0h-138l-325 455l-330 -455h-134l388 540l-361 506h136l302 -423l305 423h130l-358 -506zM349 1264q-33 0 -55.5 24t-22.5 57q0 44 25 63.5t53 19.5q30 0 55 -19.5t25 -63.5q0 -30 -19 -55.5t-61 -25.5zM673 1264q-40 0 -60 25t-20 56q0 43 24 63t56 20 q30 0 55 -19.5t25 -63.5q0 -31 -19.5 -56t-60.5 -25z"/>
<glyph glyph-name="uni1E8E" unicode="Ẏ" horiz-adv-x="1237" d="M682 0h-119v501l-551 898h127l483 -762l477 762h125l-542 -896v-503zM618 1537q-43 0 -64 27.5t-21 60.5q0 40 24.5 64t60.5 24q33 0 59 -23.5t26 -64.5q0 -35 -22.5 -61.5t-62.5 -26.5z"/>
<glyph glyph-name="uni1E8F" unicode="ẏ" horiz-adv-x="973" d="M193 -392q-122 0 -210 68l50 94q72 -49 153 -49q134 0 209 172l46 111l-433 1042h125l367 -913l355 913h122l-484 -1196q-107 -242 -300 -242zM494 1259q-43 0 -64 27.5t-21 60.5q0 36 22 62.5t63 26.5q35 0 60 -24t25 -65q0 -35 -22 -61.5t-63 -26.5z"/>
<glyph glyph-name="uni1E90" unicode="Ẑ" horiz-adv-x="1313" d="M1220 0h-1128v99l967 1188h-940v112h1094v-99l-968 -1188h976zM926 1541h-121l-148 159l-148 -159h-122l203 246h133z"/>
<glyph glyph-name="uni1E91" unicode="ẑ" horiz-adv-x="1043" d="M951 -2l-840 2v94l686 850l-668 2v100l807 -1v-94l-687 -850l702 -2v-101zM801 1240h-122l-148 159l-148 -159h-121l203 245h133z"/>
<glyph glyph-name="uni1E92" unicode="Ẓ" horiz-adv-x="1313" d="M1220 0h-1128v99l967 1188h-940v112h1094v-99l-968 -1188h976zM657 -329q-42 0 -64 27.5t-22 60.5q0 36 22.5 62.5t63.5 26.5q33 0 59 -24t26 -65q0 -36 -23 -62t-62 -26z"/>
<glyph glyph-name="uni1E93" unicode="ẓ" horiz-adv-x="1043" d="M951 -2l-840 2v94l686 850l-668 2v100l807 -1v-94l-687 -850l702 -2v-101zM531 -329q-42 0 -63.5 28.5t-21.5 59.5q0 36 22.5 62.5t62.5 26.5q34 0 60 -24t26 -65q0 -36 -24 -62t-62 -26z"/>
<glyph glyph-name="uni1E94" unicode="Ẕ" horiz-adv-x="1313" d="M1220 0h-1128v99l967 1188h-940v112h1094v-99l-968 -1188h976zM929 -256h-545v84h545v-84z"/>
<glyph glyph-name="uni1E95" unicode="ẕ" horiz-adv-x="1043" d="M951 -2l-840 2v94l686 850l-668 2v100l807 -1v-94l-687 -850l702 -2v-101zM803 -256h-544v84h544v-84z"/>
<glyph glyph-name="uni1E96" unicode="ẖ" horiz-adv-x="1316" d="M1149 0h-118v614q0 160 -88 241.5t-232 81.5q-183 -13 -283.5 -121t-100.5 -303v-513h-117v1484h117v-695q112 258 420 261q142 0 230.5 -53.5t130 -146t41.5 -209.5v-641zM952 -256h-545v84h545v-84z"/>
<glyph glyph-name="uni1E97" unicode="ẗ" horiz-adv-x="761" d="M133 1502q-32 0 -55.5 24t-23.5 57q0 44 25 63.5t54 19.5t54.5 -20t25.5 -63q0 -30 -19.5 -55.5t-60.5 -25.5zM488 -4q-73 0 -130 30t-89.5 95t-32.5 168v634h-152v95h152v266h116v-266h344v-95h-344v-616q0 -200 149 -202q87 1 176 58l38 -90q-105 -75 -227 -77z M457 1502q-40 0 -60 25t-20 56q0 42 23.5 62.5t56.5 20.5q29 0 54.5 -20t25.5 -63q0 -30 -19.5 -55.5t-60.5 -25.5z"/>
<glyph glyph-name="uni1E98" unicode="ẘ" horiz-adv-x="1697" d="M1310 0h-123l-329 901l-329 -901h-123l-394 1046h125l332 -925l326 925h125l330 -925l328 925h123zM855 1161q-82 0 -138.5 55.5t-56.5 137.5q0 48 23.5 92t67 72.5t104.5 28.5q62 0 106.5 -28.5t68 -72.5t23.5 -92q0 -81 -58 -137t-140 -56zM855 1233q51 0 90 34.5 t39 86.5q0 56 -40.5 88.5t-88.5 32.5q-47 0 -87.5 -32.5t-40.5 -88.5q0 -51 36 -86t92 -35z"/>
<glyph glyph-name="uni1E99" unicode="ẙ" horiz-adv-x="973" d="M193 -392q-122 0 -210 68l50 94q72 -49 153 -49q134 0 209 172l46 111l-433 1042h125l367 -913l355 913h122l-484 -1196q-107 -242 -300 -242zM479 1161q-82 0 -138.5 55.5t-56.5 137.5q0 48 23.5 92t67 72.5t104.5 28.5q62 0 106.5 -28.5t68 -72.5t23.5 -92 q0 -81 -58 -137t-140 -56zM479 1233q51 0 90 34.5t39 86.5q0 56 -40.5 88.5t-88.5 32.5q-47 0 -87.5 -32.5t-40.5 -88.5q0 -51 36 -86t92 -35z"/>
<glyph glyph-name="uni1E9A" unicode="ẚ" horiz-adv-x="1144" d="M459 -4h-9q-83 0 -147 25.5t-107.5 68.5t-65 99.5t-21.5 117.5q0 132 100.5 209t289.5 81h359v86q0 59 -17 108t-53.5 84.5t-92.5 55t-134 19.5q-181 0 -344 -129l-52 84q199 145 416 145q102 0 176 -25q217 -77 217 -331l3 -694h-115l-1 187q-133 -191 -402 -191z M480 96q131 0 232.5 61t147.5 192l-1 152h-315q-96 0 -169.5 -16.5t-114.5 -58t-41 -115.5q0 -57 28 -106t86 -79t147 -30zM428 1126v67q42 0 80 19t62 54t24 83q0 59 -46 108.5t-120 49.5v66q70 0 121.5 -33.5t80 -85t28.5 -105.5q0 -89 -64 -156t-166 -67z"/>
<glyph glyph-name="uni1E9B" unicode="ẛ" horiz-adv-x="639" d="M342 0h-116v1157q0 114 46.5 190.5t120.5 114.5t156 38q91 -5 174 -48l-33 -98q-65 39 -140 39q-55 0 -102 -24.5t-76.5 -74t-29.5 -125.5v-1169zM475 1638q-44 0 -65 27.5t-21 60.5q0 40 25 64t61 24q33 0 59 -23.5t26 -64.5q0 -35 -22.5 -61.5t-62.5 -26.5z"/>
<glyph glyph-name="uni1E9E" unicode="ẞ" horiz-adv-x="1347" d="M769 0h-167v111h131q93 0 166 18.5t124 55t77.5 90.5t26.5 126q0 206 -227 262q-77 18 -184 18v112l345 415q-140 85 -331 85q-88 0 -166 -23.5t-136 -72.5t-91 -124.5t-33 -176.5v-896h-120v887q0 243 141.5 379.5t401.5 136.5q258 0 435 -135v-107l-312 -374 q196 -26 301 -133q97 -100 97 -253q0 -91 -33 -165t-94.5 -126.5t-150 -81t-201.5 -28.5z"/>
<glyph glyph-name="uni1EA0" unicode="Ạ" horiz-adv-x="1415" d="M1403 0h-132l-170 381h-791l-169 -381h-129l632 1399h125zM1051 493l-348 775l-343 -775h691zM703 -329q-42 0 -64 27.5t-22 60.5q0 36 22.5 62.5t63.5 26.5q33 0 59 -24t26 -65q0 -36 -22.5 -62t-62.5 -26z"/>
<glyph glyph-name="uni1EA1" unicode="ạ" horiz-adv-x="1144" d="M459 -4h-9q-83 0 -147 25.5t-107.5 68.5t-65 99.5t-21.5 117.5q0 132 100.5 209t289.5 81h359v86q0 59 -17 108t-53.5 84.5t-92.5 55t-134 19.5q-181 0 -344 -129l-52 84q199 145 416 145q102 0 176 -25q217 -77 217 -331l3 -694h-115l-1 187q-133 -191 -402 -191z M480 96q131 0 232.5 61t147.5 192l-1 152h-315q-96 0 -169.5 -16.5t-114.5 -58t-41 -115.5q0 -57 28 -106t86 -79t147 -30zM570 -329q-42 0 -63.5 28.5t-21.5 59.5q0 36 22.5 62.5t62.5 26.5q33 0 59 -24t26 -65q0 -36 -23 -62t-62 -26z"/>
<glyph glyph-name="uni1EA2" unicode="Ả" horiz-adv-x="1415" d="M1403 0h-132l-170 381h-791l-169 -381h-129l632 1399h125zM1051 493l-348 775l-343 -775h691zM733 1504l-74 33q92 77 92 161t-82 84q-44 0 -91 -31l-42 68q73 51 153 51q75 0 122.5 -36.5t47.5 -114.5q0 -107 -126 -215z"/>
</font>
</defs>
</svg>
