<svg xmlns="http://www.w3.org/2000/svg" class="js" viewBox="0 246.609 595.279 595.279"><path d="M0 246.609v595.279h595.28V246.609H0zm323.948 464.289c0 57.939-33.963 84.313-83.514 84.313-44.749 0-70.725-23.175-83.912-51.143l-.001.001-.001-.005.002.004 45.555-27.568c8.788 15.582 16.782 28.768 35.96 28.768 18.382 0 29.971-7.19 29.971-35.159V519.9h55.94v190.998zm132.279 84.317c-51.945 0-85.512-24.771-101.893-57.141h-.002l45.551-26.373c11.989 19.582 27.573 33.966 55.145 33.966 23.179 0 37.96-11.589 37.96-27.572 0-19.181-15.184-25.975-40.758-37.158l-13.981-5.998c-40.36-17.18-67.135-38.757-67.135-84.312 0-41.957 31.967-73.925 81.917-73.925 35.563 0 61.138 12.388 79.518 44.755l-43.557 27.97c-9.591-17.181-19.977-23.973-35.96-23.973-16.383 0-26.772 10.389-26.772 23.973 0 16.783 10.391 23.578 34.362 33.969l13.984 5.992c47.551 20.382 74.324 41.157 74.324 87.907 0 50.352-39.56 77.92-92.703 77.92z"/></svg>