<svg xmlns="http://www.w3.org/2000/svg" class="api" viewBox="0.088 123.421 595.193 595.047"><path d="m593.536 155.976-30.927-30.927c-1.163-1.163-2.675-1.627-4.186-1.627a6.31 6.31 0 0 0-4.186 1.627l-55.459 55.575c-24.184-16.394-52.668-25.113-81.734-24.997-37.321 0-74.759 14.184-103.244 42.786l-74.294 74.293a5.97 5.97 0 0 0 0 8.255l198.116 198.117c1.163 1.162 2.675 1.628 4.186 1.628 1.512 0 3.023-.582 4.187-1.628l74.293-74.294c50.228-50.343 56.156-128.125 17.673-184.979l55.575-55.575c2.326-2.209 2.326-5.929 0-8.254zM346.355 446.291a5.97 5.97 0 0 0-8.255 0l-48.599 48.599-65.922-65.922 48.715-48.716c2.209-2.209 2.209-5.93 0-8.255l-26.509-26.508a5.97 5.97 0 0 0-8.255 0l-48.599 48.715-31.392-31.392c-1.047-1.046-2.559-1.744-4.186-1.627a6.31 6.31 0 0 0-4.186 1.627l-74.178 74.411C24.646 487.45 18.717 565.347 57.2 622.085L1.744 677.66a5.969 5.969 0 0 0 0 8.254l30.927 30.927c1.162 1.163 2.674 1.628 4.186 1.628 1.511 0 3.022-.581 4.186-1.628L96.5 661.267c24.532 16.742 53.134 24.997 81.735 24.997 37.321 0 74.759-14.185 103.243-42.786l74.294-74.294c2.209-2.209 2.209-5.93 0-8.255l-31.392-31.392 48.715-48.715c2.209-2.209 2.209-5.93 0-8.255l-26.74-26.276z"/></svg>